<mxfile host="Electron" agent="Mozilla/5.0 (Macintosh; Intel Mac OS X 10_15_7) AppleWebKit/537.36 (KHTML, like Gecko) draw.io/24.7.17 Chrome/128.0.6613.36 Electron/32.0.1 Safari/537.36" version="24.7.17" pages="7">
  <diagram id="C5RBs43oDa-KdzZeNtuy" name="Hysteresis control">
    <mxGraphModel dx="2309" dy="878" grid="1" gridSize="10" guides="1" tooltips="1" connect="1" arrows="1" fold="1" page="1" pageScale="1" pageWidth="827" pageHeight="1169" math="0" shadow="0">
      <root>
        <mxCell id="WIyWlLk6GJQsqaUBKTNV-0" />
        <mxCell id="WIyWlLk6GJQsqaUBKTNV-1" parent="WIyWlLk6GJQsqaUBKTNV-0" />
        <mxCell id="WIyWlLk6GJQsqaUBKTNV-3" value="Check indoor temperature" style="rounded=1;whiteSpace=wrap;html=1;fontSize=12;glass=0;strokeWidth=1;shadow=0;" parent="WIyWlLk6GJQsqaUBKTNV-1" vertex="1">
          <mxGeometry x="160" y="80" width="160" height="40" as="geometry" />
        </mxCell>
        <mxCell id="_LvCN-xPhq3G0ntj4Ozc-2" style="edgeStyle=orthogonalEdgeStyle;rounded=0;orthogonalLoop=1;jettySize=auto;html=1;" parent="WIyWlLk6GJQsqaUBKTNV-1" source="WIyWlLk6GJQsqaUBKTNV-6" target="WIyWlLk6GJQsqaUBKTNV-11" edge="1">
          <mxGeometry relative="1" as="geometry" />
        </mxCell>
        <mxCell id="_LvCN-xPhq3G0ntj4Ozc-9" style="edgeStyle=orthogonalEdgeStyle;rounded=0;orthogonalLoop=1;jettySize=auto;html=1;entryX=0;entryY=0.5;entryDx=0;entryDy=0;" parent="WIyWlLk6GJQsqaUBKTNV-1" source="WIyWlLk6GJQsqaUBKTNV-6" target="_LvCN-xPhq3G0ntj4Ozc-6" edge="1">
          <mxGeometry relative="1" as="geometry" />
        </mxCell>
        <mxCell id="WIyWlLk6GJQsqaUBKTNV-6" value="If indoor temperature &amp;lt; lower threshold?" style="rhombus;whiteSpace=wrap;html=1;shadow=0;fontFamily=Helvetica;fontSize=12;align=center;strokeWidth=1;spacing=6;spacingTop=-4;" parent="WIyWlLk6GJQsqaUBKTNV-1" vertex="1">
          <mxGeometry x="-60" y="200" width="280" height="120" as="geometry" />
        </mxCell>
        <mxCell id="WIyWlLk6GJQsqaUBKTNV-11" value="Turn heat pump on" style="rounded=1;whiteSpace=wrap;html=1;fontSize=12;glass=0;strokeWidth=1;shadow=0;" parent="WIyWlLk6GJQsqaUBKTNV-1" vertex="1">
          <mxGeometry x="20" y="360" width="120" height="40" as="geometry" />
        </mxCell>
        <mxCell id="_LvCN-xPhq3G0ntj4Ozc-1" style="edgeStyle=orthogonalEdgeStyle;rounded=0;orthogonalLoop=1;jettySize=auto;html=1;exitX=0.5;exitY=1;exitDx=0;exitDy=0;entryX=0.5;entryY=0;entryDx=0;entryDy=0;" parent="WIyWlLk6GJQsqaUBKTNV-1" source="_LvCN-xPhq3G0ntj4Ozc-0" target="WIyWlLk6GJQsqaUBKTNV-3" edge="1">
          <mxGeometry relative="1" as="geometry" />
        </mxCell>
        <mxCell id="_LvCN-xPhq3G0ntj4Ozc-0" value="Start" style="rounded=1;whiteSpace=wrap;html=1;" parent="WIyWlLk6GJQsqaUBKTNV-1" vertex="1">
          <mxGeometry x="180" width="120" height="40" as="geometry" />
        </mxCell>
        <mxCell id="_LvCN-xPhq3G0ntj4Ozc-3" value="Yes" style="text;html=1;align=center;verticalAlign=middle;resizable=0;points=[];autosize=1;strokeColor=none;fillColor=none;" parent="WIyWlLk6GJQsqaUBKTNV-1" vertex="1">
          <mxGeometry x="80" y="320" width="40" height="30" as="geometry" />
        </mxCell>
        <mxCell id="_LvCN-xPhq3G0ntj4Ozc-12" style="edgeStyle=orthogonalEdgeStyle;rounded=0;orthogonalLoop=1;jettySize=auto;html=1;entryX=0.5;entryY=0;entryDx=0;entryDy=0;" parent="WIyWlLk6GJQsqaUBKTNV-1" source="_LvCN-xPhq3G0ntj4Ozc-6" target="_LvCN-xPhq3G0ntj4Ozc-11" edge="1">
          <mxGeometry relative="1" as="geometry" />
        </mxCell>
        <mxCell id="_LvCN-xPhq3G0ntj4Ozc-6" value="If indoor temperature &amp;gt; upper threshold?" style="rhombus;whiteSpace=wrap;html=1;" parent="WIyWlLk6GJQsqaUBKTNV-1" vertex="1">
          <mxGeometry x="264" y="200" width="300" height="120" as="geometry" />
        </mxCell>
        <mxCell id="_LvCN-xPhq3G0ntj4Ozc-8" value="" style="endArrow=classic;html=1;rounded=0;exitX=0.5;exitY=1;exitDx=0;exitDy=0;entryX=0.5;entryY=0;entryDx=0;entryDy=0;" parent="WIyWlLk6GJQsqaUBKTNV-1" source="WIyWlLk6GJQsqaUBKTNV-3" target="WIyWlLk6GJQsqaUBKTNV-6" edge="1">
          <mxGeometry width="50" height="50" relative="1" as="geometry">
            <mxPoint x="310" y="210" as="sourcePoint" />
            <mxPoint x="360" y="160" as="targetPoint" />
            <Array as="points">
              <mxPoint x="240" y="160" />
              <mxPoint x="80" y="160" />
            </Array>
          </mxGeometry>
        </mxCell>
        <mxCell id="_LvCN-xPhq3G0ntj4Ozc-10" value="No" style="text;html=1;align=center;verticalAlign=middle;resizable=0;points=[];autosize=1;strokeColor=none;fillColor=none;" parent="WIyWlLk6GJQsqaUBKTNV-1" vertex="1">
          <mxGeometry x="220" y="230" width="40" height="30" as="geometry" />
        </mxCell>
        <mxCell id="_LvCN-xPhq3G0ntj4Ozc-11" value="Turn heat pump off" style="rounded=1;whiteSpace=wrap;html=1;" parent="WIyWlLk6GJQsqaUBKTNV-1" vertex="1">
          <mxGeometry x="354" y="360" width="120" height="40" as="geometry" />
        </mxCell>
        <mxCell id="_LvCN-xPhq3G0ntj4Ozc-13" value="Yes" style="text;html=1;align=center;verticalAlign=middle;resizable=0;points=[];autosize=1;strokeColor=none;fillColor=none;" parent="WIyWlLk6GJQsqaUBKTNV-1" vertex="1">
          <mxGeometry x="414" y="320" width="40" height="30" as="geometry" />
        </mxCell>
        <mxCell id="_LvCN-xPhq3G0ntj4Ozc-14" value="Update indoor temperature" style="rounded=1;whiteSpace=wrap;html=1;" parent="WIyWlLk6GJQsqaUBKTNV-1" vertex="1">
          <mxGeometry x="160" y="480" width="160" height="40" as="geometry" />
        </mxCell>
        <mxCell id="_LvCN-xPhq3G0ntj4Ozc-16" value="" style="endArrow=classic;html=1;rounded=0;exitX=0.5;exitY=1;exitDx=0;exitDy=0;entryX=0.5;entryY=0;entryDx=0;entryDy=0;" parent="WIyWlLk6GJQsqaUBKTNV-1" source="WIyWlLk6GJQsqaUBKTNV-11" target="_LvCN-xPhq3G0ntj4Ozc-14" edge="1">
          <mxGeometry width="50" height="50" relative="1" as="geometry">
            <mxPoint x="70" y="530" as="sourcePoint" />
            <mxPoint x="120" y="480" as="targetPoint" />
            <Array as="points">
              <mxPoint x="80" y="440" />
              <mxPoint x="240" y="440" />
            </Array>
          </mxGeometry>
        </mxCell>
        <mxCell id="_LvCN-xPhq3G0ntj4Ozc-17" value="" style="endArrow=classic;html=1;rounded=0;exitX=0.5;exitY=1;exitDx=0;exitDy=0;" parent="WIyWlLk6GJQsqaUBKTNV-1" source="_LvCN-xPhq3G0ntj4Ozc-11" edge="1">
          <mxGeometry width="50" height="50" relative="1" as="geometry">
            <mxPoint x="430" y="470" as="sourcePoint" />
            <mxPoint x="240" y="480" as="targetPoint" />
            <Array as="points">
              <mxPoint x="414" y="440" />
              <mxPoint x="240" y="440" />
            </Array>
          </mxGeometry>
        </mxCell>
        <mxCell id="_LvCN-xPhq3G0ntj4Ozc-18" value="" style="endArrow=none;html=1;rounded=0;exitX=1;exitY=0.5;exitDx=0;exitDy=0;endFill=0;" parent="WIyWlLk6GJQsqaUBKTNV-1" source="_LvCN-xPhq3G0ntj4Ozc-6" edge="1">
          <mxGeometry width="50" height="50" relative="1" as="geometry">
            <mxPoint x="600" y="270" as="sourcePoint" />
            <mxPoint x="414" y="440" as="targetPoint" />
            <Array as="points">
              <mxPoint x="564" y="440" />
            </Array>
          </mxGeometry>
        </mxCell>
        <mxCell id="_LvCN-xPhq3G0ntj4Ozc-19" value="" style="endArrow=classic;html=1;rounded=0;exitX=1;exitY=0.5;exitDx=0;exitDy=0;" parent="WIyWlLk6GJQsqaUBKTNV-1" source="_LvCN-xPhq3G0ntj4Ozc-14" target="WIyWlLk6GJQsqaUBKTNV-3" edge="1">
          <mxGeometry width="50" height="50" relative="1" as="geometry">
            <mxPoint x="420" y="530" as="sourcePoint" />
            <mxPoint x="600" y="40" as="targetPoint" />
            <Array as="points">
              <mxPoint x="600" y="500" />
              <mxPoint x="600" y="100" />
            </Array>
          </mxGeometry>
        </mxCell>
        <mxCell id="_LvCN-xPhq3G0ntj4Ozc-20" value="No" style="text;html=1;align=center;verticalAlign=middle;whiteSpace=wrap;rounded=0;" parent="WIyWlLk6GJQsqaUBKTNV-1" vertex="1">
          <mxGeometry x="504" y="330" width="60" height="30" as="geometry" />
        </mxCell>
      </root>
    </mxGraphModel>
  </diagram>
  <diagram name="hysteresis_control_flow_temp" id="_osEL3BollcYVuRoAG6I">
    <mxGraphModel dx="2010" dy="836" grid="1" gridSize="10" guides="1" tooltips="1" connect="1" arrows="1" fold="1" page="1" pageScale="1" pageWidth="827" pageHeight="1169" math="0" shadow="0">
      <root>
        <mxCell id="2YgY71L6sy-EPr3DKhZu-0" />
        <mxCell id="2YgY71L6sy-EPr3DKhZu-1" parent="2YgY71L6sy-EPr3DKhZu-0" />
        <mxCell id="ExLgCOE2kuKPxPCnr1QJ-5" style="edgeStyle=orthogonalEdgeStyle;rounded=0;orthogonalLoop=1;jettySize=auto;html=1;exitX=0.5;exitY=1;exitDx=0;exitDy=0;entryX=0.5;entryY=0;entryDx=0;entryDy=0;" edge="1" parent="2YgY71L6sy-EPr3DKhZu-1" source="2YgY71L6sy-EPr3DKhZu-2" target="ExLgCOE2kuKPxPCnr1QJ-2">
          <mxGeometry relative="1" as="geometry" />
        </mxCell>
        <mxCell id="2YgY71L6sy-EPr3DKhZu-2" value="Check flow temp" style="rounded=1;whiteSpace=wrap;html=1;fontSize=12;glass=0;strokeWidth=1;shadow=0;" vertex="1" parent="2YgY71L6sy-EPr3DKhZu-1">
          <mxGeometry y="145" width="160" height="40" as="geometry" />
        </mxCell>
        <mxCell id="2YgY71L6sy-EPr3DKhZu-4" style="edgeStyle=orthogonalEdgeStyle;rounded=0;orthogonalLoop=1;jettySize=auto;html=1;entryX=0.5;entryY=0;entryDx=0;entryDy=0;" edge="1" parent="2YgY71L6sy-EPr3DKhZu-1" source="2YgY71L6sy-EPr3DKhZu-5" target="2YgY71L6sy-EPr3DKhZu-11">
          <mxGeometry relative="1" as="geometry" />
        </mxCell>
        <mxCell id="bnHDBFHk4nRkzogDqFxV-23" style="edgeStyle=orthogonalEdgeStyle;rounded=0;orthogonalLoop=1;jettySize=auto;html=1;exitX=1;exitY=0.5;exitDx=0;exitDy=0;entryX=0.5;entryY=0;entryDx=0;entryDy=0;" edge="1" parent="2YgY71L6sy-EPr3DKhZu-1" source="2YgY71L6sy-EPr3DKhZu-5" target="2YgY71L6sy-EPr3DKhZu-6">
          <mxGeometry relative="1" as="geometry">
            <mxPoint x="280" y="237.4800000000001" as="sourcePoint" />
            <mxPoint x="360" y="282.48000000000013" as="targetPoint" />
          </mxGeometry>
        </mxCell>
        <mxCell id="2YgY71L6sy-EPr3DKhZu-5" value="If current flow temp &amp;lt; lower threshold?" style="rhombus;whiteSpace=wrap;html=1;shadow=0;fontFamily=Helvetica;fontSize=12;align=center;strokeWidth=1;spacing=6;spacingTop=-4;" vertex="1" parent="2YgY71L6sy-EPr3DKhZu-1">
          <mxGeometry x="-70" y="338" width="300" height="80" as="geometry" />
        </mxCell>
        <mxCell id="Xp7S3P2wmCnW4yotTPMk-1" value="" style="edgeStyle=orthogonalEdgeStyle;rounded=0;orthogonalLoop=1;jettySize=auto;html=1;" edge="1" parent="2YgY71L6sy-EPr3DKhZu-1" source="2YgY71L6sy-EPr3DKhZu-6" target="Xp7S3P2wmCnW4yotTPMk-0">
          <mxGeometry relative="1" as="geometry" />
        </mxCell>
        <mxCell id="2YgY71L6sy-EPr3DKhZu-6" value="Turn heat pump on" style="rounded=1;whiteSpace=wrap;html=1;fontSize=12;glass=0;strokeWidth=1;shadow=0;" vertex="1" parent="2YgY71L6sy-EPr3DKhZu-1">
          <mxGeometry x="284" y="598" width="130" height="40" as="geometry" />
        </mxCell>
        <mxCell id="2YgY71L6sy-EPr3DKhZu-7" style="edgeStyle=orthogonalEdgeStyle;rounded=0;orthogonalLoop=1;jettySize=auto;html=1;exitX=0.5;exitY=1;exitDx=0;exitDy=0;entryX=0.5;entryY=0;entryDx=0;entryDy=0;" edge="1" parent="2YgY71L6sy-EPr3DKhZu-1" source="2YgY71L6sy-EPr3DKhZu-8" target="2YgY71L6sy-EPr3DKhZu-2">
          <mxGeometry relative="1" as="geometry" />
        </mxCell>
        <mxCell id="2YgY71L6sy-EPr3DKhZu-8" value="Start" style="rounded=1;whiteSpace=wrap;html=1;" vertex="1" parent="2YgY71L6sy-EPr3DKhZu-1">
          <mxGeometry x="20" y="70" width="120" height="40" as="geometry" />
        </mxCell>
        <mxCell id="2YgY71L6sy-EPr3DKhZu-9" value="Yes" style="text;html=1;align=center;verticalAlign=middle;resizable=0;points=[];autosize=1;strokeColor=none;fillColor=none;" vertex="1" parent="2YgY71L6sy-EPr3DKhZu-1">
          <mxGeometry x="-110" y="230" width="40" height="30" as="geometry" />
        </mxCell>
        <mxCell id="bnHDBFHk4nRkzogDqFxV-15" style="edgeStyle=orthogonalEdgeStyle;rounded=0;orthogonalLoop=1;jettySize=auto;html=1;entryX=0.5;entryY=0;entryDx=0;entryDy=0;" edge="1" parent="2YgY71L6sy-EPr3DKhZu-1" source="2YgY71L6sy-EPr3DKhZu-11" target="bnHDBFHk4nRkzogDqFxV-1">
          <mxGeometry relative="1" as="geometry" />
        </mxCell>
        <mxCell id="bnHDBFHk4nRkzogDqFxV-22" style="edgeStyle=orthogonalEdgeStyle;rounded=0;orthogonalLoop=1;jettySize=auto;html=1;exitX=0;exitY=0.5;exitDx=0;exitDy=0;entryX=0.5;entryY=0;entryDx=0;entryDy=0;" edge="1" parent="2YgY71L6sy-EPr3DKhZu-1" source="2YgY71L6sy-EPr3DKhZu-11" target="2YgY71L6sy-EPr3DKhZu-14">
          <mxGeometry relative="1" as="geometry">
            <Array as="points">
              <mxPoint x="-185" y="500" />
            </Array>
          </mxGeometry>
        </mxCell>
        <mxCell id="2YgY71L6sy-EPr3DKhZu-11" value="If current flow temp &amp;gt; upper threshold?" style="rhombus;whiteSpace=wrap;html=1;" vertex="1" parent="2YgY71L6sy-EPr3DKhZu-1">
          <mxGeometry x="-70" y="460" width="300" height="80" as="geometry" />
        </mxCell>
        <mxCell id="bnHDBFHk4nRkzogDqFxV-0" style="edgeStyle=orthogonalEdgeStyle;rounded=0;orthogonalLoop=1;jettySize=auto;html=1;exitX=0.5;exitY=1;exitDx=0;exitDy=0;entryX=0.5;entryY=0;entryDx=0;entryDy=0;" edge="1" parent="2YgY71L6sy-EPr3DKhZu-1" source="2YgY71L6sy-EPr3DKhZu-14" target="Xp7S3P2wmCnW4yotTPMk-2">
          <mxGeometry relative="1" as="geometry" />
        </mxCell>
        <mxCell id="2YgY71L6sy-EPr3DKhZu-14" value="Turn heat pump off" style="rounded=1;whiteSpace=wrap;html=1;" vertex="1" parent="2YgY71L6sy-EPr3DKhZu-1">
          <mxGeometry x="-250" y="720" width="130" height="40" as="geometry" />
        </mxCell>
        <mxCell id="bnHDBFHk4nRkzogDqFxV-32" style="edgeStyle=orthogonalEdgeStyle;rounded=0;orthogonalLoop=1;jettySize=auto;html=1;exitX=0.5;exitY=1;exitDx=0;exitDy=0;" edge="1" parent="2YgY71L6sy-EPr3DKhZu-1" source="Xp7S3P2wmCnW4yotTPMk-0">
          <mxGeometry relative="1" as="geometry">
            <mxPoint x="80" y="880" as="targetPoint" />
            <Array as="points">
              <mxPoint x="345" y="700" />
              <mxPoint x="345" y="800" />
              <mxPoint x="80" y="800" />
            </Array>
          </mxGeometry>
        </mxCell>
        <mxCell id="Xp7S3P2wmCnW4yotTPMk-0" value="Calculate heat demand" style="whiteSpace=wrap;html=1;rounded=1;glass=0;strokeWidth=1;shadow=0;" vertex="1" parent="2YgY71L6sy-EPr3DKhZu-1">
          <mxGeometry x="284" y="660" width="130" height="40" as="geometry" />
        </mxCell>
        <mxCell id="Xp7S3P2wmCnW4yotTPMk-2" value="Heat demand = 0" style="rounded=1;whiteSpace=wrap;html=1;" vertex="1" parent="2YgY71L6sy-EPr3DKhZu-1">
          <mxGeometry x="-250" y="780" width="130" height="40" as="geometry" />
        </mxCell>
        <mxCell id="bnHDBFHk4nRkzogDqFxV-11" style="edgeStyle=orthogonalEdgeStyle;rounded=0;orthogonalLoop=1;jettySize=auto;html=1;entryX=0.5;entryY=0;entryDx=0;entryDy=0;" edge="1" parent="2YgY71L6sy-EPr3DKhZu-1" source="bnHDBFHk4nRkzogDqFxV-1" target="bnHDBFHk4nRkzogDqFxV-10">
          <mxGeometry relative="1" as="geometry" />
        </mxCell>
        <mxCell id="bnHDBFHk4nRkzogDqFxV-1" value="If previous heat pump status = &quot;On&quot;" style="rhombus;whiteSpace=wrap;html=1;" vertex="1" parent="2YgY71L6sy-EPr3DKhZu-1">
          <mxGeometry x="-70" y="578" width="300" height="80" as="geometry" />
        </mxCell>
        <mxCell id="bnHDBFHk4nRkzogDqFxV-10" value="If previous heat pump status = &quot;Off&quot;" style="rhombus;whiteSpace=wrap;html=1;" vertex="1" parent="2YgY71L6sy-EPr3DKhZu-1">
          <mxGeometry x="-70" y="700" width="300" height="80" as="geometry" />
        </mxCell>
        <mxCell id="bnHDBFHk4nRkzogDqFxV-21" value="" style="endArrow=classic;html=1;rounded=0;exitX=0;exitY=0.5;exitDx=0;exitDy=0;entryX=1;entryY=0.5;entryDx=0;entryDy=0;" edge="1" parent="2YgY71L6sy-EPr3DKhZu-1" source="bnHDBFHk4nRkzogDqFxV-10" target="2YgY71L6sy-EPr3DKhZu-14">
          <mxGeometry width="50" height="50" relative="1" as="geometry">
            <mxPoint x="-240" y="750" as="sourcePoint" />
            <mxPoint x="-100" y="440" as="targetPoint" />
            <Array as="points">
              <mxPoint x="-100" y="740" />
            </Array>
          </mxGeometry>
        </mxCell>
        <mxCell id="bnHDBFHk4nRkzogDqFxV-24" value="No" style="text;html=1;align=center;verticalAlign=middle;resizable=0;points=[];autosize=1;strokeColor=none;fillColor=none;" vertex="1" parent="2YgY71L6sy-EPr3DKhZu-1">
          <mxGeometry x="80" y="430" width="40" height="30" as="geometry" />
        </mxCell>
        <mxCell id="bnHDBFHk4nRkzogDqFxV-25" value="Yes" style="text;html=1;align=center;verticalAlign=middle;resizable=0;points=[];autosize=1;strokeColor=none;fillColor=none;" vertex="1" parent="2YgY71L6sy-EPr3DKhZu-1">
          <mxGeometry x="-110" y="470" width="40" height="30" as="geometry" />
        </mxCell>
        <mxCell id="bnHDBFHk4nRkzogDqFxV-26" value="No" style="text;html=1;align=center;verticalAlign=middle;resizable=0;points=[];autosize=1;strokeColor=none;fillColor=none;" vertex="1" parent="2YgY71L6sy-EPr3DKhZu-1">
          <mxGeometry x="80" y="548" width="40" height="30" as="geometry" />
        </mxCell>
        <mxCell id="bnHDBFHk4nRkzogDqFxV-27" value="Yes" style="text;html=1;align=center;verticalAlign=middle;resizable=0;points=[];autosize=1;strokeColor=none;fillColor=none;" vertex="1" parent="2YgY71L6sy-EPr3DKhZu-1">
          <mxGeometry x="230" y="350" width="40" height="30" as="geometry" />
        </mxCell>
        <mxCell id="bnHDBFHk4nRkzogDqFxV-28" value="No" style="text;html=1;align=center;verticalAlign=middle;resizable=0;points=[];autosize=1;strokeColor=none;fillColor=none;" vertex="1" parent="2YgY71L6sy-EPr3DKhZu-1">
          <mxGeometry x="80" y="670" width="40" height="30" as="geometry" />
        </mxCell>
        <mxCell id="bnHDBFHk4nRkzogDqFxV-29" value="Yes" style="text;html=1;align=center;verticalAlign=middle;resizable=0;points=[];autosize=1;strokeColor=none;fillColor=none;" vertex="1" parent="2YgY71L6sy-EPr3DKhZu-1">
          <mxGeometry x="-110" y="710" width="40" height="30" as="geometry" />
        </mxCell>
        <mxCell id="bnHDBFHk4nRkzogDqFxV-30" value="Update flow temp" style="rounded=1;whiteSpace=wrap;html=1;" vertex="1" parent="2YgY71L6sy-EPr3DKhZu-1">
          <mxGeometry x="5" y="840" width="150" height="40" as="geometry" />
        </mxCell>
        <mxCell id="bnHDBFHk4nRkzogDqFxV-33" value="" style="endArrow=classic;html=1;rounded=0;exitX=1;exitY=0.5;exitDx=0;exitDy=0;entryX=1;entryY=0.5;entryDx=0;entryDy=0;" edge="1" parent="2YgY71L6sy-EPr3DKhZu-1" source="bnHDBFHk4nRkzogDqFxV-30" target="2YgY71L6sy-EPr3DKhZu-2">
          <mxGeometry width="50" height="50" relative="1" as="geometry">
            <mxPoint x="160" y="900" as="sourcePoint" />
            <mxPoint x="200" y="140" as="targetPoint" />
            <Array as="points">
              <mxPoint x="425" y="860" />
              <mxPoint x="425" y="520" />
              <mxPoint x="425" y="165" />
            </Array>
          </mxGeometry>
        </mxCell>
        <mxCell id="ExLgCOE2kuKPxPCnr1QJ-3" value="" style="endArrow=classic;html=1;rounded=0;exitX=0;exitY=0.5;exitDx=0;exitDy=0;entryX=0.5;entryY=0;entryDx=0;entryDy=0;" edge="1" parent="2YgY71L6sy-EPr3DKhZu-1" source="ExLgCOE2kuKPxPCnr1QJ-2" target="2YgY71L6sy-EPr3DKhZu-14">
          <mxGeometry width="50" height="50" relative="1" as="geometry">
            <mxPoint x="-260" y="170" as="sourcePoint" />
            <mxPoint x="-280" y="280" as="targetPoint" />
            <Array as="points">
              <mxPoint x="-185" y="260" />
            </Array>
          </mxGeometry>
        </mxCell>
        <mxCell id="ExLgCOE2kuKPxPCnr1QJ-4" value="No" style="text;html=1;align=center;verticalAlign=middle;resizable=0;points=[];autosize=1;strokeColor=none;fillColor=none;" vertex="1" parent="2YgY71L6sy-EPr3DKhZu-1">
          <mxGeometry x="80" y="308" width="40" height="30" as="geometry" />
        </mxCell>
        <mxCell id="ExLgCOE2kuKPxPCnr1QJ-2" value="If outdoor temp &amp;gt;= target indoor temp?" style="rhombus;whiteSpace=wrap;html=1;shadow=0;fontFamily=Helvetica;fontSize=12;align=center;strokeWidth=1;spacing=6;spacingTop=-4;" vertex="1" parent="2YgY71L6sy-EPr3DKhZu-1">
          <mxGeometry x="-70" y="220" width="300" height="80" as="geometry" />
        </mxCell>
        <mxCell id="3A1A064XJbXpqqbBxB8i-2" value="" style="endArrow=classic;html=1;rounded=0;exitX=0.5;exitY=1;exitDx=0;exitDy=0;entryX=0.5;entryY=0;entryDx=0;entryDy=0;" edge="1" parent="2YgY71L6sy-EPr3DKhZu-1" source="ExLgCOE2kuKPxPCnr1QJ-2" target="2YgY71L6sy-EPr3DKhZu-5">
          <mxGeometry width="50" height="50" relative="1" as="geometry">
            <mxPoint x="210" y="320" as="sourcePoint" />
            <mxPoint x="260" y="270" as="targetPoint" />
          </mxGeometry>
        </mxCell>
        <mxCell id="3A1A064XJbXpqqbBxB8i-4" value="" style="endArrow=classic;html=1;rounded=0;exitX=1;exitY=0.5;exitDx=0;exitDy=0;entryX=0;entryY=0.5;entryDx=0;entryDy=0;" edge="1" parent="2YgY71L6sy-EPr3DKhZu-1" source="bnHDBFHk4nRkzogDqFxV-1" target="2YgY71L6sy-EPr3DKhZu-6">
          <mxGeometry width="50" height="50" relative="1" as="geometry">
            <mxPoint x="240" y="600" as="sourcePoint" />
            <mxPoint x="290" y="550" as="targetPoint" />
          </mxGeometry>
        </mxCell>
        <mxCell id="3A1A064XJbXpqqbBxB8i-5" value="" style="endArrow=classic;html=1;rounded=0;exitX=1;exitY=0.5;exitDx=0;exitDy=0;entryX=0.5;entryY=0;entryDx=0;entryDy=0;" edge="1" parent="2YgY71L6sy-EPr3DKhZu-1" source="Xp7S3P2wmCnW4yotTPMk-2" target="bnHDBFHk4nRkzogDqFxV-30">
          <mxGeometry width="50" height="50" relative="1" as="geometry">
            <mxPoint x="-30" y="860" as="sourcePoint" />
            <mxPoint x="160" y="830" as="targetPoint" />
            <Array as="points">
              <mxPoint x="80" y="800" />
            </Array>
          </mxGeometry>
        </mxCell>
        <mxCell id="3A1A064XJbXpqqbBxB8i-6" value="Yes" style="text;html=1;align=center;verticalAlign=middle;resizable=0;points=[];autosize=1;strokeColor=none;fillColor=none;" vertex="1" parent="2YgY71L6sy-EPr3DKhZu-1">
          <mxGeometry x="230" y="585" width="40" height="30" as="geometry" />
        </mxCell>
      </root>
    </mxGraphModel>
  </diagram>
  <diagram id="OZoEj3TJ7KYUA3xkAefb" name="Weather compensation">
    <mxGraphModel dx="1242" dy="878" grid="1" gridSize="10" guides="1" tooltips="1" connect="1" arrows="1" fold="1" page="1" pageScale="1" pageWidth="827" pageHeight="1169" math="0" shadow="0">
      <root>
        <mxCell id="0" />
        <mxCell id="1" parent="0" />
        <mxCell id="wni02n3sZ1h58vsQNcRD-1" style="edgeStyle=orthogonalEdgeStyle;rounded=0;orthogonalLoop=1;jettySize=auto;html=1;exitX=0.5;exitY=1;exitDx=0;exitDy=0;entryX=0.5;entryY=0;entryDx=0;entryDy=0;" parent="1" source="wni02n3sZ1h58vsQNcRD-9" target="wni02n3sZ1h58vsQNcRD-33" edge="1">
          <mxGeometry relative="1" as="geometry">
            <mxPoint x="345" y="1024" as="sourcePoint" />
          </mxGeometry>
        </mxCell>
        <mxCell id="wni02n3sZ1h58vsQNcRD-9" value="Start" style="rounded=1;whiteSpace=wrap;html=1;" parent="1" vertex="1">
          <mxGeometry x="285" y="980" width="120" height="40" as="geometry" />
        </mxCell>
        <mxCell id="wni02n3sZ1h58vsQNcRD-10" value="Yes" style="text;html=1;align=center;verticalAlign=middle;resizable=0;points=[];autosize=1;strokeColor=none;fillColor=none;" parent="1" vertex="1">
          <mxGeometry x="495" y="1069" width="40" height="30" as="geometry" />
        </mxCell>
        <mxCell id="wni02n3sZ1h58vsQNcRD-11" style="edgeStyle=orthogonalEdgeStyle;rounded=0;orthogonalLoop=1;jettySize=auto;html=1;entryX=0.5;entryY=0;entryDx=0;entryDy=0;exitX=0.5;exitY=1;exitDx=0;exitDy=0;" parent="1" source="wni02n3sZ1h58vsQNcRD-33" target="wni02n3sZ1h58vsQNcRD-20" edge="1">
          <mxGeometry relative="1" as="geometry">
            <mxPoint x="345" y="1140" as="sourcePoint" />
          </mxGeometry>
        </mxCell>
        <mxCell id="wni02n3sZ1h58vsQNcRD-15" value="Heat pump is Off and heat demand = 0" style="rounded=1;whiteSpace=wrap;html=1;" parent="1" vertex="1">
          <mxGeometry x="550" y="1079" width="130" height="40" as="geometry" />
        </mxCell>
        <mxCell id="wni02n3sZ1h58vsQNcRD-19" style="edgeStyle=orthogonalEdgeStyle;rounded=0;orthogonalLoop=1;jettySize=auto;html=1;entryX=0.5;entryY=0;entryDx=0;entryDy=0;" parent="1" source="wni02n3sZ1h58vsQNcRD-20" edge="1">
          <mxGeometry relative="1" as="geometry">
            <mxPoint x="345" y="1300" as="targetPoint" />
          </mxGeometry>
        </mxCell>
        <mxCell id="wni02n3sZ1h58vsQNcRD-20" value="Update target flow temp based on outdoor temp" style="rhombus;whiteSpace=wrap;html=1;" parent="1" vertex="1">
          <mxGeometry x="195" y="1178" width="300" height="80" as="geometry" />
        </mxCell>
        <mxCell id="wni02n3sZ1h58vsQNcRD-25" value="No" style="text;html=1;align=center;verticalAlign=middle;resizable=0;points=[];autosize=1;strokeColor=none;fillColor=none;" parent="1" vertex="1">
          <mxGeometry x="340" y="1148" width="40" height="30" as="geometry" />
        </mxCell>
        <mxCell id="Qk7yBn0dbLjXItPhKP9z-2" style="edgeStyle=orthogonalEdgeStyle;rounded=0;orthogonalLoop=1;jettySize=auto;html=1;exitX=1;exitY=0.5;exitDx=0;exitDy=0;entryX=0;entryY=0.5;entryDx=0;entryDy=0;" edge="1" parent="1" source="wni02n3sZ1h58vsQNcRD-33" target="wni02n3sZ1h58vsQNcRD-15">
          <mxGeometry relative="1" as="geometry" />
        </mxCell>
        <mxCell id="wni02n3sZ1h58vsQNcRD-33" value="If outdoor temp &amp;gt;= target indoor temp?" style="rhombus;whiteSpace=wrap;html=1;shadow=0;fontFamily=Helvetica;fontSize=12;align=center;strokeWidth=1;spacing=6;spacingTop=-4;" parent="1" vertex="1">
          <mxGeometry x="195" y="1059" width="300" height="80" as="geometry" />
        </mxCell>
        <mxCell id="Qk7yBn0dbLjXItPhKP9z-1" value="Heat pump is On and calculate heat power/demand" style="rounded=1;whiteSpace=wrap;html=1;" vertex="1" parent="1">
          <mxGeometry x="200" y="1300" width="290" height="40" as="geometry" />
        </mxCell>
      </root>
    </mxGraphModel>
  </diagram>
  <diagram id="sNVxbd7uUX-PKHXaWAbG" name="Weather compensation with hysteresis ">
    <mxGraphModel dx="2309" dy="878" grid="1" gridSize="10" guides="1" tooltips="1" connect="1" arrows="1" fold="1" page="1" pageScale="1" pageWidth="827" pageHeight="1169" math="0" shadow="0">
      <root>
        <mxCell id="0" />
        <mxCell id="1" parent="0" />
        <mxCell id="uviT1c7eWnZkJhttIEL6-1" value="Check flow &amp;amp; outdoor temperature" style="rounded=1;whiteSpace=wrap;html=1;fontSize=12;glass=0;strokeWidth=1;shadow=0;" vertex="1" parent="1">
          <mxGeometry x="140" y="80" width="200" height="40" as="geometry" />
        </mxCell>
        <mxCell id="uviT1c7eWnZkJhttIEL6-2" style="edgeStyle=orthogonalEdgeStyle;rounded=0;orthogonalLoop=1;jettySize=auto;html=1;" edge="1" parent="1" source="uviT1c7eWnZkJhttIEL6-4" target="uviT1c7eWnZkJhttIEL6-5">
          <mxGeometry relative="1" as="geometry" />
        </mxCell>
        <mxCell id="uviT1c7eWnZkJhttIEL6-3" style="edgeStyle=orthogonalEdgeStyle;rounded=0;orthogonalLoop=1;jettySize=auto;html=1;entryX=0;entryY=0.5;entryDx=0;entryDy=0;" edge="1" parent="1" source="uviT1c7eWnZkJhttIEL6-4" target="uviT1c7eWnZkJhttIEL6-10">
          <mxGeometry relative="1" as="geometry" />
        </mxCell>
        <mxCell id="uviT1c7eWnZkJhttIEL6-4" value="If flow temperature &amp;lt; lower threshold?" style="rhombus;whiteSpace=wrap;html=1;shadow=0;fontFamily=Helvetica;fontSize=12;align=center;strokeWidth=1;spacing=6;spacingTop=-4;" vertex="1" parent="1">
          <mxGeometry x="-60" y="200" width="280" height="120" as="geometry" />
        </mxCell>
        <mxCell id="uviT1c7eWnZkJhttIEL6-5" value="Turn heat pump on" style="rounded=1;whiteSpace=wrap;html=1;fontSize=12;glass=0;strokeWidth=1;shadow=0;" vertex="1" parent="1">
          <mxGeometry x="20" y="360" width="120" height="40" as="geometry" />
        </mxCell>
        <mxCell id="uviT1c7eWnZkJhttIEL6-6" style="edgeStyle=orthogonalEdgeStyle;rounded=0;orthogonalLoop=1;jettySize=auto;html=1;exitX=0.5;exitY=1;exitDx=0;exitDy=0;entryX=0.5;entryY=0;entryDx=0;entryDy=0;" edge="1" parent="1" source="uviT1c7eWnZkJhttIEL6-7" target="uviT1c7eWnZkJhttIEL6-1">
          <mxGeometry relative="1" as="geometry" />
        </mxCell>
        <mxCell id="uviT1c7eWnZkJhttIEL6-7" value="Start" style="rounded=1;whiteSpace=wrap;html=1;" vertex="1" parent="1">
          <mxGeometry x="180" width="120" height="40" as="geometry" />
        </mxCell>
        <mxCell id="uviT1c7eWnZkJhttIEL6-8" value="Yes" style="text;html=1;align=center;verticalAlign=middle;resizable=0;points=[];autosize=1;strokeColor=none;fillColor=none;" vertex="1" parent="1">
          <mxGeometry x="80" y="320" width="40" height="30" as="geometry" />
        </mxCell>
        <mxCell id="uviT1c7eWnZkJhttIEL6-9" style="edgeStyle=orthogonalEdgeStyle;rounded=0;orthogonalLoop=1;jettySize=auto;html=1;entryX=0.5;entryY=0;entryDx=0;entryDy=0;" edge="1" parent="1" source="uviT1c7eWnZkJhttIEL6-10" target="uviT1c7eWnZkJhttIEL6-13">
          <mxGeometry relative="1" as="geometry" />
        </mxCell>
        <mxCell id="uviT1c7eWnZkJhttIEL6-10" value="If flow temperature &amp;gt; upper threshold?" style="rhombus;whiteSpace=wrap;html=1;" vertex="1" parent="1">
          <mxGeometry x="264" y="200" width="300" height="120" as="geometry" />
        </mxCell>
        <mxCell id="uviT1c7eWnZkJhttIEL6-11" value="" style="endArrow=classic;html=1;rounded=0;exitX=0.5;exitY=1;exitDx=0;exitDy=0;entryX=0.5;entryY=0;entryDx=0;entryDy=0;" edge="1" parent="1" source="uviT1c7eWnZkJhttIEL6-1" target="uviT1c7eWnZkJhttIEL6-4">
          <mxGeometry width="50" height="50" relative="1" as="geometry">
            <mxPoint x="310" y="210" as="sourcePoint" />
            <mxPoint x="360" y="160" as="targetPoint" />
            <Array as="points">
              <mxPoint x="240" y="160" />
              <mxPoint x="80" y="160" />
            </Array>
          </mxGeometry>
        </mxCell>
        <mxCell id="uviT1c7eWnZkJhttIEL6-12" value="No" style="text;html=1;align=center;verticalAlign=middle;resizable=0;points=[];autosize=1;strokeColor=none;fillColor=none;" vertex="1" parent="1">
          <mxGeometry x="220" y="230" width="40" height="30" as="geometry" />
        </mxCell>
        <mxCell id="uviT1c7eWnZkJhttIEL6-13" value="Turn heat pump off" style="rounded=1;whiteSpace=wrap;html=1;" vertex="1" parent="1">
          <mxGeometry x="354" y="360" width="120" height="40" as="geometry" />
        </mxCell>
        <mxCell id="uviT1c7eWnZkJhttIEL6-14" value="Yes" style="text;html=1;align=center;verticalAlign=middle;resizable=0;points=[];autosize=1;strokeColor=none;fillColor=none;" vertex="1" parent="1">
          <mxGeometry x="414" y="320" width="40" height="30" as="geometry" />
        </mxCell>
        <mxCell id="uviT1c7eWnZkJhttIEL6-15" value="Update flow temperature" style="rounded=1;whiteSpace=wrap;html=1;" vertex="1" parent="1">
          <mxGeometry x="160" y="480" width="160" height="40" as="geometry" />
        </mxCell>
        <mxCell id="uviT1c7eWnZkJhttIEL6-16" value="" style="endArrow=classic;html=1;rounded=0;exitX=0.5;exitY=1;exitDx=0;exitDy=0;entryX=0.5;entryY=0;entryDx=0;entryDy=0;" edge="1" parent="1" source="uviT1c7eWnZkJhttIEL6-5" target="uviT1c7eWnZkJhttIEL6-15">
          <mxGeometry width="50" height="50" relative="1" as="geometry">
            <mxPoint x="70" y="530" as="sourcePoint" />
            <mxPoint x="120" y="480" as="targetPoint" />
            <Array as="points">
              <mxPoint x="80" y="440" />
              <mxPoint x="240" y="440" />
            </Array>
          </mxGeometry>
        </mxCell>
        <mxCell id="uviT1c7eWnZkJhttIEL6-17" value="" style="endArrow=classic;html=1;rounded=0;exitX=0.5;exitY=1;exitDx=0;exitDy=0;" edge="1" parent="1" source="uviT1c7eWnZkJhttIEL6-13">
          <mxGeometry width="50" height="50" relative="1" as="geometry">
            <mxPoint x="430" y="470" as="sourcePoint" />
            <mxPoint x="240" y="480" as="targetPoint" />
            <Array as="points">
              <mxPoint x="414" y="440" />
              <mxPoint x="240" y="440" />
            </Array>
          </mxGeometry>
        </mxCell>
        <mxCell id="uviT1c7eWnZkJhttIEL6-18" value="" style="endArrow=none;html=1;rounded=0;exitX=1;exitY=0.5;exitDx=0;exitDy=0;endFill=0;" edge="1" parent="1" source="uviT1c7eWnZkJhttIEL6-10">
          <mxGeometry width="50" height="50" relative="1" as="geometry">
            <mxPoint x="600" y="270" as="sourcePoint" />
            <mxPoint x="414" y="440" as="targetPoint" />
            <Array as="points">
              <mxPoint x="564" y="440" />
            </Array>
          </mxGeometry>
        </mxCell>
        <mxCell id="uviT1c7eWnZkJhttIEL6-19" value="" style="endArrow=classic;html=1;rounded=0;exitX=1;exitY=0.5;exitDx=0;exitDy=0;" edge="1" parent="1" source="uviT1c7eWnZkJhttIEL6-15" target="uviT1c7eWnZkJhttIEL6-1">
          <mxGeometry width="50" height="50" relative="1" as="geometry">
            <mxPoint x="420" y="530" as="sourcePoint" />
            <mxPoint x="600" y="40" as="targetPoint" />
            <Array as="points">
              <mxPoint x="600" y="500" />
              <mxPoint x="600" y="100" />
            </Array>
          </mxGeometry>
        </mxCell>
        <mxCell id="uviT1c7eWnZkJhttIEL6-20" value="No" style="text;html=1;align=center;verticalAlign=middle;whiteSpace=wrap;rounded=0;" vertex="1" parent="1">
          <mxGeometry x="504" y="330" width="60" height="30" as="geometry" />
        </mxCell>
      </root>
    </mxGraphModel>
  </diagram>
  <diagram id="C2M_KJbxvz8BWzdNnWJH" name="Price based control">
    <mxGraphModel dx="2069" dy="878" grid="1" gridSize="10" guides="1" tooltips="1" connect="1" arrows="1" fold="1" page="1" pageScale="1" pageWidth="827" pageHeight="1169" math="0" shadow="0">
      <root>
        <mxCell id="0" />
        <mxCell id="1" parent="0" />
        <mxCell id="uxUvToPxO8N_7_2sIM-X-4" style="edgeStyle=orthogonalEdgeStyle;rounded=0;orthogonalLoop=1;jettySize=auto;html=1;exitX=0.5;exitY=1;exitDx=0;exitDy=0;entryX=0.5;entryY=0;entryDx=0;entryDy=0;" edge="1" parent="1" source="uf48zT82ME3pojh5MYle-2" target="uxUvToPxO8N_7_2sIM-X-1">
          <mxGeometry relative="1" as="geometry">
            <mxPoint x="411" y="205" as="sourcePoint" />
            <mxPoint x="210" y="260" as="targetPoint" />
            <Array as="points">
              <mxPoint x="412" y="195" />
              <mxPoint x="411" y="195" />
              <mxPoint x="411" y="230" />
              <mxPoint x="67" y="230" />
            </Array>
          </mxGeometry>
        </mxCell>
        <mxCell id="uf48zT82ME3pojh5MYle-2" value="Check indoor temp" style="rounded=1;whiteSpace=wrap;html=1;fontSize=12;glass=0;strokeWidth=1;shadow=0;" vertex="1" parent="1">
          <mxGeometry x="332" y="165" width="160" height="40" as="geometry" />
        </mxCell>
        <mxCell id="uf48zT82ME3pojh5MYle-6" value="" style="edgeStyle=orthogonalEdgeStyle;rounded=0;orthogonalLoop=1;jettySize=auto;html=1;" edge="1" parent="1" source="uf48zT82ME3pojh5MYle-7" target="uf48zT82ME3pojh5MYle-17">
          <mxGeometry relative="1" as="geometry" />
        </mxCell>
        <mxCell id="uf48zT82ME3pojh5MYle-7" value="Turn heat pump on" style="rounded=1;whiteSpace=wrap;html=1;fontSize=12;glass=0;strokeWidth=1;shadow=0;" vertex="1" parent="1">
          <mxGeometry x="616" y="618" width="130" height="40" as="geometry" />
        </mxCell>
        <mxCell id="uf48zT82ME3pojh5MYle-8" style="edgeStyle=orthogonalEdgeStyle;rounded=0;orthogonalLoop=1;jettySize=auto;html=1;exitX=0.5;exitY=1;exitDx=0;exitDy=0;entryX=0.5;entryY=0;entryDx=0;entryDy=0;" edge="1" parent="1" source="uf48zT82ME3pojh5MYle-9" target="uf48zT82ME3pojh5MYle-2">
          <mxGeometry relative="1" as="geometry" />
        </mxCell>
        <mxCell id="uf48zT82ME3pojh5MYle-9" value="Start" style="rounded=1;whiteSpace=wrap;html=1;" vertex="1" parent="1">
          <mxGeometry x="352" y="90" width="120" height="40" as="geometry" />
        </mxCell>
        <mxCell id="uf48zT82ME3pojh5MYle-10" value="Yes" style="text;html=1;align=center;verticalAlign=middle;resizable=0;points=[];autosize=1;strokeColor=none;fillColor=none;" vertex="1" parent="1">
          <mxGeometry x="222" y="490" width="40" height="30" as="geometry" />
        </mxCell>
        <mxCell id="uf48zT82ME3pojh5MYle-14" style="edgeStyle=orthogonalEdgeStyle;rounded=0;orthogonalLoop=1;jettySize=auto;html=1;exitX=0.5;exitY=1;exitDx=0;exitDy=0;entryX=0.5;entryY=0;entryDx=0;entryDy=0;" edge="1" parent="1" source="uf48zT82ME3pojh5MYle-15" target="uf48zT82ME3pojh5MYle-18">
          <mxGeometry relative="1" as="geometry" />
        </mxCell>
        <mxCell id="uf48zT82ME3pojh5MYle-15" value="Turn heat pump off" style="rounded=1;whiteSpace=wrap;html=1;" vertex="1" parent="1">
          <mxGeometry x="82" y="740" width="130" height="40" as="geometry" />
        </mxCell>
        <mxCell id="uf48zT82ME3pojh5MYle-16" style="edgeStyle=orthogonalEdgeStyle;rounded=0;orthogonalLoop=1;jettySize=auto;html=1;exitX=0.5;exitY=1;exitDx=0;exitDy=0;" edge="1" parent="1" source="uf48zT82ME3pojh5MYle-17">
          <mxGeometry relative="1" as="geometry">
            <mxPoint x="412" y="900" as="targetPoint" />
            <Array as="points">
              <mxPoint x="677" y="720" />
              <mxPoint x="677" y="820" />
              <mxPoint x="412" y="820" />
            </Array>
          </mxGeometry>
        </mxCell>
        <mxCell id="uf48zT82ME3pojh5MYle-17" value="Calculate heat demand" style="whiteSpace=wrap;html=1;rounded=1;glass=0;strokeWidth=1;shadow=0;" vertex="1" parent="1">
          <mxGeometry x="616" y="680" width="130" height="40" as="geometry" />
        </mxCell>
        <mxCell id="uf48zT82ME3pojh5MYle-18" value="Heat demand = 0" style="rounded=1;whiteSpace=wrap;html=1;" vertex="1" parent="1">
          <mxGeometry x="82" y="800" width="130" height="40" as="geometry" />
        </mxCell>
        <mxCell id="uf48zT82ME3pojh5MYle-19" style="edgeStyle=orthogonalEdgeStyle;rounded=0;orthogonalLoop=1;jettySize=auto;html=1;entryX=0.5;entryY=0;entryDx=0;entryDy=0;" edge="1" parent="1" source="uf48zT82ME3pojh5MYle-20" target="uf48zT82ME3pojh5MYle-21">
          <mxGeometry relative="1" as="geometry" />
        </mxCell>
        <mxCell id="uf48zT82ME3pojh5MYle-20" value="If current indoor&lt;span style=&quot;background-color: initial;&quot;&gt;&amp;nbsp;temp &amp;lt; target indoor temp?&lt;/span&gt;" style="rhombus;whiteSpace=wrap;html=1;" vertex="1" parent="1">
          <mxGeometry x="262" y="598" width="300" height="80" as="geometry" />
        </mxCell>
        <mxCell id="uf48zT82ME3pojh5MYle-21" value="If current indoor temp &amp;gt;= target indoor temp?" style="rhombus;whiteSpace=wrap;html=1;" vertex="1" parent="1">
          <mxGeometry x="262" y="720" width="300" height="80" as="geometry" />
        </mxCell>
        <mxCell id="uf48zT82ME3pojh5MYle-22" value="" style="endArrow=classic;html=1;rounded=0;exitX=0;exitY=0.5;exitDx=0;exitDy=0;entryX=1;entryY=0.5;entryDx=0;entryDy=0;" edge="1" parent="1" source="uf48zT82ME3pojh5MYle-21" target="uf48zT82ME3pojh5MYle-15">
          <mxGeometry width="50" height="50" relative="1" as="geometry">
            <mxPoint x="92" y="770" as="sourcePoint" />
            <mxPoint x="232" y="460" as="targetPoint" />
            <Array as="points">
              <mxPoint x="232" y="760" />
            </Array>
          </mxGeometry>
        </mxCell>
        <mxCell id="uf48zT82ME3pojh5MYle-27" value="No" style="text;html=1;align=center;verticalAlign=middle;resizable=0;points=[];autosize=1;strokeColor=none;fillColor=none;" vertex="1" parent="1">
          <mxGeometry x="412" y="690" width="40" height="30" as="geometry" />
        </mxCell>
        <mxCell id="uf48zT82ME3pojh5MYle-28" value="Yes" style="text;html=1;align=center;verticalAlign=middle;resizable=0;points=[];autosize=1;strokeColor=none;fillColor=none;" vertex="1" parent="1">
          <mxGeometry x="222" y="730" width="40" height="30" as="geometry" />
        </mxCell>
        <mxCell id="uf48zT82ME3pojh5MYle-29" value="Update indoor temp" style="rounded=1;whiteSpace=wrap;html=1;" vertex="1" parent="1">
          <mxGeometry x="337" y="860" width="150" height="40" as="geometry" />
        </mxCell>
        <mxCell id="uf48zT82ME3pojh5MYle-30" value="" style="endArrow=classic;html=1;rounded=0;exitX=1;exitY=0.5;exitDx=0;exitDy=0;entryX=1;entryY=0.5;entryDx=0;entryDy=0;" edge="1" parent="1" source="uf48zT82ME3pojh5MYle-29" target="uf48zT82ME3pojh5MYle-2">
          <mxGeometry width="50" height="50" relative="1" as="geometry">
            <mxPoint x="510" y="850" as="sourcePoint" />
            <mxPoint x="515" y="155" as="targetPoint" />
            <Array as="points">
              <mxPoint x="920" y="880" />
              <mxPoint x="920" y="560" />
              <mxPoint x="920" y="180" />
            </Array>
          </mxGeometry>
        </mxCell>
        <mxCell id="uf48zT82ME3pojh5MYle-31" value="" style="endArrow=classic;html=1;rounded=0;exitX=0;exitY=0.5;exitDx=0;exitDy=0;entryX=0.5;entryY=0;entryDx=0;entryDy=0;" edge="1" parent="1" source="uf48zT82ME3pojh5MYle-33" target="uf48zT82ME3pojh5MYle-15">
          <mxGeometry width="50" height="50" relative="1" as="geometry">
            <mxPoint x="72" y="190" as="sourcePoint" />
            <mxPoint x="52" y="300" as="targetPoint" />
            <Array as="points">
              <mxPoint x="147" y="520" />
            </Array>
          </mxGeometry>
        </mxCell>
        <mxCell id="uf48zT82ME3pojh5MYle-32" value="No" style="text;html=1;align=center;verticalAlign=middle;resizable=0;points=[];autosize=1;strokeColor=none;fillColor=none;" vertex="1" parent="1">
          <mxGeometry x="412" y="568" width="40" height="30" as="geometry" />
        </mxCell>
        <mxCell id="uf48zT82ME3pojh5MYle-33" value="If outdoor temp &amp;gt;= target indoor temp?" style="rhombus;whiteSpace=wrap;html=1;shadow=0;fontFamily=Helvetica;fontSize=12;align=center;strokeWidth=1;spacing=6;spacingTop=-4;" vertex="1" parent="1">
          <mxGeometry x="262" y="480" width="300" height="80" as="geometry" />
        </mxCell>
        <mxCell id="uf48zT82ME3pojh5MYle-34" value="" style="endArrow=classic;html=1;rounded=0;exitX=0.5;exitY=1;exitDx=0;exitDy=0;entryX=0.5;entryY=0;entryDx=0;entryDy=0;" edge="1" parent="1" source="uf48zT82ME3pojh5MYle-33">
          <mxGeometry width="50" height="50" relative="1" as="geometry">
            <mxPoint x="542" y="580" as="sourcePoint" />
            <mxPoint x="412" y="598" as="targetPoint" />
          </mxGeometry>
        </mxCell>
        <mxCell id="uf48zT82ME3pojh5MYle-35" value="" style="endArrow=classic;html=1;rounded=0;exitX=1;exitY=0.5;exitDx=0;exitDy=0;entryX=0;entryY=0.5;entryDx=0;entryDy=0;" edge="1" parent="1" source="uf48zT82ME3pojh5MYle-20" target="uf48zT82ME3pojh5MYle-7">
          <mxGeometry width="50" height="50" relative="1" as="geometry">
            <mxPoint x="572" y="620" as="sourcePoint" />
            <mxPoint x="622" y="570" as="targetPoint" />
          </mxGeometry>
        </mxCell>
        <mxCell id="uf48zT82ME3pojh5MYle-36" value="" style="endArrow=classic;html=1;rounded=0;exitX=1;exitY=0.5;exitDx=0;exitDy=0;entryX=0.5;entryY=0;entryDx=0;entryDy=0;" edge="1" parent="1" source="uf48zT82ME3pojh5MYle-18" target="uf48zT82ME3pojh5MYle-29">
          <mxGeometry width="50" height="50" relative="1" as="geometry">
            <mxPoint x="302" y="880" as="sourcePoint" />
            <mxPoint x="492" y="850" as="targetPoint" />
            <Array as="points">
              <mxPoint x="412" y="820" />
            </Array>
          </mxGeometry>
        </mxCell>
        <mxCell id="uf48zT82ME3pojh5MYle-37" value="Yes" style="text;html=1;align=center;verticalAlign=middle;resizable=0;points=[];autosize=1;strokeColor=none;fillColor=none;" vertex="1" parent="1">
          <mxGeometry x="562" y="605" width="40" height="30" as="geometry" />
        </mxCell>
        <mxCell id="uxUvToPxO8N_7_2sIM-X-3" style="edgeStyle=orthogonalEdgeStyle;rounded=0;orthogonalLoop=1;jettySize=auto;html=1;exitX=0.5;exitY=1;exitDx=0;exitDy=0;entryX=0.5;entryY=0;entryDx=0;entryDy=0;" edge="1" parent="1" source="uxUvToPxO8N_7_2sIM-X-1" target="uxUvToPxO8N_7_2sIM-X-2">
          <mxGeometry relative="1" as="geometry" />
        </mxCell>
        <mxCell id="uxUvToPxO8N_7_2sIM-X-6" value="" style="edgeStyle=orthogonalEdgeStyle;rounded=0;orthogonalLoop=1;jettySize=auto;html=1;" edge="1" parent="1" source="uxUvToPxO8N_7_2sIM-X-1" target="uxUvToPxO8N_7_2sIM-X-5">
          <mxGeometry relative="1" as="geometry" />
        </mxCell>
        <mxCell id="uxUvToPxO8N_7_2sIM-X-1" value="If energy price &amp;gt;= high price threshold?" style="rhombus;whiteSpace=wrap;html=1;shadow=0;fontFamily=Helvetica;fontSize=12;align=center;strokeWidth=1;spacing=6;spacingTop=-4;" vertex="1" parent="1">
          <mxGeometry x="-83" y="255" width="300" height="80" as="geometry" />
        </mxCell>
        <mxCell id="uxUvToPxO8N_7_2sIM-X-2" value="target indoor temp = low target temp" style="rounded=1;whiteSpace=wrap;html=1;" vertex="1" parent="1">
          <mxGeometry x="-48" y="375" width="230" height="40" as="geometry" />
        </mxCell>
        <mxCell id="uxUvToPxO8N_7_2sIM-X-9" value="" style="edgeStyle=orthogonalEdgeStyle;rounded=0;orthogonalLoop=1;jettySize=auto;html=1;" edge="1" parent="1" source="uxUvToPxO8N_7_2sIM-X-5" target="uxUvToPxO8N_7_2sIM-X-8">
          <mxGeometry relative="1" as="geometry" />
        </mxCell>
        <mxCell id="uxUvToPxO8N_7_2sIM-X-11" style="edgeStyle=orthogonalEdgeStyle;rounded=0;orthogonalLoop=1;jettySize=auto;html=1;exitX=0.5;exitY=1;exitDx=0;exitDy=0;entryX=0.5;entryY=0;entryDx=0;entryDy=0;" edge="1" parent="1" source="uxUvToPxO8N_7_2sIM-X-5" target="uxUvToPxO8N_7_2sIM-X-7">
          <mxGeometry relative="1" as="geometry" />
        </mxCell>
        <mxCell id="uxUvToPxO8N_7_2sIM-X-5" value="If high threshold &amp;gt; energy price &amp;gt; low threshold?" style="rhombus;whiteSpace=wrap;html=1;shadow=0;fontFamily=Helvetica;fontSize=12;align=center;strokeWidth=1;spacing=6;spacingTop=-4;" vertex="1" parent="1">
          <mxGeometry x="262" y="255" width="300" height="80" as="geometry" />
        </mxCell>
        <mxCell id="uxUvToPxO8N_7_2sIM-X-7" value="target indoor temp = medium&lt;span style=&quot;background-color: initial;&quot;&gt;&amp;nbsp;target temp&lt;/span&gt;" style="rounded=1;whiteSpace=wrap;html=1;" vertex="1" parent="1">
          <mxGeometry x="297" y="375" width="230" height="40" as="geometry" />
        </mxCell>
        <mxCell id="uxUvToPxO8N_7_2sIM-X-13" style="edgeStyle=orthogonalEdgeStyle;rounded=0;orthogonalLoop=1;jettySize=auto;html=1;exitX=0.5;exitY=1;exitDx=0;exitDy=0;entryX=0.5;entryY=0;entryDx=0;entryDy=0;" edge="1" parent="1" source="uxUvToPxO8N_7_2sIM-X-8" target="uxUvToPxO8N_7_2sIM-X-10">
          <mxGeometry relative="1" as="geometry" />
        </mxCell>
        <mxCell id="uxUvToPxO8N_7_2sIM-X-8" value="If energy price &amp;lt;= low threshold?" style="rhombus;whiteSpace=wrap;html=1;shadow=0;fontFamily=Helvetica;fontSize=12;align=center;strokeWidth=1;spacing=6;spacingTop=-4;" vertex="1" parent="1">
          <mxGeometry x="607" y="255" width="300" height="80" as="geometry" />
        </mxCell>
        <mxCell id="uxUvToPxO8N_7_2sIM-X-10" value="target indoor temp = high&lt;span style=&quot;background-color: initial;&quot;&gt;&amp;nbsp;target temp&lt;/span&gt;" style="rounded=1;whiteSpace=wrap;html=1;" vertex="1" parent="1">
          <mxGeometry x="642" y="375" width="230" height="40" as="geometry" />
        </mxCell>
        <mxCell id="uxUvToPxO8N_7_2sIM-X-15" value="" style="endArrow=none;html=1;rounded=0;exitX=0.5;exitY=1;exitDx=0;exitDy=0;entryX=0.5;entryY=1;entryDx=0;entryDy=0;" edge="1" parent="1" source="uxUvToPxO8N_7_2sIM-X-2" target="uxUvToPxO8N_7_2sIM-X-10">
          <mxGeometry width="50" height="50" relative="1" as="geometry">
            <mxPoint x="112" y="490" as="sourcePoint" />
            <mxPoint x="782" y="440" as="targetPoint" />
            <Array as="points">
              <mxPoint x="67" y="440" />
              <mxPoint x="757" y="440" />
            </Array>
          </mxGeometry>
        </mxCell>
        <mxCell id="uxUvToPxO8N_7_2sIM-X-17" value="" style="endArrow=classic;html=1;rounded=0;exitX=0.5;exitY=1;exitDx=0;exitDy=0;entryX=0.5;entryY=0;entryDx=0;entryDy=0;" edge="1" parent="1" source="uxUvToPxO8N_7_2sIM-X-7" target="uf48zT82ME3pojh5MYle-33">
          <mxGeometry width="50" height="50" relative="1" as="geometry">
            <mxPoint x="560" y="510" as="sourcePoint" />
            <mxPoint x="610" y="460" as="targetPoint" />
          </mxGeometry>
        </mxCell>
        <mxCell id="uxUvToPxO8N_7_2sIM-X-18" value="No" style="text;html=1;align=center;verticalAlign=middle;resizable=0;points=[];autosize=1;strokeColor=none;fillColor=none;" vertex="1" parent="1">
          <mxGeometry x="212" y="270" width="40" height="30" as="geometry" />
        </mxCell>
        <mxCell id="uxUvToPxO8N_7_2sIM-X-19" value="No" style="text;html=1;align=center;verticalAlign=middle;resizable=0;points=[];autosize=1;strokeColor=none;fillColor=none;" vertex="1" parent="1">
          <mxGeometry x="562" y="270" width="40" height="30" as="geometry" />
        </mxCell>
        <mxCell id="uxUvToPxO8N_7_2sIM-X-20" value="Yes" style="text;html=1;align=center;verticalAlign=middle;resizable=0;points=[];autosize=1;strokeColor=none;fillColor=none;" vertex="1" parent="1">
          <mxGeometry x="70" y="335" width="40" height="30" as="geometry" />
        </mxCell>
        <mxCell id="uxUvToPxO8N_7_2sIM-X-21" value="Yes" style="text;html=1;align=center;verticalAlign=middle;resizable=0;points=[];autosize=1;strokeColor=none;fillColor=none;" vertex="1" parent="1">
          <mxGeometry x="414" y="335" width="40" height="30" as="geometry" />
        </mxCell>
        <mxCell id="uxUvToPxO8N_7_2sIM-X-22" value="Yes" style="text;html=1;align=center;verticalAlign=middle;resizable=0;points=[];autosize=1;strokeColor=none;fillColor=none;" vertex="1" parent="1">
          <mxGeometry x="760" y="335" width="40" height="30" as="geometry" />
        </mxCell>
      </root>
    </mxGraphModel>
  </diagram>
  <diagram id="wxheZTbiQIUFREG-vClV" name="Resistive_heating_hysteresis_control">
    <mxGraphModel dx="2069" dy="2047" grid="1" gridSize="10" guides="1" tooltips="1" connect="1" arrows="1" fold="1" page="1" pageScale="1" pageWidth="827" pageHeight="1169" math="0" shadow="0">
      <root>
        <mxCell id="0" />
        <mxCell id="1" parent="0" />
        <mxCell id="gcMvkGpVLb-KJACdKy2U-31" value="" style="rounded=0;whiteSpace=wrap;html=1;fillColor=#B1B1B3;fillStyle=hatch;strokeWidth=3;strokeColor=#000000;" vertex="1" parent="1">
          <mxGeometry x="680" y="110" width="40" height="420" as="geometry" />
        </mxCell>
        <mxCell id="gcMvkGpVLb-KJACdKy2U-30" value="" style="rounded=0;whiteSpace=wrap;html=1;strokeWidth=3;fillColor=#f5f5f5;fontColor=#333333;strokeColor=#000000;" vertex="1" parent="1">
          <mxGeometry x="160" y="110" width="520" height="420" as="geometry" />
        </mxCell>
        <mxCell id="gcMvkGpVLb-KJACdKy2U-32" value="" style="rounded=0;whiteSpace=wrap;html=1;fillColor=#B1B1B3;fillStyle=hatch;fontColor=#333333;strokeColor=#000000;strokeWidth=3;" vertex="1" parent="1">
          <mxGeometry x="120" y="110" width="40" height="420" as="geometry" />
        </mxCell>
        <mxCell id="jmCVY_CHgEpF-rsbURe7-4" value="" style="shape=image;verticalLabelPosition=bottom;labelBackgroundColor=default;verticalAlign=top;aspect=fixed;imageAspect=0;image=data:image/svg+xml,PHN2ZyB4bWxucz0iaHR0cDovL3d3dy53My5vcmcvMjAwMC9zdmciIHZpZXdCb3g9IjAgMCAxMTUuNTEgMTIyLjg4IiBkYXRhLW5hbWU9IkxheWVyIDEiIGlkPSJMYXllcl8xIj48dGl0bGU+aGVhdGVyPC90aXRsZT48cGF0aCBkPSJNOS4zOSw0MC4zMmg5Ni43M2E5LjQxLDkuNDEsMCwwLDEsOS4zOSw5LjM4djU0LjgxYTkuNDEsOS40MSwwLDAsMS05LjM5LDkuMzhIOTQuODRWMTIyYS45Mi45MiwwLDAsMS0uOTIuOTJIODUuMzVhLjkzLjkzLDAsMCwxLS45My0uOTJ2LTguMDdIMzEuMDhWMTIyYS45Mi45MiwwLDAsMS0uOTIuOTJIMjEuNTlhLjkzLjkzLDAsMCwxLS45My0uOTJ2LTguMDdIOS4zOUE5LjM5LDkuMzksMCwwLDEsMCwxMDQuNTFWNDkuN2E5LjM5LDkuMzksMCwwLDEsOS4zOS05LjM4Wk0yNC42NiwyLjc5QTIuMDgsMi4wOCwwLDAsMSwyNi4yNS4xMWEyLjY0LDIuNjQsMCwwLDEsMy4xNywxLjMzYzMsNy41NC44NSwxMi44OC0xLjA1LDE3LjU4LTEuNjQsNC0zLDcuNDkuNjMsMTEuMzhhMS44OSwxLjg5LDAsMCwxLS40MiwzQTIuODYsMi44NiwwLDAsMSwyNS4wNSwzM2MtNS4zNy01LjcxLTMuNTctMTAuMTYtMS40Ni0xNS4zNkMyNS4yNiwxMy41OSwyNy4xNCw5LDI0LjY2LDIuNzlaTTcyLDIuNzhBMi4wNiwyLjA2LDAsMCwxLDczLjU4LjExYTIuNjQsMi42NCwwLDAsMSwzLjE4LDEuMzNDNzkuNzYsOSw3Ny42LDE0LjMyLDc1LjcsMTljLTEuNjMsNC0zLDcuNDkuNjMsMTEuMzhhMS44OSwxLjg5LDAsMCwxLS40MiwzQTIuODQsMi44NCwwLDAsMSw3Mi4zOCwzM0M2NywyNy4zLDY4LjgxLDIyLjg1LDcwLjkyLDE3LjY0LDcyLjU5LDEzLjU5LDc0LjQ1LDksNzIsMi43OFptMTUuNzUsMEEyLjA2LDIuMDYsMCwwLDEsODkuMzMuMTJhMi42NCwyLjY0LDAsMCwxLDMuMTgsMS4zMmMzLDcuNTUuODQsMTIuODktMS4wNiwxNy41OC0xLjYzLDQtMyw3LjQ5LjYzLDExLjM4YTEuODksMS44OSwwLDAsMS0uNDIsM0EyLjg2LDIuODYsMCwwLDEsODguMTMsMzNjLTUuMzctNS43LTMuNTctMTAuMTYtMS40Ni0xNS4zNiwxLjY3LTQsMy41NC04LjY4LDEuMDgtMTQuODZabS00Ny4zMywwQTIuMDYsMi4wNiwwLDAsMSw0MiwuMTFhMi42NCwyLjY0LDAsMCwxLDMuMTgsMS4zM0M0OC4xOCw5LDQ2LDE0LjMyLDQ0LjEyLDE5Yy0xLjYzLDQtMyw3LjQ5LjYzLDExLjM4YTEuODksMS44OSwwLDAsMS0uNDIsM0EyLjg0LDIuODQsMCwwLDEsNDAuOCwzM2MtNS4zNy01LjctMy41Ny0xMC4xNS0xLjQ2LTE1LjM2QzQxLDEzLjU5LDQyLjg3LDksNDAuNDIsMi43OFptMTUuNzUsMEEyLjA2LDIuMDYsMCwwLDEsNTcuNzUuMTJhMi42NCwyLjY0LDAsMCwxLDMuMTgsMS4zMmMzLDcuNTUuODQsMTIuODktMS4wNiwxNy41OC0xLjYzLDQtMyw3LjQ5LjYzLDExLjM4YTEuODksMS44OSwwLDAsMS0uNDIsM0EyLjg2LDIuODYsMCwwLDEsNTYuNTUsMzNjLTUuMzctNS43LTMuNTctMTAuMTYtMS40Ni0xNS4zNiwxLjY3LTQsMy41NC04LjY4LDEuMDgtMTQuODZabTM4LDUwLjM3YTIuNzcsMi43NywwLDAsMSw1LjUzLDB2NDguMTNhMi43NywyLjc3LDAsMSwxLTUuNTMsMFY1My4xNlptLTE1LjYzLDBhMi43NywyLjc3LDAsMCwxLDUuNTMsMHY0OC4xM2EyLjc3LDIuNzcsMCwxLDEtNS41MywwVjUzLjE2Wm0tMTUuNjMsMGEyLjc3LDIuNzcsMCwwLDEsNS41MywwdjQ4LjEzYTIuNzcsMi43NywwLDEsMS01LjUzLDBWNTMuMTZabS0xNS42MywwYTIuNzcsMi43NywwLDAsMSw1LjUzLDB2NDguMTNhMi43NywyLjc3LDAsMSwxLTUuNTMsMFY1My4xNlptLTE1LjYzLDBhMi43NiwyLjc2LDAsMCwxLDUuNTIsMHY0OC4xM2EyLjc2LDIuNzYsMCwxLDEtNS41MiwwVjUzLjE2Wk0xNiw1My4xNmEyLjc2LDIuNzYsMCwxLDEsNS41MiwwdjQ4LjEzYTIuNzYsMi43NiwwLDEsMS01LjUyLDBWNTMuMTZabTkwLjA4LTcuNUg5LjM5YTQuMDYsNC4wNiwwLDAsMC00LDR2NTQuODFhNC4wNiw0LjA2LDAsMCwwLDQsNGg5Ni43M2E0LjA2LDQuMDYsMCwwLDAsNC00VjQ5LjdhNC4wNiw0LjA2LDAsMCwwLTQtNFoiLz48L3N2Zz4=;" vertex="1" parent="1">
          <mxGeometry x="287" y="309.75" width="153.72" height="163" as="geometry" />
        </mxCell>
        <mxCell id="gcMvkGpVLb-KJACdKy2U-1" value="" style="triangle;whiteSpace=wrap;html=1;rotation=-90;strokeWidth=3;fillColor=#f5f5f5;fontColor=#333333;strokeColor=#000000;" vertex="1" parent="1">
          <mxGeometry x="354.75" y="-300" width="130.5" height="680" as="geometry" />
        </mxCell>
        <mxCell id="gcMvkGpVLb-KJACdKy2U-6" value="" style="shape=image;verticalLabelPosition=bottom;labelBackgroundColor=default;verticalAlign=top;aspect=fixed;imageAspect=0;image=data:image/svg+xml,PHN2ZyB4bWxucz0iaHR0cDovL3d3dy53My5vcmcvMjAwMC9zdmciIHZpZXdCb3g9IjAgMCAyNDQgNTExLjcxIiBjbGlwLXJ1bGU9ImV2ZW5vZGQiIGZpbGwtcnVsZT0iZXZlbm9kZCIgaW1hZ2UtcmVuZGVyaW5nPSJvcHRpbWl6ZVF1YWxpdHkiIHRleHQtcmVuZGVyaW5nPSJnZW9tZXRyaWNQcmVjaXNpb24iIHNoYXBlLXJlbmRlcmluZz0iZ2VvbWV0cmljUHJlY2lzaW9uIj48cGF0aCBkPSJNMTQ3LjI3IDU4LjY1YzAtMTAuNjYtNC4zNi0yMC4zNi0xMS40LTI3LjM5LTcuMDMtNy4wMy0xNi43Mi0xMS40LTI3LjM4LTExLjRzLTIwLjM1IDQuMzctMjcuMzkgMTEuNGMtNy4wMyA3LjAzLTExLjM5IDE2LjczLTExLjM5IDI3LjM5VjMzMC4xYy0yNi44NyAxMy43OC00NS4yNSA0MS43NS00NS4yNSA3NC4wMiAwIDQ1LjkyIDM3LjIyIDgzLjE0IDgzLjE0IDgzLjE0IDQ1LjkxIDAgODMuMTMtMzcuMjIgODMuMTMtODMuMTQgMC0zMS41NS0xNy41Ny01OC45OS00My40Ni03My4wOFY1OC42NXptNDAuODMgMzUuOTR2LTE4SDIzNWE5IDkgMCAwIDEgMCAxOGgtNDYuOXptMCA0OS4xNHYtMThIMjM1YTkgOSAwIDAgMSAwIDE4aC00Ni45em0wIDQ5LjE0di0xOEgyMzVhOSA5IDAgMCAxIDAgMThoLTQ2Ljl6bTAgNDkuMTR2LTE4SDIzNWE5IDkgMCAwIDEgMCAxOGgtNDYuOXptMCA0OS4xNHYtMThIMjM1YTkgOSAwIDAgMSAwIDE4aC00Ni45em0tMjAuOTcgMjMuMzRjMjguOTcgMTkuMjggNDguMDYgNTIuMjIgNDguMDYgODkuNjMgMCA1OS40Mi00OC4xNyAxMDcuNTktMTA3LjU5IDEwNy41OUM0OC4xNyA1MTEuNzEgMCA0NjMuNTQgMCA0MDQuMTJjMC0zOC4xNyAxOS44OC03MS42OSA0OS44NC05MC43OVY1OC42NWMwLTE2LjE0IDYuNi0zMC44MSAxNy4yMi00MS40M0M3Ny42OSA2LjU5IDkyLjM1IDAgMTA4LjQ5IDBjMTYuMTMgMCAzMC44IDYuNTkgNDEuNDMgMTcuMjIgMTAuNjIgMTAuNjIgMTcuMjEgMjUuMjkgMTcuMjEgNDEuNDN2MjU1Ljg0eiIgZmlsbD0iIzJCMjcyNyIvPjxwYXRoIGQ9Ik0xMjQuNTIgMzQ1LjM1di0zOS4zNkg5MC42N3YzOS4zNmMtMjUuNTMgNy4zNC00NC4yMiAzMC44OC00NC4yMiA1OC43NyAwIDMzLjc3IDI3LjM4IDYxLjE0IDYxLjE1IDYxLjE0IDMzLjc2IDAgNjEuMTQtMjcuMzcgNjEuMTQtNjEuMTQgMC0yNy45LTE4LjY4LTUxLjQzLTQ0LjIyLTU4Ljc3eiIgZmlsbD0iIzAwOTFENCIvPjwvc3ZnPg==;" vertex="1" parent="1">
          <mxGeometry x="810" y="191.99999999999997" width="25" height="52.46" as="geometry" />
        </mxCell>
        <mxCell id="gcMvkGpVLb-KJACdKy2U-8" value="" style="shape=image;verticalLabelPosition=bottom;labelBackgroundColor=default;verticalAlign=top;aspect=fixed;imageAspect=0;image=data:image/png,iVBORw0KGgoAAAANSUhEUgAAAgAAAAIACAYAAAD0eNT6AAAACXBIWXMAAA7DAAAOwwHHb6hkAAAAGXRFWHRTb2Z0d2FyZQB3d3cuaW5rc2NhcGUub3Jnm+48GgAAIABJREFUeJzt3XecXXWZ+PHPDElIQioBQlNCByMoAtIEabKiYsGyKFjZFQUVxMXexZVlXezuD7uggCKioKiIgA1ButKS0HsPySQhpMz8/vjOLEMyk5l7z3PKPefzfr2+r0TMPOc559473+ee8y1ddIYpwDbAtsD2/X/fCFgHmNr//68DTCgrQUlSIzwJLAYWAgv6//4AMAe4pf/POUBPWQmOVlfZCQxjJrDfoLZ1uelIktSSecAlwMX9fz5cbjqrq1IBsB3wZuBVwOySc5EkKUofcCPwC+B0YG656SRlFwDTgDcAbwH2pPx8JEnK29WkQuBMSrwzUFaHOwt4P/Dv+NxektRMy4CfAJ8jPTIoVNEFwJbAB4F3AGMKPrYkSVXUC5wDfAq4uaiDFlUAzAROBo4Augs6piRJnaQX+CHwIeCRvA+2Vs7xu0kD+84D9sBn/JIkDacL2In0eHwpcBVpAGFuB8vLC4BTgV1yPIYkSXV1JXAUcG0ewfO4A9AFHEsa2PCsHOJLktQEmwBHkgYLXhYdPPoOwFTg28Drg+NKktRkvwTeDsyPChhZAOwKnA1sFhhTkiQld5C+YF8dESyqADgAOBeYHBRPkiStbjGpCPhN1kARYwAOJ33zd0EfSZLyNY5UANwO/DNLoKwFwHtJI/1d1EeSpGKsBRxKuhvQ9uDALAXAMcDXcG6/JElF6wIOIm07/Ld2ArRbALyJNNrfzl+SpPIcBNwJXN/qD7bTgR9Mmo4wto2fzaoHuAKYQ1oveR7wGLCQdCvkyRJykiQ1xwRgHWAKMAPYhrSd/XbAbsCkEnJaBhwCXJjnQXYFFpGWJiyqXQl8lLSUsGMNJElVNYa0tf3HSVP1iuwre0gr8OZiOuk2QxEn8gDwBWD7vE5GkqSczQZOAh6kmL7zdmBa9El0AT8vIPm7SMsIT4w+AUmSSrI28E7gbvLvR88jeHzecTknvIDU8ZcxrkCSpCKMA44njVvLs099b1TCOwNP5ZjoGcBGUclKklRxm5A2zMurX10KPD9rkt3A5TkluBB4Y9YEJUnqUK8FniCfPvZKUh/etqNzSuxaYOssiUmSVAPbkubw59HXHtVuUjOBx3NI6A+k+ZOSJCmtHfBb4vvbx4EN2knohzkkcyZpEIQkSXraOOAs4vvd77WayPbAyuAkziTj8whJkmqsm/giYAXpMcOonRacwB9I8yAlSdLwxhL/OGDUdwG2AJYHHvhaylkbWZKkTjSZ2IGBy4BZoznwqYEH7SFtkCBJkkZva9IieVH98TdGOuAM0gICUQc8LMvZS5LUYG8irj9+Elh3TQc7JvBgZ2Q+dUmSmi1yUOC713SgK4IOsgDYOPt5S5LUaBsSt1rgZYMDD94xaDvg5qCEjwO+EhSrHesD+wDPIZ3XJqSBiNMI3iVJklQbfaTOdhFwH3ALcCPwZ+CREvM6HvifgDh9pCmB8+CZneHngY8GHOAeYCvSqMMibQG8GTgU2AE7eklSjD7gn8A5wOnAHQUffyyp094sINZngU+t+h9vIOYWwzEBCbZiX+BCoDdj3jabzWazjdR6gd8BL6ZY7wvIvQ+4biDgwLfkmcADZP/W/CDpm/iTGeOMxo7A10i3+iVJKtqlwHtJX6DzNoF052Fmxjh9/TEeGViad39ibpl/n/w7/3HAycDV2PlLksqzL3ANcBL573PzJPCDgDhdpLz/b23+/QKCQv5T/55NqrhOAMbkfCxJkkYyFvgQ8FfSHfA8nRYUZz+ILQCuIt/bILv0H2OPHI8hSVI7dgGuJN8+6ibSHYesDoBUAEwhjdrP6tyAGMM5ALiENL1PkqQqWpc0KH3/HI8R0dduDUzqpsVtAtfg4qA4q9oV+AVuKCRJqr5JwPnkdyfgkoAYXcDWUQVAD2lQXrQtgAuw85ckdY6JwC8Z5Q58Lfo7aaGirLaLKgCuIG0hHGks8CNgveC4kiTlbX3gp8TPDlhOKgKy2jaqALglIMaqPo8D/iRJnWtX4DM5xI3oc7ftJmbTnugC4Lmk/QQkSepk/0FauC7SnIAYG3UT83x9XkCMwb5BegQgSVInGwN8KTjm3IAYU7qByQGBHg2IMWA/XOFPklQf+wN7B8Z7LCDG5KgCIGJE4oCPBMaSJKkKPhYYa2FAjLACoCcgBqQpEwcGxZIkqSoOAjYPihXR504eA4wPCLQ0IAbAW4nZlGiwucDPSdMmHgKeCo4vSaqHtUk75e0GHEpaMS9KF3A4cGJArIhN9yZCzP7C0wOSAbg+KJ8+0tbEh/P0fgeSJI1WN3AE6YtjVL90bVBu04PyqUwBsD7QG5TPDaSdAyVJymIz4EZi+qaVwIyAnGpXALw2KJcHsfOXJMWZBTxMTB/1moB8QgqAKt0enx0U53jg7qBYkiTdSVrQJ8JzguJkVqUCIGJJ4rnAWQFxJEka7EfArQFxtguIEaJKBcCmATF+ThpHIElSpF5SH5NVRF8XokoFQMR6BBE7JEmSNJQrA2JE9HUhqlQAROxJ8FBADEmShnJ/QIwpATFCVKkAWCsghov8SJLyEtHHRPR1IapUAEiSpIJYAEiS1EAWAJIkNZAFgCRJDWQBIElSA1kASJLUQBYAkiQ10JiyE6iRbYGXApsD40mLEl0BXAwsLTGvVY0F9gL2AWaStqe8B/g9cF2JeUmSClaV7YBvC8hj54A8WrUzcNEacnqEtENh2cVWF/AO0q5Ww+V6JbBfSflJUtXtTPZ+6raAPEK2AyYoSFMLgHeQvt2PJreLiLlO7ZgAnDmKHPtIdwQ+Wk6aklRpFgBDtCYWAMeRdodqJb+/AOMKzBFS5//7FvPsI921kCQ9zQJgiNa0AuBYWu/8B9qnC8oRUud/YZt5rgB2LDBXSao6C4AhWpMKgCydfx+wEFi3gDyzdP4D7dwC8pSkTlGrAsBpgK05DvgSaUBduyYDh8SkM6wJwHnASzLGeTkwLXs6kqSqsQAYvWOBU8jW+Q/YOyDGcCYAvwQODIg1FtgtII4kqWLKnprWKY4l+zf/wTYNirOqgc4/6zf/wfLKVVLrxpEeIc4g/T5aDDwK9JSZlDqTBcDIjiPum/+AZYGxBgzc9o/45j9YHrlKGtlM0qJdewF7ArNJjxCH8hgwB7gGuAS4FHg8/xTV6RwEOLysA/6Ga98IzjNiwN9w7cXBuUoa3jjg9cBvSWtytPu5XQ6c3x9rbKFnUG+1GgRIUJA6FgBHkU/n3wccGphnu/P8R9MWAWsH5ippaONJC3A9Qvzn+E7gmP5jKBsLgCFa3QqAPUkVdB6d6r3EfRDz7Pz7gG8G5SlpeIcAt5Pf53ig3Qq8rKBzqisLgCFa3QqAawJyGa69PSjHPG/79wHzgU2CcpW0uhnABeT3GR6u/RCYVMD51ZEFwBCtTgXAiwLyGK59PyA/yL/zXwm8IihXSavbBbiD/D7DI7Wbge1zP8v6sQAYotWpADgxII+h2jnEDMbJ+7b/SuCtAXlKGtobgCfJ7zM82vYYsEfO51o3FgBDtDoVAD8LyGPVZucvCeCVpKm1eX2GW22LcaZPKywAhmh1KgCin8nZ+UuCtEZHFb75r9oWADvleN51UqsCwKWAV/dIYKyfA4eRZhRkkdciPwN6gXeQBgdJirc1aXOtKk7Fm0L6/bJe2YmoWBYAq7s6KI6dvyRIK66eTrVH3m8KnIZ9QuNE3EKq0yOAZ5F9DQBv+0sakNfA4jzau3O6BnVRq0cABAWpUwEAabpeuznY+UsaMBtYQXEdeNb2OLBBLleiHiwAhmh1KwBmAHe3cXw7f0mD/YTiO/GsLXqvkjqxABii1a0AgLRIxn0tHPs07PwlPW022Tb0KastBTbO4XrUgQXAEK2OBQDAhoy8LsAjwNFBx7Pzl+rjTMrvzNttJ+VwPerAAmCIVtcCYMAOwBdI+2zfDFwJnA0cSZpCE8HOX6qPycAS8vksLyc9oryH/O4w3AesFX5VOp8FwBCt7gVA3uz8pXo5jNjP8FLgVNJeJWMGHWcicDDpC0l0MXBQ4PWoCwuAIZoFQPvs/KX6OYe4z/BVwLajOObuxG4r/OW2z76+LACGaBYA7bHzl+qnG+gh5jP8R2CdFo69IekxZcSx/9H6qdeeBcAQzQKgdXb+Uj1tScxn+D5g3TaOvw2wKOD4vcSNcaqLWhUALvtYDpf3leprdlCcD5IW5mnVXOCLAcfvIhUTqikLgOLZ+Uv1FlEAPEBaRKhd/0v2fUjAAqDWLACKZecv1d+GATF+T1pCuF0PkQYPZrV+QAxVlAVAcez8pWaIWBH0xorEcAxAjVkAFMPOX2qOcQExFgfEWBQQY+2AGKooC4D82flLzTJm5H8yonZG/69qZkCM+QExVFEWAPmy85ea5+GAGDsFxHheQIzHAmKooiwA8mPnLzXTHQExDiLtJ9CubYHnBORhAVBjFgD5sPOXmuvOgBjrAO/J8PMfD8gBYs5FFeZKgLFc4U9qti2I+awvBrZv4/gHE7Mx0ALcEXBVrgSoYfnNX9LtxDwGmAj8Bti8hZ/ZHTiDmLu7l5MKCdWUBUAcO39JAy4MirMZcCXwhhH+3VjgWOASYFrQsS8LiqOKipiuIjv/TjGRzprX/ATpVl0n6yKuQ4qwBHiqgONcCBwVFGsGaVngjwCnAX8hbRQ0Dng26ffOm0ibEEU6JzieKsYCIDs7/+oaD7wNeB2wK525qtljwBzS7dgLgT+QbYnYPI0BXtLfdgO2I2Y+e7SnSNf0etI35l/S3qY7a/Ib4FFgvcCYz+9vRbgcuKGgY6lEDgJsnwP+qms/4C7ye23Kag8An6ZaHet6wGeBByn/+rTTlgJnEd+5nliBc2u3/VvwtaiLWg0CJChIEwsAO//qeiOwjPJ/iebZ5gPHUO44nm7gfTz9qKLTWy/wfeK+tW9MuttQ9nm12h4h2xoEdWYBMERrWgFg519duwJPUv4v0aLa7yhnx7YNgIvayLcT2n3Ai4Ou07cqcD6ttmOCzr2OLACGaE0qAOz8q6uL9Oyy7F+gRbd5pLnnRdkSuDWH86hSe4p0JymrdUlb85Z9PqNtN+HYsDWxABiiNaUAsPOvtn0o/xdoWe1OYJPMV3Bkm5DmuJd9vkW0lcDrA67ZERU4l9G0XtIATg3PAmCI1oQCwM6/+r5I+b9Ey2xXk2Y+5GU8cG0FzrPItpSY3yu/rsC5jNS+EHCedWcBMESrewFg598ZfkX5v0TLbl/OfBWH99UKnF8ZbR5pDYksppCmHZZ9LsO1P+Cyv6NhATBEq3MBYOffOS6j/F+kZbcVwAuyXsgh7NIfu+zzK6udmP0SshlpGmfZ57Jqm0c5A0k7Ua0KAJcCXjMX+eksj5adQAWsRZqTH+1zNPsb4vtJMx+yuAs4hGptsXszacbDI2UnouJZAAzPzr/zuHJZ8jJgdmC8HYCXBsbrRBOBowPiXEVaJXFOQKysriN1/veXnYjKYQEwtG7gR9j5d5pflp1ARXQR+1gpMlYnewvp2mZ1G/Ai0pr+ZTkL2Be/+TdexDOkuo0BOCEgl+Gaz/zzVdfFaVptN2W9kIPMrcD5VKXtkPFaDjaGtIPfogLzXwC8M/AcmqZWYwAIClKnAmBd8lva1M4/f7OBhRT3C7XKbWbGawmwUQXOo0rtPdku55C2Iv/CdSXwY2BWDvk3Sa0KAB8BrO51wNQc4nrbvxg3AoeRtn1tuohxAJFjCeogj+txK+lx497A2aTOOkofaXrszsDhpAWjJMAxAEPJ47m/nX+xLiD9Mv1H2YmUbLOKxKiTWTnG/gvwBmB70qJWN7YZp4+0JPYJpCWiDyEN+JOewTWfV/fs4Hh2/uW4BtgJeC3prs4LSbez1y4zqYJF3MmaEhCjToq4HvNInfcJpKWX/4W0VfGs/rYxT395WwL0kKbz3QT8k7Qexj0F5KkaiHi+VKcxAFcG5DH4udtbA3JS85xK9vffhwLy+FBAHqcG5BHhQLKfy1WFZ60qcQxAzT0QFMdv/pKkyrIAWN2fAmLY+UuSKs0CYHU/A5Zn+Hk7f0lS5VkArO5O4Ftt/qydvySpI1gADO0E0t7qrbDzlyR1DAuAoT0JvJI0I2A0FpOmmtn5S5I6ggXA8O4H9gE+SVpadjjnkaaGnFtEUpIkRXAhoDVbStoH/RTgAGAXYEPSN/65pBXn7iotO0mS2mQBMDqLSd/0zys7EUmSIvgIQJKkBrIAkCSpgSwAJElqIAsASZIayAJAkqQGsgCQJKmBLAAkSWogCwBJkhrIAkCSpAayAJAkqYEsACRJaiALAEmSGsgCQJKkBrIAkCSpgSwAJElqIAsASZIayAJAkqQGsgCQJKmBLAAkSWogCwBJkhrIAkCSpAayAJAkqYEsACRJaiALAEmSGmhM2QlIJXo+sC/wPGAbYAowscyEBlkvIMaygBiSasoCQE0zBXg38A5Sp19nPWUnIKm6LADUFGOAY4BPA9PKTaUwd5edgKTqsgBQEzwbOAvYo+xECnZz2QlIqi4LANXdzsAFwAZlJ1Kwu4B7yk5CUnVZAKjOdgYuJj33b5pflZ2ApGpzGqDqalPSN/8mdv4Ap5edgKRqswBQHXUDZ9C82/4D/gJcUXYSkqrNAkB19E5g77KTKEkf8Imyk5BUfRYAqpuJwGfLTqJEPwYuLTsJSdVnAaC6ORJYv+wkSnIb8J6yk5DUGSwAVDdHlp1ASRYAh/b/KUkjsgBQnWxJWte/aR4BXgL8o+xEJHUOCwDVyb5lJ1CCfwB7AVeWnYikzmIBoDrZsewECrQc+G9gd2BeyblI6kCuBKg62bLsBAqwjLSvweeBuSXnIqmDWQCoTqaWnUBO7gMuB34P/Ax4rNx0JNWBBYDqZEJAjKOBvwfEiTCfNMCvp+xEJNWPBYD0TPOAq8tOQpLy5iBASZIayAJAkqQGsgCQJKmBLAAkSWogCwBJkhrIAkCSpAayAJAkqYEsACRJaiALAEmSGsgCQJKkBrIAkCSpgSwAJElqIAsASZIayAJAkqQGsgCQJKmBLAAkSWogCwBJkhrIAkCSpAayAJAkqYEsACRJaiALAEmSGsgCQJKkBrIAkCSpgSwAJElqIAsASZIayAJAkqQGsgCQJKmBLAAkSWogCwBJkhrIAkCSpAayAJAkqYEsACRJaqAxZScgBVoZEOMTwDsD4hShB7gbuAj4G9CbwzEirumBwE8D4mQ1MyBGxPWQKsECQHWyKCDGPgExivZpYA7wYeAXwbEjrukW/a0OFpadgBTFRwCqkwfLTqBE2wLnAqcQ+7lu8jUdykNlJyBFsQBQncwpO4EKeD/wmcB4XtNnuqXsBKQoFgCqk7+VnUBFfAzYIyjWHODRoFh1cFnZCUhRLABUJ38FFpedRAV0AScGxeolDTJUGnRpAaDasABQnSwBfl52EhWxL7BRUKwzguJ0up8DS8tOQopiAaC6+VrZCVREN3GPAS4A5gXF6mTfKDsBKZIFgOrmSuDXZSdRERsHxVkJfD4oVqc6n/TekmrDAkB1dBzeqgVYFhjrNJr7/HspaXaFVCsWAKqjW4EPlJ1EBdwZGKsPeAuwIDBmp3g/cFvZSUjRLABUV98Evld2EiVaAvwlOOZtwBHAiuC4VfYd4P+VnYSUBwsA1dlRVGMN+jKcSSoCov0KeBvNKALOAt5ddhJSXiwAVGcrgDcCXyLdwm6KhaT9AfLyY+BVwBM5HqNMfcAXgcNpRqGjhrIAUN31AscDhwIPlJxLEVaSOq57cz7OBcALgEtzPk7R7gNeDZxAPrsrSpXSF9CmB+RxW0AeOwfkofqaAnyO9M014n1ftTYfeFnY1RqdLuBfgRsy5l52m0/aQ2Fy7OVRzexM9vdaxIDS6QF59BEUxAJAnWQy6Tn2r0i3y8vufCI6r68Ts999u7pJqw9+mzT7oOxrMpq2EDiPNLthUvQFUS3VqgAYE5CI1Gl6gB/0tzGkveq3AaYC65SWVesWAHcDVwHLS86ll/Q44NL+/70RsB2wHjFfEKIsJl23OcAd+IxfDWYBoKZbAcztb4rzAM0YcyF1LAcBSpLUQBYAkiQ1kAWAJEkNZAEgSVIDWQBIktRAFgCSJDWQBYAkSQ1kASBJUgNZAEiS1EAWAJIkNZAFgCRJDWQBIElSA1kASJLUQBYAkiQ1kAWAJEkNZAEgSVIDWQBIktRAFgCSJDWQBYAkSQ1kASBJUgNZAEiS1EAWAJIkNZAFgCRJDWQBIElSA1kASJLUQBYAkiQ1kAWAJEkNZAEgSVIDWQBIktRAFgCSJDWQBYAkSQ1kASBJUgNVqQDoC4ixVkAMSZKGEtHHRPR1IapUACwJiLFBQAxJkoYyMyDGooAYIapUACwMiLFdQAxJkoayfUCMnoAYIapUADwcEOOVATEkSRpKRB/zUECMEFUqAOYGxNgb2DMgjiRJg+1OTP8yJyBGiCoVALcExfkKMD4oliRJE4BvAl0BsSpTAEAakZi1TQ/IY+ugXPqAM4GxATlJkpptHPAT4vqnLQJymh6US2UKAIC7g/LpAy4FNg/KS5LUPFsAfyKuX7ojKK9aFgDfDMpnoC0FTgVeAkwLylGSVF/TgIOAbwFPEdsnfT0ox5ACoKv/L1mtC8wPiLMHcFlAnOEsIb2gkiStam1gYo7xdweuCIgzHXg8a5CqFQBdwI3EzLWUJKkqbgJmB8UKKQCqNAsAUjFyctlJSJIU7KSyE1hV1e4AQBq9PwcH8EmS6uE20kq1K4Li1fIOAMBy4ANlJyFJUpD3E9f5h6liAQBwLvDrspOQJCmj84Dzy05iKFUtAACOBB4oOwlJktr0EPCuspMYTpULgIeAtwAry05EkqQWrQTeRIW/yFa5AAC4CDi67CQkSWpBH+mb/8VlJ7ImVS8AIK3G9LGyk5AkaZQ+Bnyn7CRG0gkFAMB/Au8BestORJKkYfSRZrF9oexERqNTCgCAbwCvAxaUnYgkSauYD7waOKXsREarkwoASNMDX0DMWsqSJEX4G6lvOq/sRFrRaQUAwO3AnsBbgUdLzkWS1FxPAMcBewN3lptK6zqxAIA0FuA00tKKnyVuGWJJkkYyH/gMsCXwFTp0unoV9wJox2Tg9aR1A/YhnZckSVF6gT+Rvnz+DOgpMZdabgccYX1gX+DFpK0XtwM2LDMhSVLHeYC0Md2NwKX9rSqPnS0AWrAWMAWYSuc+9pAk5auXNNNsIdW+rR9SAIwJSKQTrCQVKFUuUiRJKozfhiVJaiALAEmSGsgCQJKkBrIAkCSpgSwAJElqIAsASZIayAJAkqQGsgCQJKmBLAAkSWogCwBJkhrIAkCSpAayAJAkqYEsACRJaiALAEmSGsgCQJKkBhpTdgKSCjUDeA2wL/Cs/v92N3ApcC7weClZSSpFX0CbXnjWkloxBvgk0MPwn+OFwMfxi4FUddOJ6bstAKSamwz8ntF/ni8EJpWSqaTRsACQNKJu4Dxa/0yfi2OEpKqyAJA0onfQ/uf6zSXkK2lkFgCS1qgLuIP2P9e39ceQVC0hBYC3+KT62gWYleHntwB2iklFUtVYAEj1tWtAjBcGxJBUQRYAUn3NDIixYUAMSRVkASDV16KAGD0BMSRVkAWAVF+3VySGpIpyFoBUT1OBp2j/c70UmFJ41pJG4iwASWu0ADgjw8//mLQ8sKSa8g6AVF/PIm3w0+pn+jFgkxLylTQyFwKSNCoH0dqjgKXAgaVkKmk0LAAkjdpewH2M/Fm+F9izpBwljY4FgKSWTAI+BtzC6p/hm4GPAuuUlp2k0QopALr6/5LVusD8gDiSirER8Oz+v98NPFBiLpJaM500tieTMQGJSOo8D2CnLzWa0wAlSWogCwBJkhrIAkCSpAayAJAkqYEsACRJaiALAEmSGsgCQJKkBrIAkCSpgVwISE0yEdgRmAYsIS1/+0ipGals6wNbk5ZJfpS0TPKSUjOSCuReAKq7PYHzgGWs/t69Ajgc6CotOxWtC3gDcDmwkme+H5YA5wI7l5adNDI3A5JGMBb4KtDLyO/hS4CZ5aSpAs0ALmLk90MvcDKwVjlpSmtkASCtQTdwNq29j28m3RJWPc0gvcatvCfOxLtDqh4LAGkNTqC99/L5ZSSrQlxAe++JD5SRrLQGFgDSMNYDemj//fwvxaesnL2M9t8PPaQtz6WqCCkAnAaoOjqCNKq7Xe+KSkSV8e4MPzsJeHNUIlJVOA1QdXRQxp8/kDSGoDcgl7J0ARsBzwI27f9zOrA2MJn02Z/W/++WAE8By0lT4R7rb/cCdwL3kUbLd6q1gP0yxngJ8JWAXKTKsABQHW2T8ecnkTrP+wJyKcJGwPNXabOAcUHxl5MKgX8A/+z/8wrg/qD4edsEWCdjjK0iEpGqxAJAdbR2QIyozjMPGwAHkO5UvIT07T5PY0mL5WwNvHbQf78D+CtwKfAbqlsQRLyWVX4/SG1zEKDq5kqyvZ97SasGVsn2wGeAaxndugZltOuAE0mrLVbJZLJfs8sLz1oanrMApGF8nWzv5+uLT3lIs4APkzrWsjv3VttNwCfJ/+7EaN1ItvP5avEpS8OyAJCG8SKyvZ8/UnzK/6eLNA3xAlZfprYT2wrgV8ArKXfzsU+Q7Tz2Kj5laVgWANIajGa516HaQ5Tzfp4EHE3rK9V1UptLmmI5IeiatWI6aYZDO3lfWEK+0ppYAEhrsAVpp79W3scrgVcVnOd44Hjg4RZz7eT2UP85F10IvIbW76o8SnoUI1WJBYA0gl1IU/lG8x5eCrytwNzGkr4N3zvK/OrY7iPd9ShyNtK/kaY1jrZQ2aXA3KTRsgCQRmFj4Mes+ZvfZcCuBeZ0MHDrGvJpWruB7Is3tWJP4Oo15NML/JS0foBURSEFQFf/X7JaF5gfEEfKy1bAq0mL5GwALCQ9b78A+FtBOWwMfBl4fUHH6zS/AN5DMQswdZEGix4MzCZN+3yMNM3yHFKBJlXVdOAaJm55AAASlklEQVTxiEDeAZDy1Q28D1hA+d+2q96eID0acQteaXg+ApA6wEzgt5TfsXZa+wPegpeGYwEgVdyraX/qmS1du1e3fNWl+rMAkCpqPPC/lN+B1qX9D+5bIg1mASBV0EzSrIKyO826tUtIgzclWQBIlbMDaYe8sjvLurZ7SbM4pKYLKQDKXJtbqpNXkLbGnVVyHnW2CelOwAFlJyLVhXcApGyOIG16U/Y35JWkRXW+DbwdOD0g5un9sb7dH7sKGxQ9BbxuVK+MVE8+ApAq4EjK7RQfA74HHAJMXSW3kwLin7RKzKmknf2+33/sss57BfCW1V4NqRksAKSSHU1aNrbozu8J4FTS8rlj15BfHgXAYGP7c/hWf05FX4eVpLX9paaxAJBKVEbnPwc4hrR18GjkXQAMNpm0jO/cgq/JSuBNo8xRqgsLAKkkh1Lsbf9LSGvWt7o8bpEFwIBu4OXAHwOOPdq2nOK3cZbKZAEglWA3YDHFdGw3k23joDIKgMEOBK4PyGE07Ulgjwy5Sp3EaYBSwbYn7R44MefjPAgcBTwXODvnY+XpImBn0uY+D+Z8rPGk3QS3yPk4Uq14B0Aa2XTgNvL/JvtDYFpQzmXfARhsOjHTEkdqN5HGI0h15h0AqSBdwHfJ99vlw6SxBW8ljaivm/nAm0njA+7P8TjbkwoNtxOWRmABII3sg8Brcoz/S2A2cG6Ox6iKC0jL+Z6f4zFeBZyQY3ypNnwEIA3vxaRR5nncru4l3WLPqxCv0iOAVXUBHyK/qZTLgd1zyl0qm7MApJxNI21Ak0cHtZhsI/xHo8oFwIDDgCUBeQ7V5jH6NROkTuIYAClnXyRtQBPtIeBFdPYI/yhnAXuTxkBE2wr4Ug5xpVqwAJCGtj/wjhziPkTaze7aHGJ3qquBfchncOCRpPUIJK3CAkBa3Tqk9e2jR5I/SCosbgyOWwdzSNcmugjoIr2W6wTHlTqeBYC0us8AWwbHvI90q/um4Lh1klcRsDnwkeCYUsezAJCeaQvgvcExF5Hmv98aHHckKysSoxVzSFsbLw6O+wFgVnBMqaNZAEjPdBIwLjBeL3AEaU38oj0UEOOBgBitugb4V2KLj/HAyYHxpFpwGqCU7E78vPTjCz2DZ9p/DXmNtu1bdNKDnDBMTlmaawOoDlwHQAr2Z2I7m9OKTX81Y4HHaD//R4ExhWf9TD8i9jW5sNj0pVxYAEiB9iO2o7kdmFLoGQztY7R/Dh8qId9VTQXuIPa1eXGhZyDFswCQAv2auA5mBWmhnyqYCFxH6+dwDTChhHyHsjfpmka9Pr8rNn0pnAWAFOS5xD77P7HY9Ee0Ga1tZTwPeHYpmQ7vP4l7fXqBHYtNXwplASAF+T5xncvNpGfvVTMDOIeR8z8bWLekHNdkHGmKYNTr9MNi05dCWQBIATYEniKuY3lZsem3bHfg66TVCHv62w3A14DdSsxrNA4h7nV6Cli/2PSlMBYAUoD/IK5T+X3BuTfRb4l7vcqcoillYQEgBbiemM/AcmB2wbk30fbAMmJes1uI3+9BKoIFgJTRC4j7NvntgnNvsu8R97q5MJA6kQWAlNFXiXn/95K+maoY25GWCY547U4pOHcpggWAlEE3aa38iPf/uQXnLjifmNfuHtwTRZ3HAkDK4IXEvPf7gD0Lzl2wD3Gv3x4F5y5lFVIAWPmqqaKm6/0duCwolkbvT6TVCiNUfeqmlAsLADVV1C/904PiqHU/Corz0qA4UsfxEYCaZgNiBpGtAGYWnLuetjExewSsxEWB1Fl8BCC1aT9i7n79gTSQUOW4H7gkIE431dm8SSqMBYCa6IVBcc4MiqP2Rb0GewXFkTqGBYCaaNeAGH3AbwLiKJuo18CZHGokxwCoSdYCFpH9PX9j0YlrWLeQ/fVcQnpvSJ3AMQBSG54LrBMQJ+LZs2JcGhBjArBVQBypY1gAqGl2CIrzx6A4yu7SoDg7BsWROoIFgJpmi6A4fw6Ko+z+EhTH/RzUKBYAaprNA2I8ATwYEEcx7gUWBsSJeG9IHcMCQE0TcQfgloAYijU3IIYFgBrFAkBNE1EAzAmIoVgRRdmsgBhSx7AAUJN0ARsFxLEAqJ6I18RlndUoFgBqkknEzPW+OyCGYt0VEGM8MVNEpY5gAaAmmRoU54mgOIqzICjOekFxpMqzAFCTRBUAESPOFSuqAIh6j0iVZwGgJpkWFMc7ANUTVQCMC4ojVZ4FgJok6pe7dwCqJ6oAGB8UR6o8CwA1yYqgOL1BcRQn6jXxDoAawwJATbIyKM6EoDiKE/WaPBUUR6o8CwA1SdQdgIlBcRQnqgBYEhRHqjwLADWJdwDqywJAapEFgJqkJyiOdwCqJ6oAeDIojlR5FgBqkoeD4mwYFEdxIpZ4Bu8AqEEsANQkTwBLA+K4a1z1bBkQYxnweEAcqSNYAKhpHgmIYQFQPRGvyb04xVMNYgGgpol4DBCxpbBiRbwm9wTEkDqGBYCa5s6AGBG3mxUrogC4NyCG1DEsANQ0NwfE2BTYICCOYmwEbBIQxzsAahQLADVNRAHQBewZEEcx9gqKc2NQHKkjWACoaSIKAIjrdJRd1GtxbVAcqSNYAKhpbiFmpLcFQHVE3I1ZCswJiCN1DAsANc2TxNzqfQEwKSCOspkC7BQQ5wbi9oqQOoIFgJrozwEx1gZeHhBH2RwCjA2I4+1/NY4FgJror0FxXh8UR+2Leg3+GBRH6ih9AW164VlL7duUmPf9YmCdgnPX0yaTHulkfR17idtLQCrCdAJ+h3kHQE10L3BXQJyJwMsC4qg9hwDjA+LcADwQEEfqKBYAaqpfB8U5MiiOWhd17S8KiiN1HB8BqIkOJOa93ws8p+DcBTsQ8/r1AQcXnLuUVcgjAIKCWACo04wFHiPm/X9qwbkLvkvMa/c4MK7g3KWsLACkjE4j5v2/BFiv4NybbH1iBv9ZvKlTOQhQyuicoDgTgPcGxdLIjiVm8B/AT4LiSB3JOwBqqjHAfcTdBdi02PQbaRNgETGv2f3AWsWmL4XwDoCU0Qrgh0GxJgCfCoql4Z1I3NoLPwJWBsWSOpJ3ANRkm5M6gYjPwQrS6HTl43nEvlabF5u+FMZBgFKQ3xPzOejrj9VVbPqN0AVcStzrdG6h2UuxLACkIK8grmPpA95VbPqN8B5iX6P9ik1fCmUBIAXpIu0GF9W59ABbFHoG9bY1ad+FqNfnH8WmL4WzAJACvY7Yb5h/xRHmEbqBPxH72ryh0DOQ4lkASIG6gRuJ7Wg+XugZ1NOniH1NrsU9UNT5LACkYG8ktrNZCby60DOol9eS9lqIfE1eUegZSPmwAJCCdQF/IbbD6QF2LPIkauJ5xC34M9CuwBkaqgcLACkHuxH/rfMO0vr1Gp2ZwF3Evga9wIuKPAkpRxYAUk5+QGzn0wdcB8wo8Bw61TTgKuKv/3eLPAkpZxYAUk42Jt26j+6ErsLPypqsC1xD/HV/FHdrVL1YAEg5Opr4jqiP1MGtW+B5dIqpwN/J55ofWeB5SEWwAJBy1AVcSD4d0tWkuwxKNiGfb/59wB9x4J/qxwJAytkmwOPk0zHdB+xS3KlU1vOAu8nnGs8HNivuVKTCWABIBXgL+XROfaRpbk1eJ+C1xC7xu2o7rLhTkQplASAV5HTy66RWAv8JjC3sbMo3Dvgv4qdbDm7fKuxspOJZAEgFmUB+z6gH2lXA9kWdUIlmE7vx0lDtn8DEok5IKoEFgFSgWcAj5NtxLSFte1vHteq7gWOBJ8n3Gj4MbF7QOUllsQCQCrY/sJx8O7A+0iyBvQs6pyLsBvyN/K/bMmDfYk5JKpUFgFSCd5Lvs+uB1gucRWePYt8c+Cn5X6uB9pZiTksqnQWAVJIPU1yntgT4OrBFIWcWYyvgm+R/u39w+3QRJyZVhAWAVKKTKa5z6yPNFjgf2KOIk2vTTsBpFPOYZHA7pYiTkyrEAkAqURfwHYrt6Aba5aQBdRvmfpYj24iUyxWUcy2+nP8pSpVjASCVrBv4BuV0fH3ACuAi4N8odqzALODfgT/051DW+X8Tl/lVM1kASBXxOcrrBAe3O0hbGb8N2JaYxYXG9sd6O/BD4M4KnGcf8AXs/NVcIQVAV/9fslqXtO621FTHkZ5FV6lTWk4qCuYCc0j7D/QAC/pbT/+/m0zajW9q/983BbYhdfyzqNYqhStJjxy+UXYiUommk/YpySxipO5GEYlIHe5w0qj9sr8d17U9CRw66ldDqq+Nyf55Wgxp5aysgbbJ91yljrEzcBfld5Z1a/dQ7RkQUpG2I/tn6sFunr4NmMWkgBhSHVwNvIA0OE8xLgF2Ja0mKCk9qsuqJ6oAWC8ghlQXjwEHA/9NWtFP7eklLfBzIPBgualIlTIjIEZPN2lP8qx8BCA90wrgg8B+pIF4as2dwEuAz2ARJa1q24AYC7uB+wMCRSQj1dGfgOcCXyU9d9Oa9QHfAnYELi45F6mqIvrc+7tJ04OyasI+5lK7lpCmrh1MmpKnoc0j7eZ3FDGPJqW62i4gxlyAI8g+mrCHas0VlqpqHPAfpHn4ZY+sr0p7grTB0oQM11VqinGkR/dZP3eHQRpdG/Eh3jPPM5ZqZibwXdLCNmV3wGW1ZaSdDtfPeC2lJtmbmM/fTpCmE0Tsb/7xPM9YqqntSEvsFr2DXpltBXAmDh6W2vFJsn8Gexk0fX9uQMCrcztdqf42A75CvVcSXEraLtiOX2rfNWT/LN4yOOCpAQH7SKOdJbVvQ+CjwG2U32FHtXuBT+F6IVJWs4n5TH5zcNDDgoJ+IY8zlhqomzQP/mzgKcrvxFtti4HTgYOAtYKvjdRUJxPz+Xzd4KAbEDMO4EEcyStFmwq8EfgpsJDyO/fhWg/wc9J2xBFLlUp62kTgIbJ/TlcyxN24fwYE7gPeG3zSkp42HngZ8CXgSsodPNgL3AB8ETiAND1JUj6OI+Zze+1QwU8MCn4P/iKQijKJp5fMPQe4mTS9Lo/O/k7SN/wPkzr8qfmfniRSnxq1y+inB4J2DTrAtqwyMjCDDwCnBMWS1JqxwNak0fabkubZb0AaYLg+6S7CgPH9/35Bf3ti0J93Arf3tztIYxEkFe8E0vP/rPpIvxduHer/vJyYCmMhsElAspIkNdmmpPE1EX3zX9d0oKODDtIH/CT7eUuS1GhnE9cvv2tNB5pBWqwj6mCHZz51SZKa6c3E9cdPAtNHOuD/Bh6wB3cKlCSpVdsQO+3366M56CxiRxFfj3OCJUkarSnETc3vI/Xpm4324D8IPHAfcDGwdsuXQJKkZhkHXEhsH/ydVhLYlvhtSs8iLW8qSZJW101a8TOy711Bmhbcku8FJzFQBLhIkCRJz7Q28Z1/H/DtdpKZATySQzIXk55vSJKktKLn74jvbx8jLf7VlnflkFAfaWDgtu0mJUlSTWxP7IC/we3fsyTWDfwtp8R6cJ0ASVJzHUHcKn+rtr8TMO5uJ2IXB1q1nQVsnDVJSZI6xKbErvC3alsKPC8q2fflmGgfabGD43GAoCSpvtYmbeyT17f+gXZMdOLn5JxwH/Ag8CFgYnTykiSVZG3gncA95N+Pnp3HCUwjbQuad/IDhcBJwOw8TkSSpAI8F/gv4CGK6TtvBabmdTI7k/+ti1Xb1cAngL1I+5ZLklRFY4EXAZ8ErqXYvnIh8PxWku1q4wQPAs6nnOf1i4ErgFuAOcA84GFSUbKItNuRJEl5mUCatz8ZmAlsBWzX314IrFNCTsuAlwMXtfJD7RQAAIcBP8alfSVJKlMf8Fbg9FZ/cK02D3gD8Cip4pAkSeU4HvhWOz/YbgEAcCVpmcGX0v6dBEmS1Lo+4IPAKe0GiOi4DwXOwO1+JUkqwjLSbf+zsgSJ+ua+P3AubvIjSVKeFgGvB36bNVDUIL6Lgf2AO4LiSZKkZ7oN2JuAzh9iR/FfQ5qD+JPAmJIkCX4B7ApcFxUwehrfQtIUwaOAp4JjS5LUNE8BxwGvAeZHBs5z9P7zgVNJCyNIkqTWXA68C7g+j+B5LuRzHbA7aaTiozkeR5KkOplP+tb/InLq/CHbOgCjdT3wA2A90v7ErhkgSdLqVgLfA14NXEKa65+bojvjLYBjSWMEXDdAkiRYTprT/3nSPjeFKOvb+CzSCkZvB8aXlIMkSWVaSvrGfzJwV9EHL/t2/DTglcCbgQMoPx9JkvJ2NWnznjOAR8pKokod7takQuBVwA5UKzdJktrVB/wD+CWp47+13HSSqnay6wP7kpYY3g/YttRsJElqzS2kgXwDrXKz4apaAKxqErANqRDYFtgO2LD/v0/v/3MSMLGsBCVJjbCEtB7/ItJ0vR7gQdLgvVuAuf1tUVkJjtb/Bxq01N16ljUPAAAAAElFTkSuQmCC;" vertex="1" parent="1">
          <mxGeometry x="555.5" y="191.99999999999997" width="52" height="52" as="geometry" />
        </mxCell>
        <mxCell id="gcMvkGpVLb-KJACdKy2U-9" value="" style="shape=image;verticalLabelPosition=bottom;labelBackgroundColor=default;verticalAlign=top;aspect=fixed;imageAspect=0;image=data:image/svg+xml,PHN2ZyB4bWxucz0iaHR0cDovL3d3dy53My5vcmcvMjAwMC9zdmciIHZpZXdCb3g9IjAgMCA3Ni42OCAxMjMuMTIiIGRhdGEtbmFtZT0iTGF5ZXIgMSIgaWQ9IkxheWVyXzEiPjxkZWZzPjxzdHlsZT4uY2xzLTF7ZmlsbC1ydWxlOmV2ZW5vZGQ7fTwvc3R5bGU+PC9kZWZzPjx0aXRsZT5lbGVjdHJpYy1wb2xlPC90aXRsZT48cGF0aCBkPSJNMCwxNi4wNkgzMi43VjIuMzNsLjA3LS4wN2E1LjYyLDUuNjIsMCwwLDEsLjU1LS41NCw3LjgzLDcuODMsMCwwLDEsNS0xLjcyLDcuNDUsNy40NSwwLDAsMSw0Ljk0LDEuNzYsNC42NCw0LjY0LDAsMCwxLC40OS41bC4wNi4wN1YxNi4wNkg3Ni42OFYyMUg2My4xMmExLjQsMS40LDAsMCwxLS4yNi4zOUw0My42Miw0MC44djEuMzJINzYuNjh2NC45M0g2My4yNWEuNTIuNTIsMCwwLDEtLjEuMTFMNDMuNjIsNjYuODh2NTYuMjRIMzIuOTRWNjYuOEwxMy40OSw0Ny4xNmwtLjEtLjExSDBWNDIuMTJIMzIuOTR2LTEuNGwtMTguODYtMTlhMS4yMSwxLjIxLDAsMCwxLS4zMy0uNjlIMFYxNi4wNlptNzIuOS0yLjYyYS42OS42OSwwLDAsMSwuMjkuNTdoMGEuNjkuNjksMCwwLDEtLjY4LjY5SDcwLjQ2YS42OS42OSwwLDAsMS0uNjktLjY5aDBhLjcuNywwLDAsMSwuMy0uNTdoLS44NmExLDEsMCwwLDEtMS0xdi0uODdoNi42NXYuODdhMSwxLDAsMCwxLTEsMVptLTMuNjktNC4xaDFhLjcxLjcxLDAsMCwxLS40Mi0uNjN2MEEuNjkuNjksMCwwLDEsNzAuNDYsOGgyLjA1YS42OS42OSwwLDAsMSwuNjguNjl2MGEuNy43LDAsMCwxLS40MS42M2gxYTEsMSwwLDAsMSwxLDEuMDV2LjY3SDY4LjE2di0uNjdhMSwxLDAsMCwxLDEtMS4wNVptLTYyLDQuMWEuNzEuNzEsMCwwLDEsLjI5LjU3aDBhLjY5LjY5LDAsMCwxLS42OS42OWgtMkEuNjkuNjksMCwwLDEsNC4wNSwxNGgwYS43LjcsMCwwLDEsLjMtLjU3SDMuNDlhMSwxLDAsMCwxLTEuMDUtMXYtLjg3SDkuMDl2Ljg3YTEuMDYsMS4wNiwwLDAsMS0xLjA2LDFaTTMuNDksOS4zNGgxYS43MS43MSwwLDAsMS0uNDItLjYzdjBBLjY5LjY5LDAsMCwxLDQuNzQsOGgyYS42OS42OSwwLDAsMSwuNjkuNjl2MGEuNy43LDAsMCwxLS40MS42M0g4YTEuMDUsMS4wNSwwLDAsMSwxLjA2LDEuMDV2LjY3SDIuNDR2LS42N0ExLDEsMCwwLDEsMy40OSw5LjM0Wk02MCw0Ny4wNUgxNi42OWwxNi4yNSwxNi40VjUwLjI1SDQzLjYyVjYzLjUzTDYwLDQ3LjA1Wk00My42MiwzNy40Niw1OS45MywyMUgxNi43MUwzMi45NCwzNy4zN1YyMy43SDQzLjYyVjM3LjQ2WiIgY2xhc3M9ImNscy0xIi8+PC9zdmc+;" vertex="1" parent="1">
          <mxGeometry x="-33.5" y="340" width="77" height="123" as="geometry" />
        </mxCell>
        <mxCell id="gcMvkGpVLb-KJACdKy2U-10" value="" style="endArrow=classic;html=1;rounded=0;exitX=1;exitY=0.75;exitDx=0;exitDy=0;entryX=0;entryY=0.75;entryDx=0;entryDy=0;strokeWidth=3;strokeColor=#7EA6E0;" edge="1" parent="1" source="gcMvkGpVLb-KJACdKy2U-9" target="jmCVY_CHgEpF-rsbURe7-4">
          <mxGeometry width="50" height="50" relative="1" as="geometry">
            <mxPoint x="-193" y="450" as="sourcePoint" />
            <mxPoint x="-143" y="400" as="targetPoint" />
          </mxGeometry>
        </mxCell>
        <mxCell id="gcMvkGpVLb-KJACdKy2U-11" value="" style="endArrow=classic;html=1;rounded=0;exitX=0.5;exitY=1;exitDx=0;exitDy=0;entryX=1;entryY=0.5;entryDx=0;entryDy=0;strokeWidth=3;dashed=1;dashPattern=1 1;strokeColor=#67AB9F;" edge="1" parent="1" source="gcMvkGpVLb-KJACdKy2U-8" target="jmCVY_CHgEpF-rsbURe7-4">
          <mxGeometry width="50" height="50" relative="1" as="geometry">
            <mxPoint x="357" y="280" as="sourcePoint" />
            <mxPoint x="407" y="230" as="targetPoint" />
            <Array as="points">
              <mxPoint x="582" y="391" />
            </Array>
          </mxGeometry>
        </mxCell>
        <mxCell id="gcMvkGpVLb-KJACdKy2U-14" value="&lt;font style=&quot;font-size: 16px;&quot;&gt;Resistive Heater&lt;/font&gt;" style="rounded=1;whiteSpace=wrap;html=1;fillColor=#F2F4C1;strokeColor=#000000;strokeWidth=3;" vertex="1" parent="1">
          <mxGeometry x="297.36" y="480" width="132.64" height="40" as="geometry" />
        </mxCell>
        <mxCell id="gcMvkGpVLb-KJACdKy2U-15" value="&lt;font style=&quot;font-size: 16px;&quot;&gt;Power Grid&lt;/font&gt;" style="rounded=1;whiteSpace=wrap;html=1;fillColor=#DBDFEF;strokeColor=#000000;strokeWidth=3;" vertex="1" parent="1">
          <mxGeometry x="-50" y="469.88" width="110" height="33" as="geometry" />
        </mxCell>
        <mxCell id="gcMvkGpVLb-KJACdKy2U-16" value="&lt;font style=&quot;font-size: 16px;&quot;&gt;Room Thermostat Controller&lt;/font&gt;" style="rounded=1;whiteSpace=wrap;html=1;fillColor=#F2F4C1;strokeColor=#000000;strokeWidth=3;" vertex="1" parent="1">
          <mxGeometry x="510" y="130" width="143" height="52" as="geometry" />
        </mxCell>
        <mxCell id="gcMvkGpVLb-KJACdKy2U-17" value="&lt;font style=&quot;font-size: 16px;&quot;&gt;Outdoor Temperature&lt;/font&gt;" style="rounded=1;whiteSpace=wrap;html=1;fillColor=#C1E8F7;strokeColor=#000000;strokeWidth=3;" vertex="1" parent="1">
          <mxGeometry x="740" y="250" width="165" height="40" as="geometry" />
        </mxCell>
        <mxCell id="gcMvkGpVLb-KJACdKy2U-18" value="&lt;font style=&quot;font-size: 16px;&quot;&gt;Heat Loss&lt;/font&gt;" style="rounded=1;whiteSpace=wrap;html=1;fillColor=#C1E8F7;strokeColor=#000000;strokeWidth=3;" vertex="1" parent="1">
          <mxGeometry x="777.5" y="405" width="90" height="40" as="geometry" />
        </mxCell>
        <mxCell id="gcMvkGpVLb-KJACdKy2U-3" value="" style="shape=flexArrow;endArrow=classic;html=1;rounded=0;strokeWidth=3;exitX=1;exitY=0.75;exitDx=0;exitDy=0;entryX=0;entryY=0.5;entryDx=0;entryDy=0;fillColor=#FCE0E1;strokeColor=#000000;" edge="1" parent="1" target="gcMvkGpVLb-KJACdKy2U-18">
          <mxGeometry width="50" height="50" relative="1" as="geometry">
            <mxPoint x="645" y="424.5" as="sourcePoint" />
            <mxPoint x="740" y="424.5" as="targetPoint" />
          </mxGeometry>
        </mxCell>
        <mxCell id="gcMvkGpVLb-KJACdKy2U-19" value="&lt;font style=&quot;font-size: 16px;&quot;&gt;Heat Gain&lt;/font&gt;" style="rounded=1;whiteSpace=wrap;html=1;fillColor=#C1E8F7;strokeColor=#000000;strokeWidth=3;" vertex="1" parent="1">
          <mxGeometry x="318.86" y="220" width="90" height="40" as="geometry" />
        </mxCell>
        <mxCell id="gcMvkGpVLb-KJACdKy2U-22" value="" style="shape=flexArrow;endArrow=classic;html=1;rounded=0;exitX=0.5;exitY=0;exitDx=0;exitDy=0;entryX=0.5;entryY=1;entryDx=0;entryDy=0;strokeWidth=3;fillColor=#FCE0E1;strokeColor=#000000;" edge="1" parent="1" source="jmCVY_CHgEpF-rsbURe7-4" target="gcMvkGpVLb-KJACdKy2U-19">
          <mxGeometry width="50" height="50" relative="1" as="geometry">
            <mxPoint x="340" y="300" as="sourcePoint" />
            <mxPoint x="390" y="250" as="targetPoint" />
          </mxGeometry>
        </mxCell>
        <mxCell id="gcMvkGpVLb-KJACdKy2U-41" value="" style="group" vertex="1" connectable="0" parent="1">
          <mxGeometry x="120" y="560" width="204" height="140" as="geometry" />
        </mxCell>
        <mxCell id="gcMvkGpVLb-KJACdKy2U-37" value="" style="rounded=1;whiteSpace=wrap;html=1;strokeWidth=3;strokeColor=#000000;" vertex="1" parent="gcMvkGpVLb-KJACdKy2U-41">
          <mxGeometry width="203" height="140" as="geometry" />
        </mxCell>
        <mxCell id="gcMvkGpVLb-KJACdKy2U-33" value="" style="endArrow=none;html=1;rounded=0;exitX=1;exitY=0.75;exitDx=0;exitDy=0;strokeWidth=3;strokeColor=#7EA6E0;startArrow=classic;startFill=1;endFill=0;" edge="1" parent="gcMvkGpVLb-KJACdKy2U-41">
          <mxGeometry width="50" height="50" relative="1" as="geometry">
            <mxPoint x="13" y="20" as="sourcePoint" />
            <mxPoint x="93" y="20" as="targetPoint" />
          </mxGeometry>
        </mxCell>
        <mxCell id="gcMvkGpVLb-KJACdKy2U-35" value="" style="endArrow=classic;html=1;rounded=0;strokeWidth=3;strokeColor=#67AB9F;dashed=1;dashPattern=1 1;" edge="1" parent="gcMvkGpVLb-KJACdKy2U-41">
          <mxGeometry width="50" height="50" relative="1" as="geometry">
            <mxPoint x="93" y="64.5" as="sourcePoint" />
            <mxPoint x="13" y="64.5" as="targetPoint" />
          </mxGeometry>
        </mxCell>
        <mxCell id="gcMvkGpVLb-KJACdKy2U-36" value="" style="shape=flexArrow;endArrow=classic;html=1;rounded=0;strokeWidth=3;entryX=0;entryY=0.5;entryDx=0;entryDy=0;fillColor=#FCE0E1;strokeColor=#000000;" edge="1" parent="gcMvkGpVLb-KJACdKy2U-41">
          <mxGeometry width="50" height="50" relative="1" as="geometry">
            <mxPoint x="93" y="114.5" as="sourcePoint" />
            <mxPoint x="13" y="114.5" as="targetPoint" />
          </mxGeometry>
        </mxCell>
        <mxCell id="gcMvkGpVLb-KJACdKy2U-38" value="&lt;font style=&quot;font-size: 16px;&quot;&gt;Power Flow&lt;/font&gt;" style="text;html=1;align=center;verticalAlign=middle;whiteSpace=wrap;rounded=0;" vertex="1" parent="gcMvkGpVLb-KJACdKy2U-41">
          <mxGeometry x="93" y="5" width="111" height="30" as="geometry" />
        </mxCell>
        <mxCell id="gcMvkGpVLb-KJACdKy2U-39" value="&lt;font style=&quot;font-size: 16px;&quot;&gt;Signal Flow&lt;/font&gt;" style="text;html=1;align=center;verticalAlign=middle;whiteSpace=wrap;rounded=0;" vertex="1" parent="gcMvkGpVLb-KJACdKy2U-41">
          <mxGeometry x="93" y="50" width="111" height="30" as="geometry" />
        </mxCell>
        <mxCell id="gcMvkGpVLb-KJACdKy2U-40" value="&lt;font style=&quot;font-size: 16px;&quot;&gt;Heat Flow&lt;/font&gt;" style="text;html=1;align=center;verticalAlign=middle;whiteSpace=wrap;rounded=0;" vertex="1" parent="gcMvkGpVLb-KJACdKy2U-41">
          <mxGeometry x="93" y="100" width="111" height="30" as="geometry" />
        </mxCell>
      </root>
    </mxGraphModel>
  </diagram>
  <diagram name="HP" id="B5REA7GWqYcUmJKk4_q8">
    <mxGraphModel dx="1882" dy="2047" grid="1" gridSize="10" guides="1" tooltips="1" connect="1" arrows="1" fold="1" page="1" pageScale="1" pageWidth="827" pageHeight="1169" math="0" shadow="0">
      <root>
        <mxCell id="6hjav3M8JsM55SfbyXg1-0" />
        <mxCell id="6hjav3M8JsM55SfbyXg1-1" parent="6hjav3M8JsM55SfbyXg1-0" />
        <mxCell id="6hjav3M8JsM55SfbyXg1-2" value="" style="rounded=0;whiteSpace=wrap;html=1;fillColor=#B1B1B3;fillStyle=hatch;strokeWidth=3;strokeColor=#000000;" vertex="1" parent="6hjav3M8JsM55SfbyXg1-1">
          <mxGeometry x="680" y="40" width="40" height="490" as="geometry" />
        </mxCell>
        <mxCell id="6hjav3M8JsM55SfbyXg1-3" value="" style="rounded=0;whiteSpace=wrap;html=1;strokeWidth=3;fillColor=#f5f5f5;fontColor=#333333;strokeColor=#000000;" vertex="1" parent="6hjav3M8JsM55SfbyXg1-1">
          <mxGeometry x="160" y="40" width="520" height="490" as="geometry" />
        </mxCell>
        <mxCell id="6hjav3M8JsM55SfbyXg1-4" value="" style="rounded=0;whiteSpace=wrap;html=1;fillColor=#B1B1B3;fillStyle=hatch;fontColor=#333333;strokeColor=#000000;strokeWidth=3;" vertex="1" parent="6hjav3M8JsM55SfbyXg1-1">
          <mxGeometry x="120" y="40" width="40" height="490" as="geometry" />
        </mxCell>
        <mxCell id="6hjav3M8JsM55SfbyXg1-6" value="" style="triangle;whiteSpace=wrap;html=1;rotation=-90;strokeWidth=3;fillColor=#f5f5f5;fontColor=#333333;strokeColor=#000000;" vertex="1" parent="6hjav3M8JsM55SfbyXg1-1">
          <mxGeometry x="354.75" y="-370" width="130.5" height="680" as="geometry" />
        </mxCell>
        <mxCell id="6hjav3M8JsM55SfbyXg1-8" value="" style="shape=image;verticalLabelPosition=bottom;labelBackgroundColor=default;verticalAlign=top;aspect=fixed;imageAspect=0;image=data:image/png,iVBORw0KGgoAAAANSUhEUgAAAgAAAAIACAYAAAD0eNT6AAAACXBIWXMAAA7DAAAOwwHHb6hkAAAAGXRFWHRTb2Z0d2FyZQB3d3cuaW5rc2NhcGUub3Jnm+48GgAAIABJREFUeJzt3XecXXWZ+PHPDElIQioBQlNCByMoAtIEabKiYsGyKFjZFQUVxMXexZVlXezuD7uggCKioKiIgA1ButKS0HsPySQhpMz8/vjOLEMyk5l7z3PKPefzfr2+r0TMPOc559473+ee8y1ddIYpwDbAtsD2/X/fCFgHmNr//68DTCgrQUlSIzwJLAYWAgv6//4AMAe4pf/POUBPWQmOVlfZCQxjJrDfoLZ1uelIktSSecAlwMX9fz5cbjqrq1IBsB3wZuBVwOySc5EkKUofcCPwC+B0YG656SRlFwDTgDcAbwH2pPx8JEnK29WkQuBMSrwzUFaHOwt4P/Dv+NxektRMy4CfAJ8jPTIoVNEFwJbAB4F3AGMKPrYkSVXUC5wDfAq4uaiDFlUAzAROBo4Augs6piRJnaQX+CHwIeCRvA+2Vs7xu0kD+84D9sBn/JIkDacL2In0eHwpcBVpAGFuB8vLC4BTgV1yPIYkSXV1JXAUcG0ewfO4A9AFHEsa2PCsHOJLktQEmwBHkgYLXhYdPPoOwFTg28Drg+NKktRkvwTeDsyPChhZAOwKnA1sFhhTkiQld5C+YF8dESyqADgAOBeYHBRPkiStbjGpCPhN1kARYwAOJ33zd0EfSZLyNY5UANwO/DNLoKwFwHtJI/1d1EeSpGKsBRxKuhvQ9uDALAXAMcDXcG6/JElF6wIOIm07/Ld2ArRbALyJNNrfzl+SpPIcBNwJXN/qD7bTgR9Mmo4wto2fzaoHuAKYQ1oveR7wGLCQdCvkyRJykiQ1xwRgHWAKMAPYhrSd/XbAbsCkEnJaBhwCXJjnQXYFFpGWJiyqXQl8lLSUsGMNJElVNYa0tf3HSVP1iuwre0gr8OZiOuk2QxEn8gDwBWD7vE5GkqSczQZOAh6kmL7zdmBa9El0AT8vIPm7SMsIT4w+AUmSSrI28E7gbvLvR88jeHzecTknvIDU8ZcxrkCSpCKMA44njVvLs099b1TCOwNP5ZjoGcBGUclKklRxm5A2zMurX10KPD9rkt3A5TkluBB4Y9YEJUnqUK8FniCfPvZKUh/etqNzSuxaYOssiUmSVAPbkubw59HXHtVuUjOBx3NI6A+k+ZOSJCmtHfBb4vvbx4EN2knohzkkcyZpEIQkSXraOOAs4vvd77WayPbAyuAkziTj8whJkmqsm/giYAXpMcOonRacwB9I8yAlSdLwxhL/OGDUdwG2AJYHHvhaylkbWZKkTjSZ2IGBy4BZoznwqYEH7SFtkCBJkkZva9IieVH98TdGOuAM0gICUQc8LMvZS5LUYG8irj9+Elh3TQc7JvBgZ2Q+dUmSmi1yUOC713SgK4IOsgDYOPt5S5LUaBsSt1rgZYMDD94xaDvg5qCEjwO+EhSrHesD+wDPIZ3XJqSBiNMI3iVJklQbfaTOdhFwH3ALcCPwZ+CREvM6HvifgDh9pCmB8+CZneHngY8GHOAeYCvSqMMibQG8GTgU2AE7eklSjD7gn8A5wOnAHQUffyyp094sINZngU+t+h9vIOYWwzEBCbZiX+BCoDdj3jabzWazjdR6gd8BL6ZY7wvIvQ+4biDgwLfkmcADZP/W/CDpm/iTGeOMxo7A10i3+iVJKtqlwHtJX6DzNoF052Fmxjh9/TEeGViad39ibpl/n/w7/3HAycDV2PlLksqzL3ANcBL573PzJPCDgDhdpLz/b23+/QKCQv5T/55NqrhOAMbkfCxJkkYyFvgQ8FfSHfA8nRYUZz+ILQCuIt/bILv0H2OPHI8hSVI7dgGuJN8+6ibSHYesDoBUAEwhjdrP6tyAGMM5ALiENL1PkqQqWpc0KH3/HI8R0dduDUzqpsVtAtfg4qA4q9oV+AVuKCRJqr5JwPnkdyfgkoAYXcDWUQVAD2lQXrQtgAuw85ckdY6JwC8Z5Q58Lfo7aaGirLaLKgCuIG0hHGks8CNgveC4kiTlbX3gp8TPDlhOKgKy2jaqALglIMaqPo8D/iRJnWtX4DM5xI3oc7ftJmbTnugC4Lmk/QQkSepk/0FauC7SnIAYG3UT83x9XkCMwb5BegQgSVInGwN8KTjm3IAYU7qByQGBHg2IMWA/XOFPklQf+wN7B8Z7LCDG5KgCIGJE4oCPBMaSJKkKPhYYa2FAjLACoCcgBqQpEwcGxZIkqSoOAjYPihXR504eA4wPCLQ0IAbAW4nZlGiwucDPSdMmHgKeCo4vSaqHtUk75e0GHEpaMS9KF3A4cGJArIhN9yZCzP7C0wOSAbg+KJ8+0tbEh/P0fgeSJI1WN3AE6YtjVL90bVBu04PyqUwBsD7QG5TPDaSdAyVJymIz4EZi+qaVwIyAnGpXALw2KJcHsfOXJMWZBTxMTB/1moB8QgqAKt0enx0U53jg7qBYkiTdSVrQJ8JzguJkVqUCIGJJ4rnAWQFxJEka7EfArQFxtguIEaJKBcCmATF+ThpHIElSpF5SH5NVRF8XokoFQMR6BBE7JEmSNJQrA2JE9HUhqlQAROxJ8FBADEmShnJ/QIwpATFCVKkAWCsghov8SJLyEtHHRPR1IapUAEiSpIJYAEiS1EAWAJIkNZAFgCRJDWQBIElSA1kASJLUQBYAkiQ10JiyE6iRbYGXApsD40mLEl0BXAwsLTGvVY0F9gL2AWaStqe8B/g9cF2JeUmSClaV7YBvC8hj54A8WrUzcNEacnqEtENh2cVWF/AO0q5Ww+V6JbBfSflJUtXtTPZ+6raAPEK2AyYoSFMLgHeQvt2PJreLiLlO7ZgAnDmKHPtIdwQ+Wk6aklRpFgBDtCYWAMeRdodqJb+/AOMKzBFS5//7FvPsI921kCQ9zQJgiNa0AuBYWu/8B9qnC8oRUud/YZt5rgB2LDBXSao6C4AhWpMKgCydfx+wEFi3gDyzdP4D7dwC8pSkTlGrAsBpgK05DvgSaUBduyYDh8SkM6wJwHnASzLGeTkwLXs6kqSqsQAYvWOBU8jW+Q/YOyDGcCYAvwQODIg1FtgtII4kqWLKnprWKY4l+zf/wTYNirOqgc4/6zf/wfLKVVLrxpEeIc4g/T5aDDwK9JSZlDqTBcDIjiPum/+AZYGxBgzc9o/45j9YHrlKGtlM0qJdewF7ArNJjxCH8hgwB7gGuAS4FHg8/xTV6RwEOLysA/6Ga98IzjNiwN9w7cXBuUoa3jjg9cBvSWtytPu5XQ6c3x9rbKFnUG+1GgRIUJA6FgBHkU/n3wccGphnu/P8R9MWAWsH5ippaONJC3A9Qvzn+E7gmP5jKBsLgCFa3QqAPUkVdB6d6r3EfRDz7Pz7gG8G5SlpeIcAt5Pf53ig3Qq8rKBzqisLgCFa3QqAawJyGa69PSjHPG/79wHzgU2CcpW0uhnABeT3GR6u/RCYVMD51ZEFwBCtTgXAiwLyGK59PyA/yL/zXwm8IihXSavbBbiD/D7DI7Wbge1zP8v6sQAYotWpADgxII+h2jnEDMbJ+7b/SuCtAXlKGtobgCfJ7zM82vYYsEfO51o3FgBDtDoVAD8LyGPVZucvCeCVpKm1eX2GW22LcaZPKywAhmh1KgCin8nZ+UuCtEZHFb75r9oWADvleN51UqsCwKWAV/dIYKyfA4eRZhRkkdciPwN6gXeQBgdJirc1aXOtKk7Fm0L6/bJe2YmoWBYAq7s6KI6dvyRIK66eTrVH3m8KnIZ9QuNE3EKq0yOAZ5F9DQBv+0sakNfA4jzau3O6BnVRq0cABAWpUwEAabpeuznY+UsaMBtYQXEdeNb2OLBBLleiHiwAhmh1KwBmAHe3cXw7f0mD/YTiO/GsLXqvkjqxABii1a0AgLRIxn0tHPs07PwlPW022Tb0KastBTbO4XrUgQXAEK2OBQDAhoy8LsAjwNFBx7Pzl+rjTMrvzNttJ+VwPerAAmCIVtcCYMAOwBdI+2zfDFwJnA0cSZpCE8HOX6qPycAS8vksLyc9oryH/O4w3AesFX5VOp8FwBCt7gVA3uz8pXo5jNjP8FLgVNJeJWMGHWcicDDpC0l0MXBQ4PWoCwuAIZoFQPvs/KX6OYe4z/BVwLajOObuxG4r/OW2z76+LACGaBYA7bHzl+qnG+gh5jP8R2CdFo69IekxZcSx/9H6qdeeBcAQzQKgdXb+Uj1tScxn+D5g3TaOvw2wKOD4vcSNcaqLWhUALvtYDpf3leprdlCcD5IW5mnVXOCLAcfvIhUTqikLgOLZ+Uv1FlEAPEBaRKhd/0v2fUjAAqDWLACKZecv1d+GATF+T1pCuF0PkQYPZrV+QAxVlAVAcez8pWaIWBH0xorEcAxAjVkAFMPOX2qOcQExFgfEWBQQY+2AGKooC4D82flLzTJm5H8yonZG/69qZkCM+QExVFEWAPmy85ea5+GAGDsFxHheQIzHAmKooiwA8mPnLzXTHQExDiLtJ9CubYHnBORhAVBjFgD5sPOXmuvOgBjrAO/J8PMfD8gBYs5FFeZKgLFc4U9qti2I+awvBrZv4/gHE7Mx0ALcEXBVrgSoYfnNX9LtxDwGmAj8Bti8hZ/ZHTiDmLu7l5MKCdWUBUAcO39JAy4MirMZcCXwhhH+3VjgWOASYFrQsS8LiqOKipiuIjv/TjGRzprX/ATpVl0n6yKuQ4qwBHiqgONcCBwVFGsGaVngjwCnAX8hbRQ0Dng26ffOm0ibEEU6JzieKsYCIDs7/+oaD7wNeB2wK525qtljwBzS7dgLgT+QbYnYPI0BXtLfdgO2I2Y+e7SnSNf0etI35l/S3qY7a/Ib4FFgvcCYz+9vRbgcuKGgY6lEDgJsnwP+qms/4C7ye23Kag8An6ZaHet6wGeBByn/+rTTlgJnEd+5nliBc2u3/VvwtaiLWg0CJChIEwsAO//qeiOwjPJ/iebZ5gPHUO44nm7gfTz9qKLTWy/wfeK+tW9MuttQ9nm12h4h2xoEdWYBMERrWgFg519duwJPUv4v0aLa7yhnx7YNgIvayLcT2n3Ai4Ou07cqcD6ttmOCzr2OLACGaE0qAOz8q6uL9Oyy7F+gRbd5pLnnRdkSuDWH86hSe4p0JymrdUlb85Z9PqNtN+HYsDWxABiiNaUAsPOvtn0o/xdoWe1OYJPMV3Bkm5DmuJd9vkW0lcDrA67ZERU4l9G0XtIATg3PAmCI1oQCwM6/+r5I+b9Ey2xXk2Y+5GU8cG0FzrPItpSY3yu/rsC5jNS+EHCedWcBMESrewFg598ZfkX5v0TLbl/OfBWH99UKnF8ZbR5pDYksppCmHZZ9LsO1P+Cyv6NhATBEq3MBYOffOS6j/F+kZbcVwAuyXsgh7NIfu+zzK6udmP0SshlpGmfZ57Jqm0c5A0k7Ua0KAJcCXjMX+eksj5adQAWsRZqTH+1zNPsb4vtJMx+yuAs4hGptsXszacbDI2UnouJZAAzPzr/zuHJZ8jJgdmC8HYCXBsbrRBOBowPiXEVaJXFOQKysriN1/veXnYjKYQEwtG7gR9j5d5pflp1ARXQR+1gpMlYnewvp2mZ1G/Ai0pr+ZTkL2Be/+TdexDOkuo0BOCEgl+Gaz/zzVdfFaVptN2W9kIPMrcD5VKXtkPFaDjaGtIPfogLzXwC8M/AcmqZWYwAIClKnAmBd8lva1M4/f7OBhRT3C7XKbWbGawmwUQXOo0rtPdku55C2Iv/CdSXwY2BWDvk3Sa0KAB8BrO51wNQc4nrbvxg3AoeRtn1tuohxAJFjCeogj+txK+lx497A2aTOOkofaXrszsDhpAWjJMAxAEPJ47m/nX+xLiD9Mv1H2YmUbLOKxKiTWTnG/gvwBmB70qJWN7YZp4+0JPYJpCWiDyEN+JOewTWfV/fs4Hh2/uW4BtgJeC3prs4LSbez1y4zqYJF3MmaEhCjToq4HvNInfcJpKWX/4W0VfGs/rYxT395WwL0kKbz3QT8k7Qexj0F5KkaiHi+VKcxAFcG5DH4udtbA3JS85xK9vffhwLy+FBAHqcG5BHhQLKfy1WFZ60qcQxAzT0QFMdv/pKkyrIAWN2fAmLY+UuSKs0CYHU/A5Zn+Hk7f0lS5VkArO5O4Ftt/qydvySpI1gADO0E0t7qrbDzlyR1DAuAoT0JvJI0I2A0FpOmmtn5S5I6ggXA8O4H9gE+SVpadjjnkaaGnFtEUpIkRXAhoDVbStoH/RTgAGAXYEPSN/65pBXn7iotO0mS2mQBMDqLSd/0zys7EUmSIvgIQJKkBrIAkCSpgSwAJElqIAsASZIayAJAkqQGsgCQJKmBLAAkSWogCwBJkhrIAkCSpAayAJAkqYEsACRJaiALAEmSGsgCQJKkBrIAkCSpgSwAJElqIAsASZIayAJAkqQGsgCQJKmBLAAkSWogCwBJkhrIAkCSpAayAJAkqYEsACRJaiALAEmSGmhM2QlIJXo+sC/wPGAbYAowscyEBlkvIMaygBiSasoCQE0zBXg38A5Sp19nPWUnIKm6LADUFGOAY4BPA9PKTaUwd5edgKTqsgBQEzwbOAvYo+xECnZz2QlIqi4LANXdzsAFwAZlJ1Kwu4B7yk5CUnVZAKjOdgYuJj33b5pflZ2ApGpzGqDqalPSN/8mdv4Ap5edgKRqswBQHXUDZ9C82/4D/gJcUXYSkqrNAkB19E5g77KTKEkf8Imyk5BUfRYAqpuJwGfLTqJEPwYuLTsJSdVnAaC6ORJYv+wkSnIb8J6yk5DUGSwAVDdHlp1ASRYAh/b/KUkjsgBQnWxJWte/aR4BXgL8o+xEJHUOCwDVyb5lJ1CCfwB7AVeWnYikzmIBoDrZsewECrQc+G9gd2BeyblI6kCuBKg62bLsBAqwjLSvweeBuSXnIqmDWQCoTqaWnUBO7gMuB34P/Ax4rNx0JNWBBYDqZEJAjKOBvwfEiTCfNMCvp+xEJNWPBYD0TPOAq8tOQpLy5iBASZIayAJAkqQGsgCQJKmBLAAkSWogCwBJkhrIAkCSpAayAJAkqYEsACRJaiALAEmSGsgCQJKkBrIAkCSpgSwAJElqIAsASZIayAJAkqQGsgCQJKmBLAAkSWogCwBJkhrIAkCSpAayAJAkqYEsACRJaiALAEmSGsgCQJKkBrIAkCSpgSwAJElqIAsASZIayAJAkqQGsgCQJKmBLAAkSWogCwBJkhrIAkCSpAayAJAkqYEsACRJaqAxZScgBVoZEOMTwDsD4hShB7gbuAj4G9CbwzEirumBwE8D4mQ1MyBGxPWQKsECQHWyKCDGPgExivZpYA7wYeAXwbEjrukW/a0OFpadgBTFRwCqkwfLTqBE2wLnAqcQ+7lu8jUdykNlJyBFsQBQncwpO4EKeD/wmcB4XtNnuqXsBKQoFgCqk7+VnUBFfAzYIyjWHODRoFh1cFnZCUhRLABUJ38FFpedRAV0AScGxeolDTJUGnRpAaDasABQnSwBfl52EhWxL7BRUKwzguJ0up8DS8tOQopiAaC6+VrZCVREN3GPAS4A5gXF6mTfKDsBKZIFgOrmSuDXZSdRERsHxVkJfD4oVqc6n/TekmrDAkB1dBzeqgVYFhjrNJr7/HspaXaFVCsWAKqjW4EPlJ1EBdwZGKsPeAuwIDBmp3g/cFvZSUjRLABUV98Evld2EiVaAvwlOOZtwBHAiuC4VfYd4P+VnYSUBwsA1dlRVGMN+jKcSSoCov0KeBvNKALOAt5ddhJSXiwAVGcrgDcCXyLdwm6KhaT9AfLyY+BVwBM5HqNMfcAXgcNpRqGjhrIAUN31AscDhwIPlJxLEVaSOq57cz7OBcALgEtzPk7R7gNeDZxAPrsrSpXSF9CmB+RxW0AeOwfkofqaAnyO9M014n1ftTYfeFnY1RqdLuBfgRsy5l52m0/aQ2Fy7OVRzexM9vdaxIDS6QF59BEUxAJAnWQy6Tn2r0i3y8vufCI6r68Ts999u7pJqw9+mzT7oOxrMpq2EDiPNLthUvQFUS3VqgAYE5CI1Gl6gB/0tzGkveq3AaYC65SWVesWAHcDVwHLS86ll/Q44NL+/70RsB2wHjFfEKIsJl23OcAd+IxfDWYBoKZbAcztb4rzAM0YcyF1LAcBSpLUQBYAkiQ1kAWAJEkNZAEgSVIDWQBIktRAFgCSJDWQBYAkSQ1kASBJUgNZAEiS1EAWAJIkNZAFgCRJDWQBIElSA1kASJLUQBYAkiQ1kAWAJEkNZAEgSVIDWQBIktRAFgCSJDWQBYAkSQ1kASBJUgNZAEiS1EAWAJIkNZAFgCRJDWQBIElSA1kASJLUQBYAkiQ1kAWAJEkNZAEgSVIDWQBIktRAFgCSJDWQBYAkSQ1kASBJUgNVqQDoC4ixVkAMSZKGEtHHRPR1IapUACwJiLFBQAxJkoYyMyDGooAYIapUACwMiLFdQAxJkoayfUCMnoAYIapUADwcEOOVATEkSRpKRB/zUECMEFUqAOYGxNgb2DMgjiRJg+1OTP8yJyBGiCoVALcExfkKMD4oliRJE4BvAl0BsSpTAEAakZi1TQ/IY+ugXPqAM4GxATlJkpptHPAT4vqnLQJymh6US2UKAIC7g/LpAy4FNg/KS5LUPFsAfyKuX7ojKK9aFgDfDMpnoC0FTgVeAkwLylGSVF/TgIOAbwFPEdsnfT0ox5ACoKv/L1mtC8wPiLMHcFlAnOEsIb2gkiStam1gYo7xdweuCIgzHXg8a5CqFQBdwI3EzLWUJKkqbgJmB8UKKQCqNAsAUjFyctlJSJIU7KSyE1hV1e4AQBq9PwcH8EmS6uE20kq1K4Li1fIOAMBy4ANlJyFJUpD3E9f5h6liAQBwLvDrspOQJCmj84Dzy05iKFUtAACOBB4oOwlJktr0EPCuspMYTpULgIeAtwAry05EkqQWrQTeRIW/yFa5AAC4CDi67CQkSWpBH+mb/8VlJ7ImVS8AIK3G9LGyk5AkaZQ+Bnyn7CRG0gkFAMB/Au8BestORJKkYfSRZrF9oexERqNTCgCAbwCvAxaUnYgkSauYD7waOKXsREarkwoASNMDX0DMWsqSJEX4G6lvOq/sRFrRaQUAwO3AnsBbgUdLzkWS1FxPAMcBewN3lptK6zqxAIA0FuA00tKKnyVuGWJJkkYyH/gMsCXwFTp0unoV9wJox2Tg9aR1A/YhnZckSVF6gT+Rvnz+DOgpMZdabgccYX1gX+DFpK0XtwM2LDMhSVLHeYC0Md2NwKX9rSqPnS0AWrAWMAWYSuc+9pAk5auXNNNsIdW+rR9SAIwJSKQTrCQVKFUuUiRJKozfhiVJaiALAEmSGsgCQJKkBrIAkCSpgSwAJElqIAsASZIayAJAkqQGsgCQJKmBLAAkSWogCwBJkhrIAkCSpAayAJAkqYEsACRJaiALAEmSGsgCQJKkBhpTdgKSCjUDeA2wL/Cs/v92N3ApcC7weClZSSpFX0CbXnjWkloxBvgk0MPwn+OFwMfxi4FUddOJ6bstAKSamwz8ntF/ni8EJpWSqaTRsACQNKJu4Dxa/0yfi2OEpKqyAJA0onfQ/uf6zSXkK2lkFgCS1qgLuIP2P9e39ceQVC0hBYC3+KT62gWYleHntwB2iklFUtVYAEj1tWtAjBcGxJBUQRYAUn3NDIixYUAMSRVkASDV16KAGD0BMSRVkAWAVF+3VySGpIpyFoBUT1OBp2j/c70UmFJ41pJG4iwASWu0ADgjw8//mLQ8sKSa8g6AVF/PIm3w0+pn+jFgkxLylTQyFwKSNCoH0dqjgKXAgaVkKmk0LAAkjdpewH2M/Fm+F9izpBwljY4FgKSWTAI+BtzC6p/hm4GPAuuUlp2k0QopALr6/5LVusD8gDiSirER8Oz+v98NPFBiLpJaM500tieTMQGJSOo8D2CnLzWa0wAlSWogCwBJkhrIAkCSpAayAJAkqYEsACRJaiALAEmSGsgCQJKkBrIAkCSpgVwISE0yEdgRmAYsIS1/+0ipGals6wNbk5ZJfpS0TPKSUjOSCuReAKq7PYHzgGWs/t69Ajgc6CotOxWtC3gDcDmwkme+H5YA5wI7l5adNDI3A5JGMBb4KtDLyO/hS4CZ5aSpAs0ALmLk90MvcDKwVjlpSmtkASCtQTdwNq29j28m3RJWPc0gvcatvCfOxLtDqh4LAGkNTqC99/L5ZSSrQlxAe++JD5SRrLQGFgDSMNYDemj//fwvxaesnL2M9t8PPaQtz6WqCCkAnAaoOjqCNKq7Xe+KSkSV8e4MPzsJeHNUIlJVOA1QdXRQxp8/kDSGoDcgl7J0ARsBzwI27f9zOrA2MJn02Z/W/++WAE8By0lT4R7rb/cCdwL3kUbLd6q1gP0yxngJ8JWAXKTKsABQHW2T8ecnkTrP+wJyKcJGwPNXabOAcUHxl5MKgX8A/+z/8wrg/qD4edsEWCdjjK0iEpGqxAJAdbR2QIyozjMPGwAHkO5UvIT07T5PY0mL5WwNvHbQf78D+CtwKfAbqlsQRLyWVX4/SG1zEKDq5kqyvZ97SasGVsn2wGeAaxndugZltOuAE0mrLVbJZLJfs8sLz1oanrMApGF8nWzv5+uLT3lIs4APkzrWsjv3VttNwCfJ/+7EaN1ItvP5avEpS8OyAJCG8SKyvZ8/UnzK/6eLNA3xAlZfprYT2wrgV8ArKXfzsU+Q7Tz2Kj5laVgWANIajGa516HaQ5Tzfp4EHE3rK9V1UptLmmI5IeiatWI6aYZDO3lfWEK+0ppYAEhrsAVpp79W3scrgVcVnOd44Hjg4RZz7eT2UP85F10IvIbW76o8SnoUI1WJBYA0gl1IU/lG8x5eCrytwNzGkr4N3zvK/OrY7iPd9ShyNtK/kaY1jrZQ2aXA3KTRsgCQRmFj4Mes+ZvfZcCuBeZ0MHDrGvJpWruB7Is3tWJP4Oo15NML/JS0foBURSEFQFf/X7JaF5gfEEfKy1bAq0mL5GwALCQ9b78A+FtBOWwMfBl4fUHH6zS/AN5DMQswdZEGix4MzCZN+3yMNM3yHFKBJlXVdOAaJm55AAASlklEQVTxiEDeAZDy1Q28D1hA+d+2q96eID0acQteaXg+ApA6wEzgt5TfsXZa+wPegpeGYwEgVdyraX/qmS1du1e3fNWl+rMAkCpqPPC/lN+B1qX9D+5bIg1mASBV0EzSrIKyO826tUtIgzclWQBIlbMDaYe8sjvLurZ7SbM4pKYLKQDKXJtbqpNXkLbGnVVyHnW2CelOwAFlJyLVhXcApGyOIG16U/Y35JWkRXW+DbwdOD0g5un9sb7dH7sKGxQ9BbxuVK+MVE8+ApAq4EjK7RQfA74HHAJMXSW3kwLin7RKzKmknf2+33/sss57BfCW1V4NqRksAKSSHU1aNrbozu8J4FTS8rlj15BfHgXAYGP7c/hWf05FX4eVpLX9paaxAJBKVEbnPwc4hrR18GjkXQAMNpm0jO/cgq/JSuBNo8xRqgsLAKkkh1Lsbf9LSGvWt7o8bpEFwIBu4OXAHwOOPdq2nOK3cZbKZAEglWA3YDHFdGw3k23joDIKgMEOBK4PyGE07Ulgjwy5Sp3EaYBSwbYn7R44MefjPAgcBTwXODvnY+XpImBn0uY+D+Z8rPGk3QS3yPk4Uq14B0Aa2XTgNvL/JvtDYFpQzmXfARhsOjHTEkdqN5HGI0h15h0AqSBdwHfJ99vlw6SxBW8ljaivm/nAm0njA+7P8TjbkwoNtxOWRmABII3sg8Brcoz/S2A2cG6Ox6iKC0jL+Z6f4zFeBZyQY3ypNnwEIA3vxaRR5nncru4l3WLPqxCv0iOAVXUBHyK/qZTLgd1zyl0qm7MApJxNI21Ak0cHtZhsI/xHo8oFwIDDgCUBeQ7V5jH6NROkTuIYAClnXyRtQBPtIeBFdPYI/yhnAXuTxkBE2wr4Ug5xpVqwAJCGtj/wjhziPkTaze7aHGJ3qquBfchncOCRpPUIJK3CAkBa3Tqk9e2jR5I/SCosbgyOWwdzSNcmugjoIr2W6wTHlTqeBYC0us8AWwbHvI90q/um4Lh1klcRsDnwkeCYUsezAJCeaQvgvcExF5Hmv98aHHckKysSoxVzSFsbLw6O+wFgVnBMqaNZAEjPdBIwLjBeL3AEaU38oj0UEOOBgBitugb4V2KLj/HAyYHxpFpwGqCU7E78vPTjCz2DZ9p/DXmNtu1bdNKDnDBMTlmaawOoDlwHQAr2Z2I7m9OKTX81Y4HHaD//R4ExhWf9TD8i9jW5sNj0pVxYAEiB9iO2o7kdmFLoGQztY7R/Dh8qId9VTQXuIPa1eXGhZyDFswCQAv2auA5mBWmhnyqYCFxH6+dwDTChhHyHsjfpmka9Pr8rNn0pnAWAFOS5xD77P7HY9Ee0Ga1tZTwPeHYpmQ7vP4l7fXqBHYtNXwplASAF+T5xncvNpGfvVTMDOIeR8z8bWLekHNdkHGmKYNTr9MNi05dCWQBIATYEniKuY3lZsem3bHfg66TVCHv62w3A14DdSsxrNA4h7nV6Cli/2PSlMBYAUoD/IK5T+X3BuTfRb4l7vcqcoillYQEgBbiemM/AcmB2wbk30fbAMmJes1uI3+9BKoIFgJTRC4j7NvntgnNvsu8R97q5MJA6kQWAlNFXiXn/95K+maoY25GWCY547U4pOHcpggWAlEE3aa38iPf/uQXnLjifmNfuHtwTRZ3HAkDK4IXEvPf7gD0Lzl2wD3Gv3x4F5y5lFVIAWPmqqaKm6/0duCwolkbvT6TVCiNUfeqmlAsLADVV1C/904PiqHU/Corz0qA4UsfxEYCaZgNiBpGtAGYWnLuetjExewSsxEWB1Fl8BCC1aT9i7n79gTSQUOW4H7gkIE431dm8SSqMBYCa6IVBcc4MiqP2Rb0GewXFkTqGBYCaaNeAGH3AbwLiKJuo18CZHGokxwCoSdYCFpH9PX9j0YlrWLeQ/fVcQnpvSJ3AMQBSG54LrBMQJ+LZs2JcGhBjArBVQBypY1gAqGl2CIrzx6A4yu7SoDg7BsWROoIFgJpmi6A4fw6Ko+z+EhTH/RzUKBYAaprNA2I8ATwYEEcx7gUWBsSJeG9IHcMCQE0TcQfgloAYijU3IIYFgBrFAkBNE1EAzAmIoVgRRdmsgBhSx7AAUJN0ARsFxLEAqJ6I18RlndUoFgBqkknEzPW+OyCGYt0VEGM8MVNEpY5gAaAmmRoU54mgOIqzICjOekFxpMqzAFCTRBUAESPOFSuqAIh6j0iVZwGgJpkWFMc7ANUTVQCMC4ojVZ4FgJok6pe7dwCqJ6oAGB8UR6o8CwA1yYqgOL1BcRQn6jXxDoAawwJATbIyKM6EoDiKE/WaPBUUR6o8CwA1SdQdgIlBcRQnqgBYEhRHqjwLADWJdwDqywJAapEFgJqkJyiOdwCqJ6oAeDIojlR5FgBqkoeD4mwYFEdxIpZ4Bu8AqEEsANQkTwBLA+K4a1z1bBkQYxnweEAcqSNYAKhpHgmIYQFQPRGvyb04xVMNYgGgpol4DBCxpbBiRbwm9wTEkDqGBYCa5s6AGBG3mxUrogC4NyCG1DEsANQ0NwfE2BTYICCOYmwEbBIQxzsAahQLADVNRAHQBewZEEcx9gqKc2NQHKkjWACoaSIKAIjrdJRd1GtxbVAcqSNYAKhpbiFmpLcFQHVE3I1ZCswJiCN1DAsANc2TxNzqfQEwKSCOspkC7BQQ5wbi9oqQOoIFgJrozwEx1gZeHhBH2RwCjA2I4+1/NY4FgJror0FxXh8UR+2Leg3+GBRH6ih9AW164VlL7duUmPf9YmCdgnPX0yaTHulkfR17idtLQCrCdAJ+h3kHQE10L3BXQJyJwMsC4qg9hwDjA+LcADwQEEfqKBYAaqpfB8U5MiiOWhd17S8KiiN1HB8BqIkOJOa93ws8p+DcBTsQ8/r1AQcXnLuUVcgjAIKCWACo04wFHiPm/X9qwbkLvkvMa/c4MK7g3KWsLACkjE4j5v2/BFiv4NybbH1iBv9ZvKlTOQhQyuicoDgTgPcGxdLIjiVm8B/AT4LiSB3JOwBqqjHAfcTdBdi02PQbaRNgETGv2f3AWsWmL4XwDoCU0Qrgh0GxJgCfCoql4Z1I3NoLPwJWBsWSOpJ3ANRkm5M6gYjPwQrS6HTl43nEvlabF5u+FMZBgFKQ3xPzOejrj9VVbPqN0AVcStzrdG6h2UuxLACkIK8grmPpA95VbPqN8B5iX6P9ik1fCmUBIAXpIu0GF9W59ABbFHoG9bY1ad+FqNfnH8WmL4WzAJACvY7Yb5h/xRHmEbqBPxH72ryh0DOQ4lkASIG6gRuJ7Wg+XugZ1NOniH1NrsU9UNT5LACkYG8ktrNZCby60DOol9eS9lqIfE1eUegZSPmwAJCCdQF/IbbD6QF2LPIkauJ5xC34M9CuwBkaqgcLACkHuxH/rfMO0vr1Gp2ZwF3Evga9wIuKPAkpRxYAUk5+QGzn0wdcB8wo8Bw61TTgKuKv/3eLPAkpZxYAUk42Jt26j+6ErsLPypqsC1xD/HV/FHdrVL1YAEg5Opr4jqiP1MGtW+B5dIqpwN/J55ofWeB5SEWwAJBy1AVcSD4d0tWkuwxKNiGfb/59wB9x4J/qxwJAytkmwOPk0zHdB+xS3KlU1vOAu8nnGs8HNivuVKTCWABIBXgL+XROfaRpbk1eJ+C1xC7xu2o7rLhTkQplASAV5HTy66RWAv8JjC3sbMo3Dvgv4qdbDm7fKuxspOJZAEgFmUB+z6gH2lXA9kWdUIlmE7vx0lDtn8DEok5IKoEFgFSgWcAj5NtxLSFte1vHteq7gWOBJ8n3Gj4MbF7QOUllsQCQCrY/sJx8O7A+0iyBvQs6pyLsBvyN/K/bMmDfYk5JKpUFgFSCd5Lvs+uB1gucRWePYt8c+Cn5X6uB9pZiTksqnQWAVJIPU1yntgT4OrBFIWcWYyvgm+R/u39w+3QRJyZVhAWAVKKTKa5z6yPNFjgf2KOIk2vTTsBpFPOYZHA7pYiTkyrEAkAqURfwHYrt6Aba5aQBdRvmfpYj24iUyxWUcy2+nP8pSpVjASCVrBv4BuV0fH3ACuAi4N8odqzALODfgT/051DW+X8Tl/lVM1kASBXxOcrrBAe3O0hbGb8N2JaYxYXG9sd6O/BD4M4KnGcf8AXs/NVcIQVAV/9fslqXtO621FTHkZ5FV6lTWk4qCuYCc0j7D/QAC/pbT/+/m0zajW9q/983BbYhdfyzqNYqhStJjxy+UXYiUommk/YpySxipO5GEYlIHe5w0qj9sr8d17U9CRw66ldDqq+Nyf55Wgxp5aysgbbJ91yljrEzcBfld5Z1a/dQ7RkQUpG2I/tn6sFunr4NmMWkgBhSHVwNvIA0OE8xLgF2Ja0mKCk9qsuqJ6oAWC8ghlQXjwEHA/9NWtFP7eklLfBzIPBgualIlTIjIEZPN2lP8qx8BCA90wrgg8B+pIF4as2dwEuAz2ARJa1q24AYC7uB+wMCRSQj1dGfgOcCXyU9d9Oa9QHfAnYELi45F6mqIvrc+7tJ04OyasI+5lK7lpCmrh1MmpKnoc0j7eZ3FDGPJqW62i4gxlyAI8g+mrCHas0VlqpqHPAfpHn4ZY+sr0p7grTB0oQM11VqinGkR/dZP3eHQRpdG/Eh3jPPM5ZqZibwXdLCNmV3wGW1ZaSdDtfPeC2lJtmbmM/fTpCmE0Tsb/7xPM9YqqntSEvsFr2DXpltBXAmDh6W2vFJsn8Gexk0fX9uQMCrcztdqf42A75CvVcSXEraLtiOX2rfNWT/LN4yOOCpAQH7SKOdJbVvQ+CjwG2U32FHtXuBT+F6IVJWs4n5TH5zcNDDgoJ+IY8zlhqomzQP/mzgKcrvxFtti4HTgYOAtYKvjdRUJxPz+Xzd4KAbEDMO4EEcyStFmwq8EfgpsJDyO/fhWg/wc9J2xBFLlUp62kTgIbJ/TlcyxN24fwYE7gPeG3zSkp42HngZ8CXgSsodPNgL3AB8ETiAND1JUj6OI+Zze+1QwU8MCn4P/iKQijKJp5fMPQe4mTS9Lo/O/k7SN/wPkzr8qfmfniRSnxq1y+inB4J2DTrAtqwyMjCDDwCnBMWS1JqxwNak0fabkubZb0AaYLg+6S7CgPH9/35Bf3ti0J93Arf3tztIYxEkFe8E0vP/rPpIvxduHer/vJyYCmMhsElAspIkNdmmpPE1EX3zX9d0oKODDtIH/CT7eUuS1GhnE9cvv2tNB5pBWqwj6mCHZz51SZKa6c3E9cdPAtNHOuD/Bh6wB3cKlCSpVdsQO+3366M56CxiRxFfj3OCJUkarSnETc3vI/Xpm4324D8IPHAfcDGwdsuXQJKkZhkHXEhsH/ydVhLYlvhtSs8iLW8qSZJW101a8TOy711Bmhbcku8FJzFQBLhIkCRJz7Q28Z1/H/DtdpKZATySQzIXk55vSJKktKLn74jvbx8jLf7VlnflkFAfaWDgtu0mJUlSTWxP7IC/we3fsyTWDfwtp8R6cJ0ASVJzHUHcKn+rtr8TMO5uJ2IXB1q1nQVsnDVJSZI6xKbErvC3alsKPC8q2fflmGgfabGD43GAoCSpvtYmbeyT17f+gXZMdOLn5JxwH/Ag8CFgYnTykiSVZG3gncA95N+Pnp3HCUwjbQuad/IDhcBJwOw8TkSSpAI8F/gv4CGK6TtvBabmdTI7k/+ti1Xb1cAngL1I+5ZLklRFY4EXAZ8ErqXYvnIh8PxWku1q4wQPAs6nnOf1i4ErgFuAOcA84GFSUbKItNuRJEl5mUCatz8ZmAlsBWzX314IrFNCTsuAlwMXtfJD7RQAAIcBP8alfSVJKlMf8Fbg9FZ/cK02D3gD8Cip4pAkSeU4HvhWOz/YbgEAcCVpmcGX0v6dBEmS1Lo+4IPAKe0GiOi4DwXOwO1+JUkqwjLSbf+zsgSJ+ua+P3AubvIjSVKeFgGvB36bNVDUIL6Lgf2AO4LiSZKkZ7oN2JuAzh9iR/FfQ5qD+JPAmJIkCX4B7ApcFxUwehrfQtIUwaOAp4JjS5LUNE8BxwGvAeZHBs5z9P7zgVNJCyNIkqTWXA68C7g+j+B5LuRzHbA7aaTiozkeR5KkOplP+tb/InLq/CHbOgCjdT3wA2A90v7ErhkgSdLqVgLfA14NXEKa65+bojvjLYBjSWMEXDdAkiRYTprT/3nSPjeFKOvb+CzSCkZvB8aXlIMkSWVaSvrGfzJwV9EHL/t2/DTglcCbgQMoPx9JkvJ2NWnznjOAR8pKokod7takQuBVwA5UKzdJktrVB/wD+CWp47+13HSSqnay6wP7kpYY3g/YttRsJElqzS2kgXwDrXKz4apaAKxqErANqRDYFtgO2LD/v0/v/3MSMLGsBCVJjbCEtB7/ItJ0vR7gQdLgvVuAuf1tUVkJjtb/Bxq01N16ljUPAAAAAElFTkSuQmCC;" vertex="1" parent="6hjav3M8JsM55SfbyXg1-1">
          <mxGeometry x="539" y="121.99999999999997" width="52" height="52" as="geometry" />
        </mxCell>
        <mxCell id="6hjav3M8JsM55SfbyXg1-12" value="&lt;font style=&quot;font-size: 16px;&quot;&gt;Radiator&lt;/font&gt;" style="rounded=1;whiteSpace=wrap;html=1;fillColor=#F2F4C1;strokeColor=#000000;strokeWidth=3;" vertex="1" parent="6hjav3M8JsM55SfbyXg1-1">
          <mxGeometry x="237" y="260" width="76" height="40" as="geometry" />
        </mxCell>
        <mxCell id="6hjav3M8JsM55SfbyXg1-14" value="&lt;font style=&quot;font-size: 16px;&quot;&gt;Room Thermostat Controller&lt;/font&gt;" style="rounded=1;whiteSpace=wrap;html=1;fillColor=#F2F4C1;strokeColor=#000000;strokeWidth=3;" vertex="1" parent="6hjav3M8JsM55SfbyXg1-1">
          <mxGeometry x="493.5" y="60" width="143" height="52" as="geometry" />
        </mxCell>
        <mxCell id="6hjav3M8JsM55SfbyXg1-16" value="&lt;font style=&quot;font-size: 16px;&quot;&gt;Heat Loss&lt;/font&gt;" style="rounded=1;whiteSpace=wrap;html=1;fillColor=#C1E8F7;strokeColor=#000000;strokeWidth=3;" vertex="1" parent="6hjav3M8JsM55SfbyXg1-1">
          <mxGeometry x="770" y="210.06" width="90" height="40" as="geometry" />
        </mxCell>
        <mxCell id="6hjav3M8JsM55SfbyXg1-17" value="" style="shape=flexArrow;endArrow=classic;html=1;rounded=0;strokeWidth=3;exitX=1;exitY=0.75;exitDx=0;exitDy=0;entryX=0;entryY=0.5;entryDx=0;entryDy=0;fillColor=#FCE0E1;strokeColor=#000000;" edge="1" parent="6hjav3M8JsM55SfbyXg1-1">
          <mxGeometry width="50" height="50" relative="1" as="geometry">
            <mxPoint x="636.5" y="230" as="sourcePoint" />
            <mxPoint x="769" y="230.5" as="targetPoint" />
          </mxGeometry>
        </mxCell>
        <mxCell id="6hjav3M8JsM55SfbyXg1-18" value="&lt;font style=&quot;font-size: 16px;&quot;&gt;Space Heating&lt;/font&gt;" style="rounded=1;whiteSpace=wrap;html=1;fillColor=#C1E8F7;strokeColor=#000000;strokeWidth=3;" vertex="1" parent="6hjav3M8JsM55SfbyXg1-1">
          <mxGeometry x="215" y="170.06" width="120" height="40" as="geometry" />
        </mxCell>
        <mxCell id="6hjav3M8JsM55SfbyXg1-19" value="" style="shape=flexArrow;endArrow=classic;html=1;rounded=0;entryX=0.5;entryY=1;entryDx=0;entryDy=0;strokeWidth=3;fillColor=#FCE0E1;strokeColor=#000000;exitX=0.5;exitY=0;exitDx=0;exitDy=0;" edge="1" parent="6hjav3M8JsM55SfbyXg1-1" source="6hjav3M8JsM55SfbyXg1-12" target="6hjav3M8JsM55SfbyXg1-18">
          <mxGeometry width="50" height="50" relative="1" as="geometry">
            <mxPoint x="310" y="276.5" as="sourcePoint" />
            <mxPoint x="390" y="276.5" as="targetPoint" />
          </mxGeometry>
        </mxCell>
        <mxCell id="UEdL3o1dsIDTih4_GVur-0" value="" style="shape=image;verticalLabelPosition=bottom;labelBackgroundColor=default;verticalAlign=top;aspect=fixed;imageAspect=0;image=data:image/svg+xml,PHN2ZyB4bWxuczp4bGluaz0iaHR0cDovL3d3dy53My5vcmcvMTk5OS94bGluayIgeG1sbnM9Imh0dHA6Ly93d3cudzMub3JnLzIwMDAvc3ZnIiB4bWw6c3BhY2U9InByZXNlcnZlIiB2aWV3Qm94PSIwIDAgNTUgNTUiIGlkPSJDYXBhXzEiIHZlcnNpb249IjEuMSIgd2lkdGg9IjgwMHB4IiBoZWlnaHQ9IjgwMHB4IiBmaWxsPSIjMDAwMDAwIj4mI3hhOzxnPiYjeGE7CTxwYXRoIGQ9Ik01NCwxMy41aC0ydi0yLjAwMkM1Miw5LjI5NCw1MC4yMDYsNy41LDQ4LDcuNXMtNCwxLjc5NC00LDMuOTk4VjEzLjVoLTJ2LTIuMDAyQzQyLDkuMjk0LDQwLjIwNiw3LjUsMzgsNy41JiMxMDsmIzk7JiM5O3MtNCwxLjc5NC00LDMuOTk4VjEzLjVoLTJ2LTIuMDAyQzMyLDkuMjk0LDMwLjIwNiw3LjUsMjgsNy41cy00LDEuNzk0LTQsMy45OThWMTMuNWgtMnYtMi4wMDJDMjIsOS4yOTQsMjAuMjA2LDcuNSwxOCw3LjUmIzEwOyYjOTsmIzk7cy00LDEuNzk0LTQsMy45OThWMTMuNWgtMnYtMi4wMDJDMTIsOS4yOTQsMTAuMjA2LDcuNSw4LDcuNXMtNCwxLjc5NC00LDMuOTk4VjEzLjVIMnYtMUgwdjJ2NnYyaDJ2LTFoMnYyMi4wMDImIzEwOyYjOTsmIzk7QzQsNDUuNzA2LDUuNzk0LDQ3LjUsOCw0Ny41czQtMS43OTQsNC0zLjk5OFY0Mi41aDJ2MS4wMDJjMCwyLjIwNCwxLjc5NCwzLjk5OCw0LDMuOTk4czQtMS43OTQsNC0zLjk5OFY0Mi41aDJ2MS4wMDImIzEwOyYjOTsmIzk7YzAsMi4yMDQsMS43OTQsMy45OTgsNCwzLjk5OHM0LTEuNzk0LDQtMy45OThWNDIuNWgydjEuMDAyYzAsMi4yMDQsMS43OTQsMy45OTgsNCwzLjk5OHM0LTEuNzk0LDQtMy45OThWNDIuNWgydjEuMDAyJiMxMDsmIzk7JiM5O2MwLDIuMjA0LDEuNzk0LDMuOTk4LDQsMy45OThzNC0xLjc5NCw0LTMuOTk4VjIxLjVoMmMwLjU1MywwLDEtMC40NDcsMS0xdi02QzU1LDEzLjk0Nyw1NC41NTMsMTMuNSw1NCwxMy41eiBNNDQsMTUuNXY0aC0ydi00SDQ0eiYjMTA7JiM5OyYjOTsgTTM0LDE1LjV2NGgtMnYtNEgzNHogTTI0LDE1LjV2NGgtMnYtNEgyNHogTTE0LDE1LjV2NGgtMnYtNEgxNHogTTIsMTkuNXYtNGgydjRIMnogTTEwLDQzLjUwMmMwLDEuMTAyLTAuODk4LDEuOTk4LTIsMS45OTgmIzEwOyYjOTsmIzk7cy0yLTAuODk2LTItMS45OThWMjAuNXYtNnYtMy4wMDJDNiwxMC4zOTYsNi44OTgsOS41LDgsOS41czIsMC44OTYsMiwxLjk5OFYxNC41djZ2MjB2MlY0My41MDJ6IE0xMiw0MC41di0xOWgydjE5SDEyeiBNMjAsNDMuNTAyJiMxMDsmIzk7JiM5O2MwLDEuMTAyLTAuODk3LDEuOTk4LTIsMS45OThzLTItMC44OTYtMi0xLjk5OFYyMC41di02di0zLjAwMmMwLTEuMTAyLDAuODk3LTEuOTk4LDItMS45OThzMiwwLjg5NiwyLDEuOTk4VjE0LjV2NlY0My41MDJ6JiMxMDsmIzk7JiM5OyBNMjIsNDAuNXYtMTloMnYxOUgyMnogTTMwLDQzLjUwMmMwLDEuMTAyLTAuODk3LDEuOTk4LTIsMS45OThzLTItMC44OTYtMi0xLjk5OFY0Mi41di0ydi0yMHYtNnYtMy4wMDImIzEwOyYjOTsmIzk7YzAtMS4xMDIsMC44OTctMS45OTgsMi0xLjk5OHMyLDAuODk2LDIsMS45OThWMTQuNXY2djIwdjJWNDMuNTAyeiBNMzIsNDAuNXYtMTloMnYxOUgzMnogTTQwLDQzLjUwMmMwLDEuMTAyLTAuODk3LDEuOTk4LTIsMS45OTgmIzEwOyYjOTsmIzk7cy0yLTAuODk2LTItMS45OThWMjAuNXYtNnYtMy4wMDJjMC0xLjEwMiwwLjg5Ny0xLjk5OCwyLTEuOTk4czIsMC44OTYsMiwxLjk5OFYxNC41djZ2MjB2MlY0My41MDJ6IE00Miw0MC41di0xOWgydjE5SDQyeiYjMTA7JiM5OyYjOTsgTTUwLDQzLjUwMmMwLDEuMTAyLTAuODk3LDEuOTk4LTIsMS45OThzLTItMC44OTYtMi0xLjk5OFYyMC41di02di0zLjAwMmMwLTEuMTAyLDAuODk3LTEuOTk4LDItMS45OThzMiwwLjg5NiwyLDEuOTk4VjE0LjV2NiYjMTA7JiM5OyYjOTtWNDMuNTAyeiBNNTMsMTkuNWgtMXYtNGgxVjE5LjV6Ii8+JiN4YTs8L2c+JiN4YTs8L3N2Zz4=;" vertex="1" parent="6hjav3M8JsM55SfbyXg1-1">
          <mxGeometry x="210" y="290" width="130" height="130" as="geometry" />
        </mxCell>
        <mxCell id="UEdL3o1dsIDTih4_GVur-1" value="" style="shape=image;verticalLabelPosition=bottom;labelBackgroundColor=default;verticalAlign=top;aspect=fixed;imageAspect=0;image=data:image/svg+xml,PHN2ZyB4bWxuczp4bGluaz0iaHR0cDovL3d3dy53My5vcmcvMTk5OS94bGluayIgeG1sbnM9Imh0dHA6Ly93d3cudzMub3JnLzIwMDAvc3ZnIiB4bWw6c3BhY2U9InByZXNlcnZlIiBzdHlsZT0iZW5hYmxlLWJhY2tncm91bmQ6bmV3IDAgMCAxMjIuODggOTEuMzgiIHZpZXdCb3g9IjAgMCAxMjIuODggOTEuMzgiIHk9IjBweCIgeD0iMHB4IiBpZD0iTGF5ZXJfMSIgdmVyc2lvbj0iMS4xIj48Zz48cGF0aCBkPSJNOTcuMTMsMjYuMDljLTEuMTEsMC0yLjAxLTAuOS0yLjAxLTIuMDFjMC0xLjExLDAuOS0yLjAxLDIuMDEtMi4wMWgxMS41MmMxLjExLDAsMi4wMSwwLjksMi4wMSwyLjAxIGMwLDEuMTEtMC45LDIuMDEtMi4wMSwyLjAxSDk3LjEzTDk3LjEzLDI2LjA5eiBNNS45OCwwSDExNi45YzEuNjUsMCwzLjE0LDAuNjcsNC4yMiwxLjc1YzEuMDgsMS4wOCwxLjc1LDIuNTgsMS43NSw0LjIydjc5LjQzIGMwLDEuNjUtMC42NywzLjE0LTEuNzUsNC4yMmMtMS4wOCwxLjA4LTIuNTgsMS43NS00LjIyLDEuNzVINS45OGMtMS42NSwwLTMuMTQtMC42Ny00LjIyLTEuNzVDMC42Nyw4OC41NSwwLDg3LjA1LDAsODUuNDFWNS45OCBjMC0xLjY1LDAuNjctMy4xNCwxLjc1LTQuMjJDMi44NCwwLjY3LDQuMzMsMCw1Ljk4LDBMNS45OCwweiBNMTE2LjksNC4wM0g1Ljk4Yy0wLjUzLDAtMS4wMiwwLjIyLTEuMzcsMC41NyBDNC4yNSw0Ljk1LDQuMDMsNS40NCw0LjAzLDUuOTh2NzkuNDNjMCwwLjUzLDAuMjIsMS4wMiwwLjU3LDEuMzdjMC4zNSwwLjM1LDAuODQsMC41NywxLjM3LDAuNTdIMTE2LjljMC41MywwLDEuMDItMC4yMiwxLjM3LTAuNTcgYzAuMzUtMC4zNSwwLjU3LTAuODQsMC41Ny0xLjM3VjUuOThjMC0wLjUzLTAuMjItMS4wMi0wLjU3LTEuMzdDMTE3LjkyLDQuMjUsMTE3LjQ0LDQuMDMsMTE2LjksNC4wM0wxMTYuOSw0LjAzeiBNNDUuNjgsOC40NSBjMTAuMjYsMCwxOS41NSw0LjE2LDI2LjI4LDEwLjg5YzYuNzMsNi43MywxMC44OSwxNi4wMiwxMC44OSwyNi4yOGMwLDguNTMtMi44NywxNi4zOC03LjcsMjIuNjZ2MC4xYzAsMC43NS0wLjU2LDEuMzctMS4yOSwxLjQ4IGMtMC42MSwwLjcxLTEuMjQsMS4zOS0xLjksMi4wNGMtNi43Myw2LjczLTE2LjAyLDEwLjg5LTI2LjI4LDEwLjg5Yy0xMC4yNiwwLTE5LjU1LTQuMTYtMjYuMjgtMTAuODkgQzEyLjY3LDY1LjE3LDguNTEsNTUuODgsOC41MSw0NS42MmMwLTEwLjI2LDQuMTYtMTkuNTUsMTAuODktMjYuMjhDMjYuMTMsMTIuNjEsMzUuNDIsOC40NSw0NS42OCw4LjQ1TDQ1LjY4LDguNDVMNDUuNjgsOC40NXogTTY5LjgyLDIxLjQ3Yy0xLjE4LTEuMTgtMi40NS0yLjI4LTMuNzktMy4yOHY1NC44NGMxLjM0LTEsMi42MS0yLjA5LDMuNzktMy4yOGMwLjgxLTAuODEsMS41Ny0xLjY2LDIuMy0yLjU0bDAtNDMuMDIgYzAtMC4wNiwwLTAuMTIsMC4wMS0wLjE3QzcxLjQxLDIzLjE0LDcwLjY0LDIyLjI4LDY5LjgyLDIxLjQ3TDY5LjgyLDIxLjQ3TDY5LjgyLDIxLjQ3eiBNNjMuMDQsMTYuMiBjLTEuOTMtMS4xNC0zLjk3LTIuMDktNi4xMi0yLjg0djY0LjVjMi4xNC0wLjc0LDQuMTctMS42OSw2LjA5LTIuODNWMTYuNDdDNjMuMDEsMTYuMzgsNjMuMDIsMTYuMjksNjMuMDQsMTYuMkw2My4wNCwxNi4yeiBNNTMuOSwxMi40N2MtMS45Ny0wLjQ5LTQtMC44LTYuMDktMC45M1Y3OS43YzIuMDktMC4xMyw0LjEyLTAuNDQsNi4wOS0wLjkzVjEyLjQ3TDUzLjksMTIuNDd6IE00NC43OSwxMS40OCBjLTIuMDgsMC4wNS00LjEyLDAuMjktNi4wOSwwLjd2NjYuODZjMS45NywwLjQxLDQuMDEsMC42NSw2LjA5LDAuN1YxMS40OEw0NC43OSwxMS40OHogTTM1LjY4LDEyLjk2IGMtMi4xMywwLjY1LTQuMTYsMS41LTYuMDksMi41NHY2MC4yNGMxLjkzLDEuMDMsMy45NywxLjg4LDYuMDksMi41NFYxMi45NkwzNS42OCwxMi45NkwzNS42OCwxMi45NnogTTI2LjU2LDE3LjMyIGMtMS44MSwxLjIyLTMuNDksMi42MS01LjAzLDQuMTVjLTAuMzYsMC4zNi0wLjcyLDAuNzMtMS4wNiwxLjExbDAsMC4wM3Y0Ni4wM2MwLjM1LDAuMzgsMC43LDAuNzUsMS4wNiwxLjExIGMxLjU0LDEuNTQsMy4yMiwyLjkzLDUuMDMsNC4xNUwyNi41NiwxNy4zMkwyNi41NiwxNy4zMkwyNi41NiwxNy4zMnogTTE3LjQ1LDI2LjRjLTMuNzMsNS40Ny01LjkyLDEyLjA5LTUuOTIsMTkuMjIgYzAsNy4xMywyLjE4LDEzLjc0LDUuOTIsMTkuMjJWMjYuNEwxNy40NSwyNi40eiBNNzUuMTQsNjIuODhjMi45OC01LjA3LDQuNjgtMTAuOTcsNC42OC0xNy4yN3MtMS43MS0xMi4yLTQuNjgtMTcuMjdWNjIuODggTDc1LjE0LDYyLjg4TDc1LjE0LDYyLjg4eiBNODQuMTksMTYuNWMtMS4xMSwwLTIuMDEtMC45LTIuMDEtMi4wMWMwLTEuMTEsMC45LTIuMDEsMi4wMS0yLjAxaDI0LjQ1YzEuMTEsMCwyLjAxLDAuOSwyLjAxLDIuMDEgYzAsMS4xMS0wLjksMi4wMS0yLjAxLDIuMDFIODQuMTlMODQuMTksMTYuNXoiLz48L2c+PC9zdmc+;" vertex="1" parent="6hjav3M8JsM55SfbyXg1-1">
          <mxGeometry x="-40" y="439" width="123" height="91" as="geometry" />
        </mxCell>
        <mxCell id="UEdL3o1dsIDTih4_GVur-2" value="" style="shape=image;verticalLabelPosition=bottom;labelBackgroundColor=default;verticalAlign=top;aspect=fixed;imageAspect=0;image=data:image/svg+xml,PHN2ZyB4bWxuczp4bGluaz0iaHR0cDovL3d3dy53My5vcmcvMTk5OS94bGluayIgeG1sbnM9Imh0dHA6Ly93d3cudzMub3JnLzIwMDAvc3ZnIiB4bWw6c3BhY2U9InByZXNlcnZlIiB2aWV3Qm94PSIwIDAgNTEyIDUxMiIgaWQ9IkxheWVyXzEiIHZlcnNpb249IjEuMSIgd2lkdGg9IjgwMHB4IiBoZWlnaHQ9IjgwMHB4IiBmaWxsPSIjMDAwMDAwIj4mI3hhOzxnPiYjeGE7CTxnPiYjeGE7CQk8cGF0aCBkPSJNMzgxLjY2NCwwSDEzMC4zMzZDMTA5LjgsMCw5My4wOTEsMTYuNyw5My4wOTEsMzcuMjE4djM1My43NjR2OTMuMDA5YzAsMTUuNDQ2LDEyLjUzNiwyOC4wMDksMjcuOTQ1LDI4LjAwOWgyNjkuOTI3JiMxMDsmIzk7JiM5OyYjOTtjMTUuNDA5LDAsMjcuOTQ1LTEyLjU2NCwyNy45NDUtMjguMDA5di05My4wMDlWMzcuMjE4QzQxOC45MDksMTYuNyw0MDIuMiwwLDM4MS42NjQsMHogTTQwMC4yOTEsNDgzLjk5MSYjMTA7JiM5OyYjOTsmIzk7YzAsNS4xODItNC4xODIsOS4zOTEtOS4zMjcsOS4zOTFIMTIxLjAzNmMtNS4xNDUsMC05LjMyNy00LjIwOS05LjMyNy05LjM5MXYtODMuN2gyODguNTgyVjQ4My45OTF6IE00MDAuMjkxLDM4MS42NzNIMTExLjcwOSYjMTA7JiM5OyYjOTsmIzk7VjM3LjIxOGMwLTEwLjI1NSw4LjM1NC0xOC42LDE4LjYyNy0xOC42aDI1MS4zMjdjMTAuMjczLDAsMTguNjI3LDguMzQ1LDE4LjYyNywxOC42VjM4MS42NzN6Ii8+JiN4YTsJPC9nPiYjeGE7PC9nPiYjeGE7PGc+JiN4YTsJPGc+JiN4YTsJCTxwYXRoIGQ9Ik0yNjAuNjU1LDQxOC45MDljLTE1LjQsMC0yNy45MjcsMTIuNTI3LTI3LjkyNywyNy45MjdzMTIuNTI3LDI3LjkyNywyNy45MjcsMjcuOTI3czI3LjkyNy0xMi41MjcsMjcuOTI3LTI3LjkyNyYjMTA7JiM5OyYjOTsmIzk7UzI3Ni4wNTUsNDE4LjkwOSwyNjAuNjU1LDQxOC45MDl6IE0yNjAuNjU1LDQ1Ni4xNDVjLTUuMTM2LDAtOS4zMDktNC4xNzMtOS4zMDktOS4zMDlzNC4xNzMtOS4zMDksOS4zMDktOS4zMDkmIzEwOyYjOTsmIzk7JiM5O3M5LjMwOSw0LjE3Myw5LjMwOSw5LjMwOVMyNjUuNzkxLDQ1Ni4xNDUsMjYwLjY1NSw0NTYuMTQ1eiIvPiYjeGE7CTwvZz4mI3hhOzwvZz4mI3hhOzxnPiYjeGE7CTxnPiYjeGE7CQk8cGF0aCBkPSJNMjYwLjY1NSwyODguNTgyYy0zMC44LDAtNTUuODU1LDI1LjA1NC01NS44NTUsNTUuODU0YzAsNS4xNDUsNC4xNjQsOS4zMDksOS4zMDksOS4zMDlIMzA3LjImIzEwOyYjOTsmIzk7JiM5O2M1LjE0NSwwLDkuMzA5LTQuMTY0LDkuMzA5LTkuMzA5QzMxNi41MDksMzEzLjYzNiwyOTEuNDU1LDI4OC41ODIsMjYwLjY1NSwyODguNTgyeiBNMjI0LjYsMzM1LjEyNyYjMTA7JiM5OyYjOTsmIzk7YzQuMTM2LTE2LjA0NSwxOC43MzYtMjcuOTI3LDM2LjA1NS0yNy45MjdzMzEuOTE4LDExLjg4MiwzNi4wNTUsMjcuOTI3SDIyNC42eiIvPiYjeGE7CTwvZz4mI3hhOzwvZz4mI3hhOzwvc3ZnPg==;" vertex="1" parent="6hjav3M8JsM55SfbyXg1-1">
          <mxGeometry x="480" y="340" width="170" height="170" as="geometry" />
        </mxCell>
        <mxCell id="UEdL3o1dsIDTih4_GVur-5" value="" style="endArrow=none;html=1;rounded=0;entryX=0.176;entryY=0.118;entryDx=0;entryDy=0;entryPerimeter=0;endFill=0;startArrow=block;startFill=1;strokeWidth=4;strokeColor=#FF0000;" edge="1" parent="6hjav3M8JsM55SfbyXg1-1" target="UEdL3o1dsIDTih4_GVur-2">
          <mxGeometry width="50" height="50" relative="1" as="geometry">
            <mxPoint x="240" y="460" as="sourcePoint" />
            <mxPoint x="360" y="450" as="targetPoint" />
            <Array as="points">
              <mxPoint x="450" y="460" />
              <mxPoint x="450" y="360" />
            </Array>
          </mxGeometry>
        </mxCell>
        <mxCell id="UEdL3o1dsIDTih4_GVur-6" value="" style="endArrow=none;html=1;rounded=0;exitX=1;exitY=0.75;exitDx=0;exitDy=0;entryX=0.176;entryY=0.706;entryDx=0;entryDy=0;entryPerimeter=0;endFill=0;strokeWidth=4;strokeColor=#3399FF;" edge="1" parent="6hjav3M8JsM55SfbyXg1-1" source="UEdL3o1dsIDTih4_GVur-1" target="UEdL3o1dsIDTih4_GVur-2">
          <mxGeometry width="50" height="50" relative="1" as="geometry">
            <mxPoint x="53" y="509.99999999999994" as="sourcePoint" />
            <mxPoint x="520" y="408" as="targetPoint" />
            <Array as="points">
              <mxPoint x="480" y="507.99999999999994" />
              <mxPoint x="480" y="460" />
            </Array>
          </mxGeometry>
        </mxCell>
        <mxCell id="UEdL3o1dsIDTih4_GVur-7" value="" style="endArrow=none;html=1;rounded=0;entryX=0.231;entryY=0.769;entryDx=0;entryDy=0;entryPerimeter=0;startArrow=block;startFill=1;strokeWidth=4;strokeColor=#FF0000;" edge="1" parent="6hjav3M8JsM55SfbyXg1-1" target="UEdL3o1dsIDTih4_GVur-0">
          <mxGeometry width="50" height="50" relative="1" as="geometry">
            <mxPoint x="240" y="460" as="sourcePoint" />
            <mxPoint x="250" y="450" as="targetPoint" />
          </mxGeometry>
        </mxCell>
        <mxCell id="UEdL3o1dsIDTih4_GVur-8" value="" style="endArrow=none;html=1;rounded=0;entryX=0.769;entryY=0.769;entryDx=0;entryDy=0;entryPerimeter=0;strokeWidth=4;strokeColor=#3399FF;" edge="1" parent="6hjav3M8JsM55SfbyXg1-1" target="UEdL3o1dsIDTih4_GVur-0">
          <mxGeometry width="50" height="50" relative="1" as="geometry">
            <mxPoint x="310" y="508" as="sourcePoint" />
            <mxPoint x="350" y="440" as="targetPoint" />
          </mxGeometry>
        </mxCell>
        <mxCell id="UEdL3o1dsIDTih4_GVur-9" value="" style="endArrow=block;html=1;rounded=0;exitX=1;exitY=0.25;exitDx=0;exitDy=0;endFill=1;strokeWidth=4;strokeColor=#FF0000;" edge="1" parent="6hjav3M8JsM55SfbyXg1-1" source="UEdL3o1dsIDTih4_GVur-1">
          <mxGeometry width="50" height="50" relative="1" as="geometry">
            <mxPoint x="200" y="480" as="sourcePoint" />
            <mxPoint x="240" y="460" as="targetPoint" />
          </mxGeometry>
        </mxCell>
        <mxCell id="UEdL3o1dsIDTih4_GVur-10" value="&lt;font style=&quot;font-size: 16px;&quot;&gt;Hot Water Tank&lt;/font&gt;" style="rounded=1;whiteSpace=wrap;html=1;fillColor=#F2F4C1;strokeColor=#000000;strokeWidth=3;" vertex="1" parent="6hjav3M8JsM55SfbyXg1-1">
          <mxGeometry x="500" y="290" width="130" height="40" as="geometry" />
        </mxCell>
        <mxCell id="UEdL3o1dsIDTih4_GVur-12" value="" style="shape=image;verticalLabelPosition=bottom;labelBackgroundColor=default;verticalAlign=top;aspect=fixed;imageAspect=0;image=data:image/svg+xml,PHN2ZyB4bWxucz0iaHR0cDovL3d3dy53My5vcmcvMjAwMC9zdmciIHZpZXdCb3g9IjAgMCA3Ni42OCAxMjMuMTIiIGRhdGEtbmFtZT0iTGF5ZXIgMSIgaWQ9IkxheWVyXzEiPjxkZWZzPjxzdHlsZT4uY2xzLTF7ZmlsbC1ydWxlOmV2ZW5vZGQ7fTwvc3R5bGU+PC9kZWZzPjx0aXRsZT5lbGVjdHJpYy1wb2xlPC90aXRsZT48cGF0aCBkPSJNMCwxNi4wNkgzMi43VjIuMzNsLjA3LS4wN2E1LjYyLDUuNjIsMCwwLDEsLjU1LS41NCw3LjgzLDcuODMsMCwwLDEsNS0xLjcyLDcuNDUsNy40NSwwLDAsMSw0Ljk0LDEuNzYsNC42NCw0LjY0LDAsMCwxLC40OS41bC4wNi4wN1YxNi4wNkg3Ni42OFYyMUg2My4xMmExLjQsMS40LDAsMCwxLS4yNi4zOUw0My42Miw0MC44djEuMzJINzYuNjh2NC45M0g2My4yNWEuNTIuNTIsMCwwLDEtLjEuMTFMNDMuNjIsNjYuODh2NTYuMjRIMzIuOTRWNjYuOEwxMy40OSw0Ny4xNmwtLjEtLjExSDBWNDIuMTJIMzIuOTR2LTEuNGwtMTguODYtMTlhMS4yMSwxLjIxLDAsMCwxLS4zMy0uNjlIMFYxNi4wNlptNzIuOS0yLjYyYS42OS42OSwwLDAsMSwuMjkuNTdoMGEuNjkuNjksMCwwLDEtLjY4LjY5SDcwLjQ2YS42OS42OSwwLDAsMS0uNjktLjY5aDBhLjcuNywwLDAsMSwuMy0uNTdoLS44NmExLDEsMCwwLDEtMS0xdi0uODdoNi42NXYuODdhMSwxLDAsMCwxLTEsMVptLTMuNjktNC4xaDFhLjcxLjcxLDAsMCwxLS40Mi0uNjN2MEEuNjkuNjksMCwwLDEsNzAuNDYsOGgyLjA1YS42OS42OSwwLDAsMSwuNjguNjl2MGEuNy43LDAsMCwxLS40MS42M2gxYTEsMSwwLDAsMSwxLDEuMDV2LjY3SDY4LjE2di0uNjdhMSwxLDAsMCwxLDEtMS4wNVptLTYyLDQuMWEuNzEuNzEsMCwwLDEsLjI5LjU3aDBhLjY5LjY5LDAsMCwxLS42OS42OWgtMkEuNjkuNjksMCwwLDEsNC4wNSwxNGgwYS43LjcsMCwwLDEsLjMtLjU3SDMuNDlhMSwxLDAsMCwxLTEuMDUtMXYtLjg3SDkuMDl2Ljg3YTEuMDYsMS4wNiwwLDAsMS0xLjA2LDFaTTMuNDksOS4zNGgxYS43MS43MSwwLDAsMS0uNDItLjYzdjBBLjY5LjY5LDAsMCwxLDQuNzQsOGgyYS42OS42OSwwLDAsMSwuNjkuNjl2MGEuNy43LDAsMCwxLS40MS42M0g4YTEuMDUsMS4wNSwwLDAsMSwxLjA2LDEuMDV2LjY3SDIuNDR2LS42N0ExLDEsMCwwLDEsMy40OSw5LjM0Wk02MCw0Ny4wNUgxNi42OWwxNi4yNSwxNi40VjUwLjI1SDQzLjYyVjYzLjUzTDYwLDQ3LjA1Wk00My42MiwzNy40Niw1OS45MywyMUgxNi43MUwzMi45NCwzNy4zN1YyMy43SDQzLjYyVjM3LjQ2WiIgY2xhc3M9ImNscy0xIi8+PC9zdmc+;" vertex="1" parent="6hjav3M8JsM55SfbyXg1-1">
          <mxGeometry x="-200" y="423" width="77" height="123" as="geometry" />
        </mxCell>
        <mxCell id="UEdL3o1dsIDTih4_GVur-13" value="&lt;font style=&quot;font-size: 16px;&quot;&gt;Power Grid&lt;/font&gt;" style="rounded=1;whiteSpace=wrap;html=1;fillColor=#DBDFEF;strokeColor=#000000;strokeWidth=3;" vertex="1" parent="6hjav3M8JsM55SfbyXg1-1">
          <mxGeometry x="-216.5" y="376" width="110" height="33" as="geometry" />
        </mxCell>
        <mxCell id="UEdL3o1dsIDTih4_GVur-14" value="" style="endArrow=classic;html=1;rounded=0;exitX=1;exitY=0.5;exitDx=0;exitDy=0;strokeColor=#FFB570;strokeWidth=3;entryX=0;entryY=0.5;entryDx=0;entryDy=0;" edge="1" parent="6hjav3M8JsM55SfbyXg1-1" source="UEdL3o1dsIDTih4_GVur-12" target="UEdL3o1dsIDTih4_GVur-1">
          <mxGeometry width="50" height="50" relative="1" as="geometry">
            <mxPoint x="890" y="214.06" as="sourcePoint" />
            <mxPoint x="590" y="183" as="targetPoint" />
          </mxGeometry>
        </mxCell>
        <mxCell id="UEdL3o1dsIDTih4_GVur-16" value="" style="endArrow=classic;html=1;rounded=0;strokeWidth=3;strokeColor=#67AB9F;dashed=1;dashPattern=1 1;exitX=0;exitY=0.5;exitDx=0;exitDy=0;entryX=0.5;entryY=0;entryDx=0;entryDy=0;" edge="1" parent="6hjav3M8JsM55SfbyXg1-1" source="6hjav3M8JsM55SfbyXg1-8" target="UEdL3o1dsIDTih4_GVur-21">
          <mxGeometry width="50" height="50" relative="1" as="geometry">
            <mxPoint x="480" y="140" as="sourcePoint" />
            <mxPoint x="22" y="310" as="targetPoint" />
            <Array as="points">
              <mxPoint x="22" y="148" />
            </Array>
          </mxGeometry>
        </mxCell>
        <mxCell id="UEdL3o1dsIDTih4_GVur-21" value="&lt;font style=&quot;font-size: 16px;&quot;&gt;Air Source Heat Pump&lt;/font&gt;" style="rounded=1;whiteSpace=wrap;html=1;fillColor=#F2F4C1;strokeColor=#000000;strokeWidth=3;" vertex="1" parent="6hjav3M8JsM55SfbyXg1-1">
          <mxGeometry x="-63.5" y="388.46000000000004" width="170" height="40" as="geometry" />
        </mxCell>
        <mxCell id="UEdL3o1dsIDTih4_GVur-23" value="" style="group" vertex="1" connectable="0" parent="6hjav3M8JsM55SfbyXg1-1">
          <mxGeometry x="120" y="546" width="206" height="230" as="geometry" />
        </mxCell>
        <mxCell id="6hjav3M8JsM55SfbyXg1-21" value="" style="rounded=1;whiteSpace=wrap;html=1;strokeWidth=3;strokeColor=#000000;" vertex="1" parent="UEdL3o1dsIDTih4_GVur-23">
          <mxGeometry width="203" height="230" as="geometry" />
        </mxCell>
        <mxCell id="6hjav3M8JsM55SfbyXg1-22" value="" style="endArrow=none;html=1;rounded=0;exitX=1;exitY=0.75;exitDx=0;exitDy=0;strokeWidth=3;strokeColor=#FFB570;startArrow=classic;startFill=1;endFill=0;" edge="1" parent="UEdL3o1dsIDTih4_GVur-23">
          <mxGeometry width="50" height="50" relative="1" as="geometry">
            <mxPoint x="15" y="20" as="sourcePoint" />
            <mxPoint x="95" y="20" as="targetPoint" />
          </mxGeometry>
        </mxCell>
        <mxCell id="6hjav3M8JsM55SfbyXg1-23" value="" style="endArrow=classic;html=1;rounded=0;strokeWidth=3;strokeColor=#67AB9F;dashed=1;dashPattern=1 1;" edge="1" parent="UEdL3o1dsIDTih4_GVur-23">
          <mxGeometry width="50" height="50" relative="1" as="geometry">
            <mxPoint x="95" y="64.5" as="sourcePoint" />
            <mxPoint x="15" y="64.5" as="targetPoint" />
          </mxGeometry>
        </mxCell>
        <mxCell id="6hjav3M8JsM55SfbyXg1-24" value="" style="shape=flexArrow;endArrow=classic;html=1;rounded=0;strokeWidth=3;entryX=0;entryY=0.5;entryDx=0;entryDy=0;fillColor=#FCE0E1;strokeColor=#000000;" edge="1" parent="UEdL3o1dsIDTih4_GVur-23">
          <mxGeometry width="50" height="50" relative="1" as="geometry">
            <mxPoint x="95" y="114.5" as="sourcePoint" />
            <mxPoint x="15" y="114.5" as="targetPoint" />
          </mxGeometry>
        </mxCell>
        <mxCell id="6hjav3M8JsM55SfbyXg1-25" value="&lt;font style=&quot;font-size: 16px;&quot;&gt;Power Flow&lt;/font&gt;" style="text;html=1;align=center;verticalAlign=middle;whiteSpace=wrap;rounded=0;" vertex="1" parent="UEdL3o1dsIDTih4_GVur-23">
          <mxGeometry x="95" y="5" width="111" height="30" as="geometry" />
        </mxCell>
        <mxCell id="6hjav3M8JsM55SfbyXg1-26" value="&lt;font style=&quot;font-size: 16px;&quot;&gt;Signal Flow&lt;/font&gt;" style="text;html=1;align=center;verticalAlign=middle;whiteSpace=wrap;rounded=0;" vertex="1" parent="UEdL3o1dsIDTih4_GVur-23">
          <mxGeometry x="95" y="50" width="111" height="30" as="geometry" />
        </mxCell>
        <mxCell id="6hjav3M8JsM55SfbyXg1-27" value="&lt;font style=&quot;font-size: 16px;&quot;&gt;Heat Flow&lt;/font&gt;" style="text;html=1;align=center;verticalAlign=middle;whiteSpace=wrap;rounded=0;" vertex="1" parent="UEdL3o1dsIDTih4_GVur-23">
          <mxGeometry x="95" y="100" width="111" height="30" as="geometry" />
        </mxCell>
        <mxCell id="UEdL3o1dsIDTih4_GVur-18" value="" style="endArrow=none;html=1;rounded=0;exitX=1;exitY=0.75;exitDx=0;exitDy=0;strokeWidth=4;strokeColor=#FF0000;startArrow=none;startFill=0;endFill=0;" edge="1" parent="UEdL3o1dsIDTih4_GVur-23">
          <mxGeometry width="50" height="50" relative="1" as="geometry">
            <mxPoint x="15" y="160" as="sourcePoint" />
            <mxPoint x="95" y="160" as="targetPoint" />
          </mxGeometry>
        </mxCell>
        <mxCell id="UEdL3o1dsIDTih4_GVur-19" value="" style="endArrow=none;html=1;rounded=0;exitX=1;exitY=0.75;exitDx=0;exitDy=0;strokeWidth=4;strokeColor=#3399FF;startArrow=none;startFill=0;endFill=0;" edge="1" parent="UEdL3o1dsIDTih4_GVur-23">
          <mxGeometry width="50" height="50" relative="1" as="geometry">
            <mxPoint x="15" y="210" as="sourcePoint" />
            <mxPoint x="95" y="210" as="targetPoint" />
          </mxGeometry>
        </mxCell>
        <mxCell id="UEdL3o1dsIDTih4_GVur-20" value="&lt;font style=&quot;font-size: 16px;&quot;&gt;Water Flow&lt;/font&gt;" style="text;html=1;align=center;verticalAlign=middle;whiteSpace=wrap;rounded=0;" vertex="1" parent="UEdL3o1dsIDTih4_GVur-23">
          <mxGeometry x="92" y="170" width="111" height="30" as="geometry" />
        </mxCell>
        <mxCell id="UEdL3o1dsIDTih4_GVur-24" value="" style="group" vertex="1" connectable="0" parent="6hjav3M8JsM55SfbyXg1-1">
          <mxGeometry x="732.5" y="354.23" width="165" height="108.45999999999998" as="geometry" />
        </mxCell>
        <mxCell id="6hjav3M8JsM55SfbyXg1-7" value="" style="shape=image;verticalLabelPosition=bottom;labelBackgroundColor=default;verticalAlign=top;aspect=fixed;imageAspect=0;image=data:image/svg+xml,PHN2ZyB4bWxucz0iaHR0cDovL3d3dy53My5vcmcvMjAwMC9zdmciIHZpZXdCb3g9IjAgMCAyNDQgNTExLjcxIiBjbGlwLXJ1bGU9ImV2ZW5vZGQiIGZpbGwtcnVsZT0iZXZlbm9kZCIgaW1hZ2UtcmVuZGVyaW5nPSJvcHRpbWl6ZVF1YWxpdHkiIHRleHQtcmVuZGVyaW5nPSJnZW9tZXRyaWNQcmVjaXNpb24iIHNoYXBlLXJlbmRlcmluZz0iZ2VvbWV0cmljUHJlY2lzaW9uIj48cGF0aCBkPSJNMTQ3LjI3IDU4LjY1YzAtMTAuNjYtNC4zNi0yMC4zNi0xMS40LTI3LjM5LTcuMDMtNy4wMy0xNi43Mi0xMS40LTI3LjM4LTExLjRzLTIwLjM1IDQuMzctMjcuMzkgMTEuNGMtNy4wMyA3LjAzLTExLjM5IDE2LjczLTExLjM5IDI3LjM5VjMzMC4xYy0yNi44NyAxMy43OC00NS4yNSA0MS43NS00NS4yNSA3NC4wMiAwIDQ1LjkyIDM3LjIyIDgzLjE0IDgzLjE0IDgzLjE0IDQ1LjkxIDAgODMuMTMtMzcuMjIgODMuMTMtODMuMTQgMC0zMS41NS0xNy41Ny01OC45OS00My40Ni03My4wOFY1OC42NXptNDAuODMgMzUuOTR2LTE4SDIzNWE5IDkgMCAwIDEgMCAxOGgtNDYuOXptMCA0OS4xNHYtMThIMjM1YTkgOSAwIDAgMSAwIDE4aC00Ni45em0wIDQ5LjE0di0xOEgyMzVhOSA5IDAgMCAxIDAgMThoLTQ2Ljl6bTAgNDkuMTR2LTE4SDIzNWE5IDkgMCAwIDEgMCAxOGgtNDYuOXptMCA0OS4xNHYtMThIMjM1YTkgOSAwIDAgMSAwIDE4aC00Ni45em0tMjAuOTcgMjMuMzRjMjguOTcgMTkuMjggNDguMDYgNTIuMjIgNDguMDYgODkuNjMgMCA1OS40Mi00OC4xNyAxMDcuNTktMTA3LjU5IDEwNy41OUM0OC4xNyA1MTEuNzEgMCA0NjMuNTQgMCA0MDQuMTJjMC0zOC4xNyAxOS44OC03MS42OSA0OS44NC05MC43OVY1OC42NWMwLTE2LjE0IDYuNi0zMC44MSAxNy4yMi00MS40M0M3Ny42OSA2LjU5IDkyLjM1IDAgMTA4LjQ5IDBjMTYuMTMgMCAzMC44IDYuNTkgNDEuNDMgMTcuMjIgMTAuNjIgMTAuNjIgMTcuMjEgMjUuMjkgMTcuMjEgNDEuNDN2MjU1Ljg0eiIgZmlsbD0iIzJCMjcyNyIvPjxwYXRoIGQ9Ik0xMjQuNTIgMzQ1LjM1di0zOS4zNkg5MC42N3YzOS4zNmMtMjUuNTMgNy4zNC00NC4yMiAzMC44OC00NC4yMiA1OC43NyAwIDMzLjc3IDI3LjM4IDYxLjE0IDYxLjE1IDYxLjE0IDMzLjc2IDAgNjEuMTQtMjcuMzcgNjEuMTQtNjEuMTQgMC0yNy45LTE4LjY4LTUxLjQzLTQ0LjIyLTU4Ljc3eiIgZmlsbD0iIzAwOTFENCIvPjwvc3ZnPg==;" vertex="1" parent="UEdL3o1dsIDTih4_GVur-24">
          <mxGeometry x="70" y="56" width="25" height="52.46" as="geometry" />
        </mxCell>
        <mxCell id="6hjav3M8JsM55SfbyXg1-15" value="&lt;font style=&quot;font-size: 16px;&quot;&gt;Outdoor Temperature&lt;/font&gt;" style="rounded=1;whiteSpace=wrap;html=1;fillColor=#C1E8F7;strokeColor=#000000;strokeWidth=3;" vertex="1" parent="UEdL3o1dsIDTih4_GVur-24">
          <mxGeometry width="165" height="40" as="geometry" />
        </mxCell>
      </root>
    </mxGraphModel>
  </diagram>
</mxfile>
